<?xml version="1.0" encoding="UTF-8" standalone="no"?>
<!-- Created with Inkscape (http://www.inkscape.org/) -->

<svg
   xmlns:dc="http://purl.org/dc/elements/1.1/"
   xmlns:cc="http://creativecommons.org/ns#"
   xmlns:rdf="http://www.w3.org/1999/02/22-rdf-syntax-ns#"
   xmlns:svg="http://www.w3.org/2000/svg"
   xmlns="http://www.w3.org/2000/svg"
   xmlns:sodipodi="http://sodipodi.sourceforge.net/DTD/sodipodi-0.dtd"
   xmlns:inkscape="http://www.inkscape.org/namespaces/inkscape"
   width="210mm"
   height="297mm"
   viewBox="0 0 210 297"
   version="1.1"
   id="svg8"
   inkscape:version="0.92.4 (5da689c313, 2019-01-14)"
   sodipodi:docname="flyer_tree.svg">
  <defs
     id="defs2" />
  <sodipodi:namedview
     id="base"
     pagecolor="#ffffff"
     bordercolor="#666666"
     borderopacity="1.0"
     inkscape:pageopacity="0.0"
     inkscape:pageshadow="2"
     inkscape:zoom="2.8284271"
     inkscape:cx="407.44209"
     inkscape:cy="844.48412"
     inkscape:document-units="mm"
     inkscape:current-layer="g41"
     showgrid="false"
     inkscape:window-width="2400"
     inkscape:window-height="1284"
     inkscape:window-x="-9"
     inkscape:window-y="-9"
     inkscape:window-maximized="1" />
  <metadata
     id="metadata5">
    <rdf:RDF>
      <cc:Work
         rdf:about="">
        <dc:format>image/svg+xml</dc:format>
        <dc:type
           rdf:resource="http://purl.org/dc/dcmitype/StillImage" />
        <dc:title></dc:title>
      </cc:Work>
    </rdf:RDF>
  </metadata>
  <g
     inkscape:label="Layer 1"
     inkscape:groupmode="layer"
     id="layer1">
    <g
       id="g41"
       transform="matrix(0.86389838,0,0,0.81957809,-101.84365,-63.522638)">
      <path
         style="fill:#fefefe;stroke-width:0.08466667"
         d="M 142.37192,260.43484 V 88.857841 h 99.14467 99.14467 V 260.43484 432.01183 h -99.14467 -99.14467 z"
         id="path57"
         inkscape:connector-curvature="0" />
      <path
         style="fill:#ed8e09;stroke-width:0.08466667;fill-opacity:0.2"
         d="m 211.63008,416.32733 8.5e-4,-11.28183 0.19801,-0.42333 c 0.20312,-0.43426 0.7496,-0.99059 1.22076,-1.24278 l 0.26549,-0.14209 0.0249,-3.32924 c 0.0235,-3.14317 0.0343,-3.34659 0.19421,-3.6399 0.0931,-0.17087 2.98873,-3.10112 6.43466,-6.51167 3.44594,-3.41054 6.29457,-6.24985 6.33029,-6.30958 0.0357,-0.0597 0.0897,-22.5593 0.11991,-49.99906 l 0.0549,-49.89048 -9.92434,-9.8891 -9.92434,-9.8891 h -6.47545 c -5.36694,0 -6.5221,-0.0203 -6.7479,-0.11864 -0.15797,-0.0688 -3.17189,-3.02166 -7.17259,-7.02733 -3.79508,-3.79978 -6.95239,-6.9087 -7.01626,-6.9087 -0.0639,0 -0.33065,0.12848 -0.59286,0.28552 -1.11491,0.66771 -2.15927,0.93721 -3.60941,0.9314 -1.5698,-0.006 -2.55518,-0.3049 -3.89467,-1.18023 -1.46533,-0.95757 -2.50801,-2.44235 -2.96888,-4.22769 -0.22875,-0.88613 -0.21299,-2.49162 0.0335,-3.41456 0.68072,-2.54874 2.62097,-4.45919 5.22136,-5.14119 0.85697,-0.22475 2.55756,-0.20786 3.45749,0.0343 3.40675,0.91686 5.67196,4.24035 5.23705,7.68375 -0.12666,1.00282 -0.42777,1.92784 -0.8728,2.68127 -0.19753,0.33443 -0.31944,0.63452 -0.29235,0.71967 0.0256,0.0803 3.02876,3.12738 6.6738,6.77122 l 6.62735,6.62517 h 4.88324 c 3.47562,0 4.89991,-0.027 4.94109,-0.0936 0.0339,-0.0548 -1.96208,-2.11809 -4.81176,-4.97416 -2.67829,-2.6843 -4.94046,-5.01389 -5.02703,-5.17688 -0.14844,-0.27944 -0.15982,-0.67159 -0.19974,-6.87954 l -0.0423,-6.5832 -5.08201,-5.05846 c -2.79511,-2.78216 -5.41169,-5.37279 -5.81464,-5.75696 l -0.73262,-0.6985 h -7.67274 c -6.86948,0 -7.7011,-0.0142 -7.9437,-0.1357 -0.14903,-0.0746 -2.46856,-2.32893 -5.15451,-5.00956 l -4.88356,-4.87387 -0.52149,0.23403 c -0.97481,0.43747 -1.57612,0.57033 -2.79405,0.61736 -1.75066,0.0676 -3.07541,-0.27974 -4.41095,-1.15651 -0.82411,-0.54102 -1.96189,-1.74028 -2.42009,-2.55085 -0.95665,-1.69237 -1.23126,-3.77707 -0.74649,-5.6669 0.19309,-0.75275 0.78246,-1.96569 1.2636,-2.60053 2.12233,-2.80033 6.01886,-3.76499 9.17258,-2.27087 0.8254,0.39105 1.30056,0.7254 2.042,1.4369 1.01235,0.97148 1.68292,2.10554 2.05583,3.47683 0.14928,0.54893 0.18435,0.91007 0.18499,1.905 6.8e-4,1.09052 -0.0245,1.31079 -0.22575,1.97174 -0.22276,0.73166 -0.68599,1.74814 -0.99803,2.19 -0.0873,0.1236 -0.15871,0.27614 -0.15871,0.33896 0,0.0628 2.00991,2.12387 4.46646,4.5801 l 4.46647,4.46587 7.57737,8.4e-4 c 4.74168,0 7.69034,0.0319 7.87923,0.0843 0.16603,0.0461 0.45784,0.21736 0.64846,0.38053 0.66331,0.56776 0.61601,0.97565 0.61601,-5.31274 v -5.60942 l -5.3975,-5.3953 -5.3975,-5.39531 -4.67768,-0.0231 -4.67769,-0.0231 -6.51948,-6.51913 -6.51948,-6.51949 v -1.03738 c 0,-1.20818 -0.0543,-1.31417 -0.72529,-1.41479 -1.20115,-0.18012 -2.88503,-1.09958 -3.7758,-2.06172 -1.39895,-1.51103 -1.99745,-3.15784 -1.91137,-5.25931 0.0742,-1.81277 0.65993,-3.19251 1.92066,-4.52465 3.42399,-3.61791 9.42226,-2.6243 11.5632,1.91543 0.41737,0.88503 0.55773,1.49568 0.60931,2.6509 0.0941,2.10674 -0.56094,3.83582 -2.00623,5.29606 -0.969,0.97904 -2.09357,1.60288 -3.49114,1.93668 -0.3785,0.0904 -0.71921,0.21327 -0.75713,0.27304 -0.0379,0.0598 -0.0695,0.45126 -0.0703,0.87001 l -0.001,0.76134 6.11783,6.11782 6.11782,6.11782 h 4.69766 4.69765 l 5.82152,5.82152 5.82153,5.82152 v 6.77452 6.77452 l 0.72435,0.71779 c 0.69203,0.68578 0.72986,0.71039 0.84794,0.5517 0.10666,-0.14333 0.12052,-1.243 0.10115,-8.02199 l -0.0225,-7.85588 -6.7308,-6.73119 -6.7308,-6.73118 h -3.79175 c -3.04256,0 -3.84558,-0.0232 -4.0642,-0.11723 -0.3897,-0.1677 -4.29411,-4.12427 -4.29411,-4.35148 0,-0.19003 -0.28961,-0.44195 -0.50806,-0.44195 -0.35022,0 -1.39632,-0.61881 -1.89795,-1.1227 -0.90852,-0.91262 -1.28699,-1.93318 -1.21485,-3.27585 0.0479,-0.89069 0.26791,-1.5286 0.76907,-2.22945 0.84806,-1.18596 1.98312,-1.754 3.50483,-1.754 1.2842,0 2.22871,0.41387 3.12719,1.37032 1.9689,2.09591 1.28381,5.49239 -1.36263,6.75548 -0.39835,0.19012 -0.72427,0.3926 -0.72427,0.44997 0,0.0573 0.70519,0.80874 1.5671,1.66975 l 1.5671,1.56548 3.97909,0.0423 3.97909,0.0423 7.11148,7.11306 7.11147,7.11306 v 9.13304 9.13303 l 0.66597,0.67949 c 0.47228,0.48188 0.7062,0.66406 0.80433,0.6264 0.12708,-0.0488 0.13837,-0.96014 0.13837,-11.16714 v -11.11406 l -7.59883,-7.60527 c -4.17936,-4.18289 -7.66217,-7.64052 -7.73957,-7.68361 -0.0977,-0.0544 -0.31456,-0.0129 -0.70979,0.13586 -3.37813,1.27152 -6.71889,-2.00194 -5.54001,-5.4284 0.59519,-1.72996 2.17768,-2.83112 4.06865,-2.83112 1.50555,0 2.72254,0.64435 3.54599,1.87747 0.91752,1.374 0.9381,3.25087 0.0509,4.64186 -0.16336,0.25612 -0.29799,0.50384 -0.29918,0.55051 -0.001,0.0467 3.46738,3.55186 7.70793,7.78934 4.24056,4.23746 7.76481,7.80737 7.83167,7.93311 0.10402,0.19564 0.12157,1.99114 0.12157,12.4427 v 12.21405 l 2.31858,2.33165 c 2.26272,2.27546 2.32086,2.34245 2.413,2.78031 0.0646,0.30681 0.0944,2.43496 0.0944,6.7311 v 6.28243 l 13.32632,13.32612 c 9.73018,9.73003 13.36293,13.31207 13.462,13.27406 0.12316,-0.0473 0.13568,-0.80774 0.13568,-8.24658 v -8.1945 l -3.78919,-3.78849 c -2.15888,-2.15847 -3.85406,-3.78848 -3.93997,-3.78848 -0.0829,0 -0.23722,0.0566 -0.34285,0.12584 -0.34475,0.22589 -1.18658,0.47138 -1.79166,0.52248 -1.15702,0.0977 -2.42476,-0.35881 -3.25322,-1.17151 -0.94606,-0.92805 -1.32007,-1.82987 -1.31045,-3.15981 0.005,-0.67181 0.0466,-0.95157 0.20202,-1.35466 0.43941,-1.1394 1.20085,-1.96928 2.27868,-2.48353 0.56886,-0.27141 0.71004,-0.30229 1.53755,-0.33639 0.7562,-0.0312 1.01027,-0.007 1.49381,0.13943 1.16904,0.35508 2.06849,1.13921 2.6344,2.29663 l 0.31188,0.63786 v 1.143 1.143 l -0.3175,0.66495 c -0.17463,0.36573 -0.3175,0.68864 -0.3175,0.71759 0,0.0289 1.80022,1.85432 4.0005,4.0564 l 4.0005,4.00377 0.0226,9.41706 0.0226,9.41706 1.89576,1.90592 c 1.53986,1.5481 1.9138,1.96949 1.99185,2.24458 0.0713,0.25134 0.0897,13.43747 0.0713,51.13866 -0.0239,48.87269 -0.0306,50.81125 -0.17839,51.09634 -0.0845,0.16298 -3.01818,3.13865 -6.51934,6.6126 l -6.36574,6.31627 v 2.81404 2.81405 l 0.21167,0.16286 c 0.65546,0.50433 0.86642,0.71461 1.07799,1.07452 l 0.23434,0.39866 0.0224,11.36649 0.0224,11.3665 h -3.1762 -3.1762 l 8.4e-4,-11.28183 z m 3.47051,-164.83502 c 0.58829,-0.2747 1.11307,-0.79941 1.41551,-1.41528 0.19831,-0.40383 0.23536,-0.58645 0.23466,-1.15686 -6.8e-4,-0.56271 -0.0412,-0.76498 -0.23936,-1.19527 -0.29674,-0.64436 -0.79272,-1.13798 -1.45314,-1.44627 -0.42774,-0.19966 -0.61503,-0.23642 -1.18534,-0.23264 -0.84966,0.006 -1.44625,0.26706 -2.02752,0.88848 -0.58848,0.62914 -0.76283,1.07244 -0.76483,1.94462 -0.001,0.64617 0.0273,0.77982 0.27773,1.28896 0.32428,0.6593 0.78381,1.07943 1.51798,1.38779 0.66155,0.27787 1.54738,0.25257 2.22431,-0.0635 z m -38.8241,-2.91321 c 2.11207,-0.55012 3.62292,-2.50873 3.62292,-4.6966 0,-2.18787 -1.51085,-4.14647 -3.62292,-4.69659 -0.27325,-0.0712 -0.81668,-0.12941 -1.20764,-0.12941 -1.3906,0 -2.4117,0.42817 -3.40955,1.42968 -0.99031,0.99396 -1.42912,2.03164 -1.43104,3.38411 -0.002,1.37746 0.42217,2.38451 1.43548,3.40838 0.98865,0.99896 1.96269,1.41287 3.35056,1.4238 0.43389,0.003 0.98055,-0.05 1.26219,-0.12337 z M 154.1794,213.9502 c 2.02176,-0.52661 3.50205,-2.60116 3.30739,-4.63517 -0.17393,-1.8175 -1.34002,-3.29046 -3.07608,-3.88559 -0.81662,-0.27995 -1.94517,-0.26693 -2.78608,0.0321 -1.41333,0.50265 -2.49018,1.66496 -2.86078,3.0878 -0.15946,0.61221 -0.16111,1.62556 -0.004,2.21733 0.39836,1.49669 1.66931,2.7729 3.17901,3.19217 0.53621,0.14892 1.65168,0.1446 2.24015,-0.009 z m 9.97817,-22.76116 c 0.60057,-0.29382 1.17926,-0.93139 1.41667,-1.5608 0.14736,-0.39064 0.17524,-0.61195 0.14617,-1.16007 -0.0703,-1.32617 -0.86844,-2.30258 -2.15858,-2.64084 -2.24549,-0.58874 -4.24104,1.80298 -3.28388,3.93583 0.29088,0.64816 0.94649,1.282 1.58906,1.53628 0.6458,0.25557 1.64057,0.20762 2.29056,-0.1104 z m 10.23238,0.0835 c 0.84818,-0.34887 1.4154,-0.96797 1.69465,-1.84964 0.5313,-1.67744 -0.67414,-3.45884 -2.4845,-3.67161 -0.37007,-0.0435 -0.61584,-0.0143 -1.08857,0.12928 -0.52621,0.15983 -0.68383,0.25782 -1.14076,0.70921 -0.62114,0.6136 -0.8898,1.21418 -0.88904,1.98742 5.9e-4,0.62199 0.10053,0.96983 0.44248,1.54022 0.70025,1.16806 2.21048,1.67141 3.46574,1.15512 z m -21.22546,-7.03865 c 0.9961,-0.211 1.75645,-0.63076 2.49283,-1.3762 1.35147,-1.36809 1.7726,-3.17379 1.15463,-4.95078 -1.16606,-3.353 -5.43621,-4.37138 -7.94875,-1.89567 -1.93738,1.90898 -1.98335,4.82985 -0.10714,6.80778 0.45255,0.47708 0.73922,0.69255 1.27,0.95457 1.12206,0.5539 2.05239,0.69035 3.13843,0.4603 z m 92.6054,232.00879 c 0.0249,-12.66026 -0.031,-11.51283 0.59545,-12.22602 l 0.27358,-0.31147 0.0245,-2.83658 0.0245,-2.83658 -4.1474,-4.15559 c -3.32028,-3.32682 -4.18631,-4.24002 -4.34246,-4.57892 l -0.19506,-0.42333 -0.0214,-64.93769 -0.0215,-64.9377 -6.00195,-6.01297 c -4.07537,-4.08285 -6.06603,-6.13527 -6.20156,-6.39397 -0.19539,-0.37296 -0.2005,-0.44135 -0.24194,-3.23854 l -0.0423,-2.85753 -9.83867,-9.84247 c -5.57971,-5.58186 -9.87698,-9.94564 -9.92717,-10.08081 -0.0596,-0.16052 -0.0889,-3.36743 -0.0898,-9.82133 -6.8e-4,-5.27064 -0.0293,-9.62554 -0.0635,-9.67754 -0.0342,-0.052 -0.3526,-0.22826 -0.70753,-0.39166 -1.33857,-0.61623 -2.42262,-1.5378 -3.18787,-2.71004 -0.73309,-1.12298 -1.09993,-2.24084 -1.2561,-3.82767 l -0.0497,-0.50459 -4.03453,-4.00228 -4.03452,-4.00227 -4.318,-0.002 c -2.82575,-0.001 -4.43504,-0.0338 -4.65667,-0.0937 -0.28989,-0.0784 -1.07424,-0.82525 -5.44602,-5.18536 -2.82942,-2.82187 -5.18013,-5.23384 -5.2705,-5.40787 -0.15745,-0.30315 -0.16314,-0.57332 -0.16314,-7.74477 v -7.43065 l -3.7465,-3.753 c -2.92355,-2.92861 -3.7837,-3.74458 -3.91584,-3.71473 -0.0931,0.0211 -0.47413,0.17281 -0.84666,0.33724 -0.89098,0.39328 -1.77378,0.56439 -2.9119,0.56439 -2.16169,0 -3.94651,-0.76861 -5.43224,-2.33931 -0.82703,-0.87434 -1.45353,-1.96441 -1.77852,-3.09452 -0.22894,-0.79611 -0.31072,-2.37097 -0.16881,-3.25068 0.41823,-2.59256 2.23012,-4.83788 4.66113,-5.77615 1.02563,-0.39584 1.51236,-0.47794 2.794,-0.4713 1.07341,0.006 1.32126,0.0346 1.97245,0.23093 2.60463,0.78537 4.48491,2.67474 5.23539,5.26069 0.16688,0.57506 0.19652,0.86911 0.1963,1.94734 -3.4e-4,1.51955 -0.1631,2.22011 -0.81208,3.49478 -0.22626,0.44442 -0.41139,0.84865 -0.41139,0.89829 0,0.0497 1.80629,1.90091 4.01397,4.11393 3.41328,3.42152 4.02772,4.07434 4.10586,4.36233 0.0627,0.23125 0.092,2.66447 0.0924,7.67193 l 5e-4,7.33326 4.44015,4.42741 c 2.44207,2.43507 4.48995,4.45899 4.55083,4.4976 0.0609,0.0386 2.08388,0.0708 4.49556,0.0715 4.16763,0.001 4.40044,0.009 4.699,0.16492 0.17277,0.09 1.93321,1.78544 3.91209,3.76766 1.97888,1.98223 3.64433,3.60405 3.70101,3.60405 0.0567,0 0.2636,-0.23812 0.45983,-0.52917 1.01549,-1.50614 2.76623,-2.67451 4.60253,-3.07153 0.37254,-0.0806 0.72496,-0.1843 0.78317,-0.23057 0.0796,-0.0633 0.10583,-0.61084 0.10583,-2.21112 v -2.12715 l -10.0754,-10.07665 -10.07533,-10.07665 v -1.95148 c 0,-1.4285 -0.0284,-1.9898 -0.10584,-2.09445 -0.0582,-0.0786 -0.33133,-0.2014 -0.60693,-0.27282 -1.45131,-0.37611 -2.63467,-1.50734 -3.04699,-2.91278 -0.16603,-0.56594 -0.17475,-1.75363 -0.0172,-2.34527 0.38957,-1.4631 1.60832,-2.64134 3.13859,-3.03428 2.2411,-0.57548 4.62547,0.89276 5.16468,3.1803 0.48721,2.06693 -0.62653,4.20496 -2.57897,4.95083 -0.20955,0.08 -0.42862,0.20452 -0.48683,0.2766 -0.0768,0.0951 -0.10584,0.59689 -0.10584,1.82854 v 1.69748 l 10.07534,10.07665 10.07533,10.07665 v 2.34351 c 0,1.28893 0.0344,2.43396 0.0764,2.54453 0.0632,0.16636 0.1739,0.21899 0.64171,0.30518 2.80149,0.51619 5.13597,2.68437 5.8986,5.47839 0.25913,0.94936 0.26295,2.83833 0.008,3.771 -0.76935,2.81043 -2.95515,4.87353 -5.81523,5.48879 l -0.68214,0.14675 -0.0216,9.00957 -0.0216,9.00957 8.28751,8.2875 c 4.97562,4.97563 8.33387,8.27204 8.40355,8.24881 0.0972,-0.0324 0.11605,-1.31136 0.11605,-7.86329 v -7.82461 l -1.27,0.0304 c -1.83741,0.044 -3.11507,-0.21574 -4.55355,-0.92577 -1.97745,-0.97606 -3.55814,-2.57103 -4.46421,-4.50452 -1.15252,-2.45943 -1.20355,-5.30796 -0.14023,-7.82916 0.88623,-2.10134 2.88695,-4.10207 4.98829,-4.9883 5.68015,-2.39558 12.1067,1.0787 13.15456,7.11154 0.19782,1.1389 0.12444,2.95834 -0.1635,4.05355 -0.39231,1.49225 -1.17812,2.90022 -2.30238,4.12531 -0.43798,0.47726 -0.55422,0.65682 -0.51641,0.79774 0.0268,0.10003 0.0493,6.10592 0.0499,13.34645 l 0.001,13.16459 3.71555,3.71555 c 2.20476,2.20476 3.76257,3.69989 3.83117,3.67703 0.0973,-0.0324 0.11898,-4.17057 0.13691,-26.13836 l 0.0213,-26.09982 -9.07286,-9.11446 c -6.36328,-6.39238 -9.11895,-9.2156 -9.22701,-9.45312 -0.14299,-0.31431 -0.15421,-0.67662 -0.15593,-5.0371 l -0.002,-4.69844 -8.55134,-8.55288 -8.55133,-8.55288 -10e-4,-2.87768 c -6.8e-4,-1.58273 -0.0241,-2.96341 -0.0522,-3.06819 -0.0554,-0.20678 -0.2753,-0.2513 -0.43792,-0.0887 -0.0793,0.0793 -0.59038,-0.38382 -2.31228,-2.0955 -1.21576,-1.20852 -2.32056,-2.34591 -2.45512,-2.52752 l -0.24465,-0.3302 v -3.52073 -3.52074 l -5.99017,-5.99696 c -3.29459,-3.29833 -6.05835,-6.03478 -6.14168,-6.081 -0.11885,-0.0659 -0.26057,-0.0112 -0.65739,0.25377 -0.73193,0.48876 -1.35772,0.70434 -2.18593,0.75304 -0.83707,0.0492 -1.4625,-0.0708 -2.15914,-0.41445 -1.73489,-0.85573 -2.69438,-2.79029 -2.30439,-4.64619 0.4339,-2.0648 2.13777,-3.47134 4.20514,-3.47134 2.09583,0 3.89464,1.53563 4.22998,3.6111 0.10931,0.6765 0.0501,1.29863 -0.19473,2.04721 l -0.17532,0.53598 6.31302,6.32202 c 3.47217,3.47712 6.35508,6.40525 6.40648,6.50696 0.0637,0.12598 0.0935,1.29859 0.0935,3.6786 v 3.49366 l 1.83895,1.8459 c 1.01143,1.01525 1.90234,1.84591 1.9798,1.84591 0.0775,0 0.16381,-0.0857 0.19188,-0.1905 0.0281,-0.10478 0.051,-7.98195 0.051,-17.50484 -7e-5,-13.57607 -0.0227,-17.35778 -0.10467,-17.51556 -0.0711,-0.13686 -0.25501,-0.24738 -0.57491,-0.34556 -1.79237,-0.55006 -3.04736,-2.23854 -3.04209,-4.09288 0.003,-1.07129 0.48666,-2.23544 1.2434,-2.9931 2.29579,-2.29858 6.20811,-1.33 7.14973,1.77007 0.23421,0.77111 0.19309,2.06625 -0.0886,2.7914 -0.41091,1.05765 -1.42027,2.06151 -2.44471,2.43141 -0.26659,0.0962 -0.54185,0.20756 -0.6117,0.24734 -0.11227,0.064 -0.12948,2.53059 -0.14833,21.2648 l -0.0213,21.19246 0.96312,0.97298 c 0.68995,0.69702 1.00217,0.958 1.10083,0.92014 0.12609,-0.0484 0.13772,-0.88627 0.13772,-9.92338 0,-8.40908 0.018,-9.90438 0.12141,-10.09915 0.0668,-0.12575 1.19072,-1.29518 2.49767,-2.59873 1.30694,-1.30356 2.37625,-2.41667 2.37625,-2.47359 0,-0.0569 -0.13177,-0.34322 -0.29283,-0.63623 -0.42468,-0.77261 -0.58399,-1.47767 -0.53138,-2.35175 0.17617,-2.92675 3.06607,-4.76411 5.85315,-3.72133 1.03548,0.38743 2.05094,1.43302 2.43961,2.512 0.22097,0.61343 0.29418,1.74364 0.15441,2.38383 -0.36529,1.67321 -1.78952,3.02866 -3.48239,3.3142 -0.87223,0.14712 -1.74693,0.003 -2.81328,-0.4646 -0.12587,-0.0552 -0.59106,0.36801 -2.51883,2.29127 l -2.36446,2.35893 v 10.58558 10.58557 l 5.90573,5.90528 c 3.31123,3.31097 5.97072,5.90527 6.05366,5.90527 0.13984,0 0.14795,-0.47032 0.14795,-8.58686 v -8.58687 l -0.4445,-0.14564 c -1.71896,-0.56325 -3.13181,-1.76494 -3.87629,-3.29696 -0.45338,-0.93299 -0.61615,-1.66855 -0.61827,-2.794 -0.002,-1.13806 0.142,-1.74383 0.67492,-2.83634 0.33393,-0.68456 0.50775,-0.91908 1.16727,-1.57489 0.64955,-0.6459 0.90452,-0.83422 1.57605,-1.16407 1.10336,-0.54197 1.69304,-0.68189 2.87548,-0.68229 0.75146,-2.5e-4 1.12457,0.0425 1.63486,0.18758 2.07476,0.58965 3.69554,2.12634 4.34827,4.12267 0.17271,0.52823 0.23036,0.90418 0.26184,1.70777 0.0504,1.28737 -0.0996,2.03045 -0.6177,3.06001 -0.68262,1.35641 -1.56353,2.21477 -2.98094,2.90465 -0.6334,0.30829 -0.8795,0.47233 -0.91243,0.6082 -0.0248,0.10232 -0.0346,6.42478 -0.0217,14.04992 l 0.0234,13.86387 4.52937,4.52996 c 2.54925,2.54958 4.59447,4.52995 4.67828,4.52995 0.14117,0 0.14779,-0.39935 0.1273,-7.68041 l -0.0216,-7.68042 -0.62866,-0.23205 c -1.14669,-0.42327 -1.91882,-1.10884 -2.45831,-2.18272 -1.12665,-2.24265 0.008,-5.02596 2.40254,-5.89526 0.8077,-0.29318 2.08517,-0.29318 2.89286,0 1.74046,0.63175 2.82723,2.18017 2.82723,4.0282 0,1.88127 -1.0664,3.37925 -2.883,4.04977 l -0.62866,0.23204 -0.0468,8.25193 c -0.0257,4.53855 -0.0744,8.34717 -0.10826,8.46359 -0.0556,0.19128 0.15319,0.43106 2.1671,2.4894 1.42039,1.45172 2.2733,2.26289 2.35193,2.23681 0.10027,-0.0333 0.13168,-0.34842 0.16787,-1.68506 0.0399,-1.47191 0.0646,-1.6885 0.23654,-2.06748 0.15676,-0.34561 1.1707,-1.40311 5.52231,-5.75954 l 5.33029,-5.33621 v -6.59952 -6.5995 l -5.15507,-5.16695 c -2.83528,-2.84182 -5.20701,-5.2622 -5.2705,-5.37861 -0.0948,-0.17379 -0.11949,-1.68906 -0.13814,-8.46667 l -0.0227,-8.255 -8.42278,-8.42533 -8.42279,-8.42533 v -8.28074 c 0,-5.5462 -0.0289,-8.33481 -0.0876,-8.4445 -0.0482,-0.0901 -0.13958,-0.16377 -0.20306,-0.16377 -0.0635,0 -0.46526,-0.17513 -0.89283,-0.38917 -1.85619,-0.92921 -2.98358,-2.75998 -2.99289,-4.86016 -0.007,-1.542924 0.49174,-2.750452 1.59353,-3.85943 1.36043,-1.369307 3.12383,-1.9009 5.01194,-1.510899 1.50275,0.310401 2.84189,1.278701 3.63395,2.627625 0.60384,1.028369 0.85048,2.625474 0.59352,3.843374 -0.40298,1.91 -1.90702,3.56632 -3.73552,4.11374 -0.2794,0.0836 -0.55562,0.18754 -0.61383,0.23087 -0.0833,0.062 -0.10583,1.73864 -0.10583,7.88574 v 7.80694 l 7.1995,7.18985 c 3.95972,3.95442 7.24585,7.18986 7.3025,7.18986 0.08,0 0.10781,-1.85454 0.12458,-8.32013 l 0.0216,-8.32013 -0.19092,-0.0726 c -0.105,-0.04 -0.47666,-0.15833 -0.82591,-0.26303 -2.4011,-0.71985 -4.29837,-2.66402 -5.01575,-5.13972 -0.25613,-0.88395 -0.27531,-3.05602 -0.0346,-3.91934 0.72832,-2.61209 2.71493,-4.59406 5.36457,-5.35204 0.96727,-0.27671 2.81534,-0.27542 3.83341,0.003 3.30793,0.90359 5.59306,3.88192 5.58791,7.28298 -0.001,0.86161 -0.2274,2.03718 -0.53844,2.79961 -0.75849,1.85926 -2.38768,3.4527 -4.26654,4.1729 -0.3602,0.13808 -0.70254,0.31251 -0.76075,0.38764 -0.0839,0.10828 -0.10583,3.7941 -0.10583,17.77762 0,15.16199 0.0171,17.67315 0.12148,17.86965 0.0668,0.12575 1.68057,1.78506 3.58612,3.68736 2.53517,2.53086 3.50765,3.45044 3.62502,3.42785 0.15625,-0.0301 0.16147,-0.33717 0.20271,-11.9254 0.0405,-11.37081 0.0493,-11.90756 0.1992,-12.19084 0.0863,-0.16299 3.2581,-3.40226 7.0485,-7.19839 l 6.89164,-6.90205 v -6.23208 c 0,-4.8838 -0.0229,-6.25051 -0.10584,-6.31726 -0.0582,-0.0468 -0.42968,-0.18351 -0.8255,-0.3037 -3.13552,-0.95211 -5.62915,-3.55202 -6.43725,-6.71162 -0.82965,-3.24392 0.10497,-6.711215 2.44602,-9.074398 1.86547,-1.883101 4.10552,-2.811171 6.78523,-2.811171 2.178,0 3.96554,0.58006 5.65221,1.834157 2.74618,2.04188 4.13544,5.202193 3.80888,8.664512 -0.31466,3.33613 -2.53381,6.3572 -5.67304,7.72307 -0.43031,0.18723 -0.83,0.40031 -0.88821,0.47352 -0.0827,0.10406 -0.10624,1.68622 -0.1077,7.25009 -0.002,6.95967 -0.006,7.12541 -0.17312,7.49798 -0.13239,0.29451 -1.73204,1.94279 -7.04664,7.26087 l -6.87538,6.87987 -0.0423,20.8908 c -0.0408,20.1136 -0.0482,20.90182 -0.19887,21.18713 -0.0861,0.16298 -2.55308,2.69733 -5.48217,5.6319 l -5.32563,5.33556 v 17.63292 c 0,16.09456 0.0118,17.63747 0.13564,17.68498 0.0981,0.0376 0.91336,-0.72566 2.94217,-2.75443 l 2.80653,-2.80647 0.0236,-4.02266 c 0.0145,-2.48262 -0.008,-4.08136 -0.0585,-4.17599 -0.0451,-0.0844 -0.24624,-0.20183 -0.44689,-0.26108 -1.06826,-0.31546 -2.13905,-1.19837 -2.60579,-2.14856 -1.43766,-2.92685 0.58331,-6.23817 3.80729,-6.23817 1.19026,0 2.18365,0.40673 3.01534,1.23459 2.29937,2.28878 1.32396,6.1871 -1.78767,7.14455 -0.18627,0.0573 -0.38629,0.16443 -0.4445,0.23805 -0.0816,0.10315 -0.10583,1.1339 -0.10583,4.49501 v 4.36118 l -3.64244,3.64877 -3.64244,3.64878 0.0229,1.76704 c 0.0182,1.40509 0.0467,1.77494 0.13885,1.80561 0.0693,0.0231 2.52904,-2.37454 6.11762,-5.96312 l 6.0017,-6.0017 -0.0216,-7.73412 -0.0216,-7.73412 -0.5175,-0.18738 c -1.83606,-0.6648 -2.92964,-2.18589 -2.92503,-4.06849 0.004,-1.70704 0.86368,-3.11889 2.34186,-3.84684 0.65223,-0.3212 1.1161,-0.42517 1.90838,-0.42775 1.22344,-0.004 2.14874,0.37512 3.02431,1.23902 1.68129,1.65887 1.69157,4.36899 0.0229,6.03768 -0.46824,0.46824 -1.53753,1.10324 -1.85778,1.10324 -0.0765,0 -0.22379,0.0593 -0.32728,0.1318 l -0.18818,0.1318 v 7.87476 c 0,5.57513 -0.0273,7.92877 -0.0934,8.0597 -0.0514,0.10172 -3.1376,3.23311 -6.85821,6.95868 l -6.76476,6.77373 0.0214,16.97527 c 0.0168,13.36958 0.0435,16.97526 0.12557,16.97526 0.14752,0 8.66311,-8.50953 8.75357,-8.74735 0.10019,-0.26335 0.0968,-10.36015 -0.004,-10.62411 -0.0581,-0.15277 -0.18297,-0.23165 -0.48683,-0.30751 -0.61493,-0.15351 -1.86632,-0.77666 -2.45374,-1.22191 -4.49956,-3.41044 -3.77413,-10.37315 1.33288,-12.7928 1.04441,-0.49484 1.81455,-0.65915 3.12514,-0.66675 1.51225,-0.009 2.66358,0.28347 3.8328,0.97286 0.22439,0.13231 0.454,0.24057 0.51023,0.24057 0.0562,0 4.62847,-4.52635 10.16053,-10.05856 l 10.05828,-10.05855 -0.0254,-0.57944 c -0.0289,-0.65805 0.0199,-0.60836 -0.95675,-0.97478 -0.98159,-0.36827 -1.66864,-0.80241 -2.47818,-1.56595 -0.81423,-0.76795 -1.25779,-1.37974 -1.71418,-2.36433 -0.50746,-1.09475 -0.62792,-1.68856 -0.62891,-3.10039 -9.3e-4,-1.34782 0.13155,-2.00401 0.6239,-3.08987 0.86978,-1.91826 2.69378,-3.51297 4.66304,-4.07687 0.25611,-0.0733 0.49828,-0.16364 0.53814,-0.20068 0.081,-0.0753 0.0822,-2.70173 0.004,-8.25358 l -0.0526,-3.72534 -6.50997,-6.52115 -6.50997,-6.52114 -10e-4,-9.31152 c -8.5e-4,-5.12133 -0.0293,-9.35547 -0.0635,-9.40919 -0.0342,-0.0537 -0.28503,-0.17598 -0.55737,-0.27169 -1.31997,-0.46387 -2.3767,-1.59742 -2.7339,-2.93264 -0.15541,-0.58088 -0.14539,-1.77162 0.0196,-2.33413 0.31508,-1.07403 1.1789,-2.11488 2.15158,-2.59255 0.70347,-0.34547 1.14718,-0.44501 1.99497,-0.44758 1.12143,-0.003 2.03444,0.34706 2.85289,1.09507 0.84998,0.77683 1.29906,1.70999 1.38707,2.88219 0.14758,1.96566 -1.07641,3.73799 -3.0181,4.37018 l -0.55033,0.17919 -0.0223,2.80531 c -0.0202,2.54008 -0.009,2.80532 0.11504,2.80532 0.0755,0 3.16256,-3.01942 6.86007,-6.70983 l 6.72276,-6.70983 -9.4e-4,-4.69533 -9.3e-4,-4.69532 -2.22037,-2.22618 c -1.22122,-1.22439 -2.24917,-2.22617 -2.28437,-2.22617 -0.0352,0 -0.27725,0.13642 -0.53791,0.30317 -0.77286,0.49439 -1.31395,0.65099 -2.28102,0.66015 -0.61663,0.006 -0.97319,-0.0345 -1.31234,-0.14853 -1.23023,-0.4136 -2.25751,-1.36187 -2.70488,-2.49683 -0.92223,-2.33972 0.33868,-4.97106 2.73016,-5.69745 0.48354,-0.14687 0.7376,-0.17058 1.49381,-0.13943 0.82645,0.0341 0.96961,0.0653 1.53955,0.33596 1.72333,0.8184 2.73547,2.6575 2.45584,4.46234 -0.0532,0.34305 -0.17264,0.79557 -0.26556,1.0056 -0.0929,0.21003 -0.16892,0.42442 -0.16892,0.47642 0,0.052 1.11443,1.20944 2.4765,2.57209 l 2.4765,2.47756 v 5.29095 5.29095 l -7.5565,7.55686 -7.5565,7.55687 v 1.46032 c 0,1.33494 0.0127,1.46033 0.14833,1.46033 0.0839,0 3.81719,-3.66901 8.59367,-8.44566 l 8.44534,-8.44566 v -10.33997 c 0,-8.17083 -0.0222,-10.35756 -0.10584,-10.42381 -0.0582,-0.0461 -0.30345,-0.14828 -0.54499,-0.22706 -0.93984,-0.30653 -2.00126,-1.21567 -2.44757,-2.09643 -0.61576,-1.21514 -0.60836,-2.74695 0.0192,-3.98548 0.28809,-0.56853 1.21855,-1.49898 1.78708,-1.78708 1.26044,-0.63871 2.82516,-0.6342 4.03739,0.0116 0.55196,0.29406 1.46746,1.20956 1.76153,1.76151 0.64926,1.21868 0.64881,2.8499 -10e-4,4.04447 -0.51571,0.94784 -1.49542,1.75903 -2.48105,2.05427 -0.38765,0.11612 -0.53825,0.20576 -0.59457,0.3539 -0.0427,0.1122 -0.0754,4.78438 -0.0754,10.75518 v 10.5568 l -9.27104,9.27071 -9.271,9.27071 v 2.54038 2.54039 l 5.65174,5.65126 c 3.10845,3.1082 5.69608,5.65126 5.75027,5.65126 0.0542,0 0.11656,-0.0476 0.13855,-0.10583 0.022,-0.0582 0.0208,-1.24884 -0.003,-2.64584 l -0.0427,-2.54 -2.95358,-2.9661 -2.9536,-2.96609 v -3.5109 l 1e-5,-3.5109 7.45066,-7.45223 7.45066,-7.45223 v -7.43351 c 0,-5.24095 0.0274,-7.48479 0.0931,-7.60739 0.0742,-0.13871 0.049,-0.2789 -0.12451,-0.69294 -0.74209,-1.77032 -0.42093,-3.52196 0.88135,-4.80694 1.75438,-1.73109 4.47259,-1.67566 6.14613,0.12533 0.77855,0.83782 1.13196,1.74295 1.13196,2.89902 0,1.94057 -1.2399,3.57989 -3.12686,4.13414 -0.89237,0.26212 -2.22857,0.13275 -3.07171,-0.29739 -0.33675,-0.1718 -0.35607,-0.1729 -0.46309,-0.0266 -0.0903,0.12356 -0.11167,1.50514 -0.11167,7.2341 v 7.08137 l -7.33013,7.31695 c -4.03157,4.02432 -7.38437,7.41982 -7.45066,7.54557 -0.0972,0.1843 -0.12054,0.7664 -0.12054,3.00229 v 2.77366 l 2.14927,2.15399 c 1.67279,1.67648 2.18255,2.14124 2.29935,2.09642 0.13966,-0.0536 0.14617,-0.18329 0.0938,-1.86849 -0.0375,-1.20657 -0.0251,-1.96157 0.0371,-2.26236 l 0.0934,-0.45147 9.38806,-9.398 9.38806,-9.398 0.023,-7.45067 c 0.0204,-6.61834 0.038,-7.47774 0.15734,-7.69307 0.0739,-0.13332 1.65072,-1.7582 3.50402,-3.61084 3.15599,-3.15485 3.36641,-3.38375 3.31859,-3.60993 -0.0281,-0.13282 -0.0965,-0.59392 -0.1521,-1.02466 -0.19133,-1.48303 0.19628,-3.26102 1.00915,-4.629 0.43064,-0.72471 1.50617,-1.88682 2.14616,-2.31892 3.83149,-2.58689 8.97065,-1.27128 11.01744,2.82042 0.84352,1.68628 1.01819,3.7483 0.46928,5.53997 -0.41067,1.34041 -1.32241,2.70052 -2.41911,3.60878 -0.69414,0.57487 -2.03405,1.25214 -2.91452,1.47318 -2.45355,0.61595 -5.04689,-0.0392 -6.91904,-1.74783 -0.32206,-0.29394 -0.63679,-0.53443 -0.69941,-0.53443 -0.0626,0 -1.3035,1.19062 -2.75752,2.64583 l -2.64367,2.64584 -0.0228,7.45066 c -0.0216,7.05963 -0.031,7.46622 -0.17937,7.747 -0.0861,0.16299 -4.34898,4.49278 -9.47307,9.62176 l -9.31652,9.32542 0.10518,12.05291 c 0.0579,6.62911 0.12973,12.27856 0.15973,12.55437 l 0.0546,0.50144 0.59267,0.18644 c 1.2689,0.39915 2.25633,1.00157 3.14616,1.91944 1.07425,1.1081 1.73059,2.33688 2.02353,3.7884 0.21351,1.05794 0.13582,2.66963 -0.17566,3.64382 -0.42294,1.32276 -0.99259,2.24506 -1.98717,3.21733 -0.78891,0.77121 -1.73288,1.34304 -2.8004,1.69638 -0.43953,0.14547 -0.84676,0.32589 -0.90496,0.40091 -0.0711,0.0916 -0.10584,0.46641 -0.10584,1.14043 0,0.75001 -0.0342,1.07258 -0.13521,1.27499 -0.0744,0.14902 -4.82142,4.96123 -10.54902,10.69378 l -10.4138,10.42283 0.18697,0.36651 c 0.84381,1.65399 1.07883,3.62561 0.6389,5.35985 -0.37264,1.46897 -0.9838,2.50901 -2.10937,3.5896 -0.84431,0.81057 -1.68592,1.32464 -2.79388,1.70656 l -0.81186,0.27984 -0.0239,5.98167 -0.0239,5.98165 -0.18675,0.29634 c -0.10272,0.16298 -2.79829,2.90608 -5.99016,6.09577 l -5.80342,5.79943 v 55.9229 55.92289 l 4.06942,4.06367 c 2.23818,2.23502 4.17175,4.23512 4.29683,4.44467 l 0.22741,0.381 0.0423,3.82446 c 0.0419,3.7891 0.044,3.82629 0.22757,4.02167 0.10189,0.10846 0.26298,0.36865 0.35798,0.5782 0.17106,0.37732 0.17275,0.49003 0.17459,11.66283 l 0.002,11.28183 h -3.1762 -3.1762 z m 8.52024,-167.99581 c 0.78424,-0.20874 1.37655,-0.56019 2.00079,-1.18719 0.95218,-0.95638 1.36357,-2.02053 1.29248,-3.34329 -0.0449,-0.83535 -0.2661,-1.52574 -0.69667,-2.17422 -1.58436,-2.38621 -4.82248,-2.72491 -6.82107,-0.71346 -1.48039,1.48992 -1.7553,3.61045 -0.70237,5.41771 0.50862,0.87299 1.63195,1.71274 2.66148,1.98962 0.59137,0.15904 1.68881,0.16428 2.26536,0.0108 z m -29.5823,-32.77098 c 1.94128,-0.41122 3.40521,-1.88815 3.82042,-3.85435 0.6,-2.84133 -1.75588,-5.66968 -4.72259,-5.66968 -1.3146,0 -2.41111,0.46479 -3.37836,1.43204 -0.95994,0.95994 -1.43348,2.06809 -1.43079,3.34825 0.005,2.28428 1.64854,4.30011 3.86579,4.7409 0.76563,0.1522 1.13769,0.15278 1.84553,0.003 z m 55.52321,-2.11288 c 1.94417,-0.41199 3.39942,-2.09757 3.51403,-4.07024 0.0775,-1.3337 -0.36784,-2.4889 -1.31808,-3.41912 -0.8956,-0.87673 -1.86618,-1.27363 -3.11898,-1.27545 -2.32227,-0.003 -4.22921,1.78991 -4.40304,4.14066 -0.14483,1.95841 1.15388,3.8714 3.0445,4.48452 0.89594,0.29054 1.41851,0.32253 2.28157,0.13963 z m -29.87867,-0.21731 c 0.61416,-0.22979 1.14678,-0.71562 1.49865,-1.36701 0.26795,-0.49603 0.28909,-0.59088 0.28909,-1.29717 0,-0.70629 -0.0211,-0.80113 -0.28909,-1.29717 -0.53956,-0.99886 -1.45372,-1.55872 -2.5451,-1.55872 -1.12095,0 -2.05492,0.58773 -2.55806,1.60974 -0.24466,0.49698 -0.27827,0.6475 -0.27827,1.24615 0,0.59866 0.0336,0.74918 0.27827,1.24616 0.3287,0.66767 0.85979,1.17245 1.48758,1.41388 0.59682,0.22952 1.50979,0.23131 2.11693,0.004 z m 6.46192,-7.6302 c 0.58646,-0.21942 1.24823,-0.84543 1.55255,-1.46864 0.17207,-0.35238 0.20693,-0.55106 0.20798,-1.18534 0.002,-0.91263 -0.16285,-1.34261 -0.75524,-1.97592 -1.36512,-1.45943 -3.7376,-1.09726 -4.62539,0.70609 -0.62216,1.26379 -0.27551,2.7295 0.83813,3.54371 0.79784,0.58331 1.85338,0.72753 2.78197,0.3801 z m -47.7122,-7.39067 c 1.62307,-0.48847 2.81843,-1.77634 3.16446,-3.40935 0.15326,-0.72327 0.15278,-1.01986 -0.003,-1.75996 -0.17436,-0.82894 -0.58408,-1.58888 -1.18375,-2.19555 -1.39414,-1.41044 -3.45865,-1.73823 -5.2467,-0.83304 -0.53397,0.27032 -1.54103,1.28056 -1.84378,1.8496 -0.32442,0.60979 -0.48817,1.31846 -0.48817,2.11275 0,1.23767 0.43229,2.23383 1.35668,3.12625 1.16447,1.12419 2.78622,1.54808 4.24416,1.1093 z m 24.8145,-26.19166 c 2.16243,-1.06456 2.16155,-4.0505 -0.002,-5.11537 -0.49696,-0.24466 -0.64748,-0.27827 -1.24614,-0.27827 -0.59865,0 -0.74917,0.0336 -1.24615,0.27827 -1.0223,0.50327 -1.60407,1.43086 -1.60478,2.55866 -0.001,2.13786 2.18237,3.50007 4.0986,2.55671 z m 32.52706,-15.6852 c 1.43154,-0.5356 2.19648,-2.23649 1.65336,-3.67631 -0.5689,-1.50812 -2.39863,-2.29402 -3.81525,-1.6387 -1.32216,0.61163 -2.00478,1.99708 -1.64281,3.33429 0.26816,0.99067 1.02776,1.78247 1.99109,2.0755 0.43142,0.13123 1.33588,0.084 1.81361,-0.0948 z m -77.97281,-0.21875 c 0.61575,-0.21091 1.40387,-1.01366 1.65103,-1.68169 0.38222,-1.03306 0.11716,-2.21864 -0.67258,-3.00837 -0.53397,-0.53398 -1.08422,-0.77674 -1.86537,-0.82296 -0.92116,-0.0545 -1.48562,0.17091 -2.17475,0.86851 -0.45138,0.45693 -0.54937,0.61455 -0.7092,1.14076 -0.22027,0.72517 -0.18327,1.32591 0.12282,1.9945 0.64519,1.40928 2.13747,2.02666 3.64805,1.50925 z m -26.28112,-6.00777 c 1.93472,-0.56828 3.30048,-2.3477 3.29495,-4.29292 -0.005,-1.64097 -1.07829,-3.31007 -2.5735,-4.00091 -1.29057,-0.59628 -2.59274,-0.57862 -3.84701,0.0522 -1.44801,0.7282 -2.34335,2.07446 -2.44592,3.67775 -0.13291,2.07747 1.12915,3.87049 3.19501,4.53916 0.6008,0.19447 1.75766,0.20652 2.37647,0.0248 z m 60.04484,-1.37258 c 0.65957,-0.32471 1.25685,-0.93533 1.57145,-1.60655 0.19871,-0.42395 0.22691,-0.58937 0.2269,-1.33079 -2e-5,-0.75795 -0.0251,-0.89782 -0.2396,-1.33481 -0.64763,-1.3195 -2.09002,-2.08472 -3.46301,-1.83719 -1.40228,0.25281 -2.42806,1.29452 -2.69462,2.73646 -0.17018,0.92058 0.19264,2.0069 0.90983,2.72409 0.6925,0.6925 1.44396,0.98164 2.4525,0.94365 0.57241,-0.0216 0.78375,-0.072 1.23655,-0.29486 z m 69.17109,-9.29454 c 0.87252,-0.30784 1.55798,-1.0893 1.80483,-2.05759 0.23302,-0.91406 -0.0479,-1.89552 -0.75001,-2.62018 -0.54403,-0.5615 -1.07265,-0.79804 -1.87955,-0.84103 -0.93359,-0.0497 -1.5166,0.17106 -2.16577,0.82022 -0.64916,0.64917 -0.86996,1.23218 -0.82022,2.16578 0.0431,0.8085 0.28132,1.33964 0.84103,1.87498 0.83327,0.79697 1.90343,1.03402 2.96969,0.65782 z m 20.55361,-2.97012 c 1.89765,-0.52177 3.23962,-2.2871 3.23962,-4.26168 0,-2.42257 -2.00545,-4.43057 -4.42495,-4.43057 -2.66865,0 -4.76536,2.40248 -4.40239,5.0444 0.11783,0.85768 0.63048,1.87967 1.25693,2.5058 1.15133,1.1507 2.75819,1.57444 4.33079,1.14205 z m -38.34147,-0.88975 c 0.60766,-0.28209 1.12814,-0.80176 1.41427,-1.41207 0.18739,-0.3997 0.2242,-0.59633 0.2242,-1.19786 0,-0.91584 -0.25205,-1.48111 -0.94131,-2.11105 -1.14923,-1.05034 -2.89717,-0.97378 -3.97071,0.17392 -0.93422,0.99875 -1.04913,2.39631 -0.29045,3.53244 0.36152,0.54139 0.76414,0.86235 1.403,1.11847 0.59447,0.23832 1.5197,0.19385 2.161,-0.10385 z m -57.98461,-5.1941 c 1.13113,-0.55526 1.80512,-1.83314 1.58461,-3.00437 -0.19273,-1.02367 -0.75401,-1.75349 -1.68371,-2.18929 -0.69212,-0.32443 -1.62619,-0.3186 -2.33849,0.0146 -1.79232,0.83838 -2.23528,3.21619 -0.85481,4.58863 0.67722,0.67328 1.25342,0.89655 2.20948,0.85615 0.44412,-0.0188 0.71554,-0.0854 1.08292,-0.26571 z m 69.48674,-1.02777 c 0.61238,-0.27149 1.20275,-0.86172 1.48011,-1.47979 0.4724,-1.05264 0.22311,-2.3211 -0.61853,-3.14726 -0.87611,-0.86001 -2.10417,-1.08686 -3.17386,-0.58629 -1.4414,0.67452 -2.09476,2.32746 -1.46519,3.70684 0.68774,1.50688 2.31383,2.15538 3.77747,1.5065 z m -102.39188,-5.63124 c 0.5892,-0.21696 1.12591,-0.71036 1.47431,-1.35532 0.26796,-0.49604 0.28909,-0.59088 0.28909,-1.29717 0,-0.70629 -0.0211,-0.80113 -0.28909,-1.29717 -1.15172,-2.13209 -4.12428,-2.06746 -5.14367,0.11184 -0.33319,0.7123 -0.33901,1.64636 -0.0146,2.33849 0.29798,0.6357 0.75343,1.12273 1.29997,1.39013 0.78694,0.38502 1.54113,0.41956 2.38397,0.1092 z m 58.02591,-7.13858 c 1.86655,-0.4967 3.21665,-2.11046 3.35738,-4.01303 0.19315,-2.61137 -2.10746,-4.91681 -4.71141,-4.72131 -2.36033,0.17721 -4.14866,2.08712 -4.14866,4.4307 0,1.96745 1.33648,3.71873 3.25966,4.27136 0.63083,0.18127 1.62916,0.19564 2.24303,0.0323 z m -36.59296,-6.94283 c 1.84256,-0.82689 2.24528,-3.27858 0.76586,-4.66241 -0.61928,-0.57926 -1.06591,-0.7537 -1.93485,-0.75569 -0.64582,-0.001 -0.77995,0.0274 -1.28761,0.27708 -0.61694,0.30343 -1.03792,0.72749 -1.35086,1.36075 -0.16069,0.32517 -0.19417,0.53054 -0.19506,1.19686 -9.2e-4,0.68685 0.0285,0.85998 0.2014,1.18533 0.29686,0.55858 0.56404,0.88242 0.94696,1.14779 0.86432,0.59897 1.87894,0.68795 2.85416,0.25029 z m 61.78755,-2.67391 c 0.27632,-0.0498 0.82137,-0.24361 1.21123,-0.43076 1.27953,-0.61421 2.18767,-1.74182 2.5529,-3.16987 0.28772,-1.12495 0.16188,-2.20043 -0.38827,-3.318412 -0.74826,-1.520552 -2.55863,-2.63952 -4.27048,-2.63952 -1.1615,0 -2.48387,0.549331 -3.33048,1.383527 -1.53942,1.516845 -1.90754,3.609775 -0.97537,5.545385 0.9371,1.94585 3.05404,3.01629 5.20047,2.62965 z m -42.10132,-2.15246 c 1.41463,-0.36847 2.57306,-1.47211 2.97179,-2.83124 0.57168,-1.948647 -0.54678,-4.18341 -2.4623,-4.919851 -0.59333,-0.228109 -1.67633,-0.3105 -2.3061,-0.175439 -1.45804,0.312695 -2.70769,1.531504 -3.09505,3.018672 -0.74966,2.878158 2.01908,5.656068 4.89166,4.907858 z m 39.4287,311.67236 c 0,-12.65949 -0.0523,-11.69465 0.67269,-12.41079 0.21657,-0.21392 0.49671,-0.47179 0.62254,-0.57305 l 0.22877,-0.18409 v -2.82033 -2.82031 l -6.68555,-6.68992 c -4.68781,-4.69088 -6.72443,-6.78399 -6.81566,-7.0047 -0.11655,-0.28195 -0.13012,-5.5909 -0.13012,-50.90855 0,-45.30289 0.0136,-50.62669 0.13003,-50.90855 0.0921,-0.22301 3.05409,-3.23997 10.16,-10.34862 l 10.02997,-10.03384 v -4.04471 c 0,-3.44512 0.0193,-4.09138 0.1301,-4.3595 0.0925,-0.2238 3.73876,-3.92445 12.61555,-12.80372 l 12.48545,-12.48894 -0.0214,-16.33977 -0.0214,-16.33978 -0.65526,-0.0998 c -1.74653,-0.26613 -3.09985,-0.93832 -4.30736,-2.13946 -2.91507,-2.89965 -2.92458,-7.65499 -0.0212,-10.56443 1.23285,-1.23541 2.74893,-1.96922 4.5181,-2.18685 0.25612,-0.0315 0.51329,-0.0958 0.5715,-0.14283 0.083,-0.0671 0.10583,-1.50747 0.10583,-6.68476 0,-4.64478 0.0277,-6.65397 0.0934,-6.78413 0.0514,-0.10171 3.17987,-3.27539 6.95215,-7.05261 l 6.85869,-6.86767 -0.0941,-0.439 c -0.2009,-0.93676 -0.0779,-1.85468 0.37146,-2.77088 1.2875,-2.6254 4.79005,-3.18441 6.85883,-1.09469 0.84811,0.85668 1.2269,1.78648 1.2269,3.01158 0,1.22268 -0.37363,2.13929 -1.22767,3.01179 -1.40322,1.43357 -3.62441,1.67628 -5.334,0.58287 -0.23283,-0.14891 -0.53524,-0.38998 -0.67201,-0.5357 -0.13677,-0.14573 -0.32761,-0.26496 -0.42408,-0.26496 -0.11948,0 -2.24698,2.07223 -6.67282,6.49946 l -6.49742,6.49946 v 6.53594 6.53595 l 0.35983,0.0927 c 0.92744,0.2389 1.62429,0.53271 2.3361,0.98492 2.90754,1.84715 4.18165,5.37328 3.13117,8.66558 -0.57369,1.79799 -1.92293,3.40402 -3.61495,4.30292 l -0.68877,0.36593 0.0215,11.18402 c 0.0175,9.11011 0.042,11.19086 0.13199,11.22086 0.0608,0.0203 0.51799,-0.36571 1.016,-0.85773 l 0.90549,-0.89456 0.0423,-8.93477 0.0423,-8.93478 2.11666,-2.11791 2.11667,-2.11792 v -5.374 -5.374 l -2.81517,-2.81979 -2.81516,-2.81979 v -1.71548 -1.71548 l 1.397,-1.40057 c 0.76835,-0.77032 1.397,-1.46881 1.397,-1.5522 0,-0.0834 -0.0961,-0.36141 -0.21344,-0.61783 -0.33617,-0.73429 -0.43564,-1.65197 -0.26771,-2.46978 0.19781,-0.9633 0.49716,-1.51689 1.19433,-2.20865 0.69255,-0.6872 1.29276,-1.01029 2.23294,-1.20203 2.31122,-0.47132 4.65187,1.20639 5.01656,3.59571 0.24474,1.60347 -0.5443,3.34373 -1.90902,4.21041 -1.32562,0.84184 -2.80949,0.91618 -4.24622,0.21271 -0.37963,-0.18587 -0.72303,-0.33795 -0.76313,-0.33795 -0.0401,0 -0.60581,0.5338 -1.25712,1.18623 l -1.18419,1.18623 -0.0283,1.0674 -0.0283,1.0674 2.84344,2.8516 2.84346,2.8516 v 6.002 6.002 l -2.159,2.16953 -2.159,2.16954 v 7.5443 c 0,4.14937 0.0231,7.60458 0.0514,7.67824 0.0283,0.0737 0.11416,0.13392 0.19088,0.13392 0.1885,0 7.17717,-7.00676 7.28914,-7.30801 0.0604,-0.16236 0.0886,-4.6825 0.0886,-14.18012 v -13.94179 l 5.41867,-5.42109 c 2.98026,-2.98159 5.41866,-5.46614 5.41866,-5.52122 0,-0.0551 -0.11222,-0.43567 -0.24938,-0.84578 -1.33678,-3.99694 0.96627,-8.19527 5.03305,-9.17496 0.82168,-0.19795 2.35622,-0.21832 3.18664,-0.0423 3.35923,0.71201 5.767,3.89376 5.54591,7.32861 -0.0689,1.06983 -0.24037,1.74294 -0.67885,2.66415 -0.86519,1.81774 -2.51696,3.21277 -4.47103,3.77608 -0.95525,0.27537 -2.43397,0.31269 -3.45182,0.0871 -0.9801,-0.21721 -2.13165,-0.76416 -2.87036,-1.36333 -0.3942,-0.31974 -0.58673,-0.42409 -0.71967,-0.39003 -0.0998,0.0256 -2.38188,2.2489 -5.07125,4.94072 l -4.88977,4.89423 0.0214,13.24836 0.0214,13.24836 2.53765,0.0225 2.53766,0.0224 3.80269,-3.80268 c 3.30216,-3.30216 3.79631,-3.8289 3.75419,-4.00179 -0.0267,-0.10951 -0.13114,-0.4658 -0.23214,-0.79177 -0.24139,-0.77902 -0.26618,-2.28018 -0.051,-3.09033 0.42267,-1.59163 1.58364,-3.04084 3.01856,-3.76796 1.21872,-0.61757 2.77457,-0.80005 4.06511,-0.47675 1.78429,0.44698 3.10485,1.4982 3.89641,3.10171 0.45835,0.9285 0.61742,1.60469 0.61742,2.62466 0,1.01958 -0.15896,1.69568 -0.61707,2.62467 -1.6083,3.26138 -5.79985,4.27842 -8.76652,2.12712 -0.23268,-0.16873 -0.46034,-0.30679 -0.5059,-0.30679 -0.0456,0 -1.85608,1.77177 -4.02339,3.93726 -3.03127,3.02874 -4.00848,3.95673 -4.23487,4.02166 -0.1715,0.0492 -1.58396,0.0844 -3.38458,0.0844 h -3.09026 l -6.32947,6.32947 -6.32946,6.32946 v 1.66248 c 0,1.43785 0.0181,1.66941 0.13392,1.71386 0.0737,0.0283 1.28197,0.0514 2.68514,0.0514 h 2.55121 l 3.85839,-3.85233 3.8584,-3.85233 h 4.5957 c 2.82891,0 4.65511,-0.0318 4.75022,-0.0827 0.1363,-0.0729 0.14939,-0.16528 0.11093,-0.78316 -0.0828,-1.33095 0.30409,-2.35433 1.2416,-3.28394 0.88799,-0.88051 1.80971,-1.26887 3.01149,-1.26887 1.20021,0 2.15099,0.39781 3.01442,1.26125 0.86344,0.86343 1.26124,1.81421 1.26124,3.01442 0,1.20021 -0.3978,2.15099 -1.26124,3.01442 -0.86389,0.86389 -1.81902,1.26331 -3.01105,1.25918 -1.17604,-0.004 -2.10643,-0.38589 -3.00424,-1.23282 l -0.57572,-0.54312 h -4.72801 -4.72801 l -3.85839,3.85234 -3.8584,3.85233 h -2.80662 c -1.6187,0 -2.89855,0.0349 -3.02381,0.0826 -0.21712,0.0826 -0.21717,0.0828 -0.21717,1.14003 0,0.95881 0.0153,1.06562 0.16377,1.14509 0.10374,0.0555 1.2266,0.0876 3.06366,0.0876 h 2.89989 l 2.67934,-2.667 c 1.47363,-1.46685 2.6953,-2.67374 2.71483,-2.68199 0.0195,-0.008 0.81109,-0.0368 1.75904,-0.0635 l 1.72354,-0.0485 0.19462,-0.51815 c 0.50674,-1.34918 1.58503,-2.35894 2.87894,-2.69596 2.2078,-0.57506 4.48245,0.61172 5.21086,2.71872 0.69878,2.02128 -0.22855,4.29311 -2.13385,5.22768 -1.26285,0.61945 -2.51517,0.63281 -3.77243,0.0402 -1.02634,-0.48373 -1.82609,-1.41988 -2.22962,-2.60994 l -0.21655,-0.6386 -1.3867,-0.0233 -1.38671,-0.0233 -2.67779,2.66916 -2.6778,2.66917 h -3.3885 -3.3885 l -4.73519,4.74447 c -2.60436,2.60945 -4.73519,4.80972 -4.73519,4.8895 0,0.13068 0.15028,0.14732 1.51891,0.16821 l 1.51892,0.0232 3.81815,-3.81202 3.81815,-3.81202 h 3.56373 c 2.74956,0 3.58301,-0.0242 3.64809,-0.10583 0.0464,-0.0582 0.11077,-0.28826 0.14305,-0.51123 0.14547,-1.00493 0.5988,-1.87318 1.34791,-2.58166 0.80381,-0.76021 1.75043,-1.11928 2.95079,-1.11928 1.4245,0 2.59975,0.598 3.41459,1.73744 0.55465,0.77559 0.7316,1.2951 0.78005,2.29021 0.0671,1.37835 -0.28719,2.30993 -1.24006,3.26067 -0.69375,0.6922 -1.41906,1.05872 -2.36917,1.19721 -1.78491,0.26014 -3.56443,-0.63022 -4.39724,-2.20013 l -0.28013,-0.52806 h -3.48629 -3.48628 l -3.77111,3.76766 -3.77111,3.76767 h -2.70657 -2.70658 l -7.0914,7.0914 -7.0914,7.0914 v 4.04498 c 0,3.28171 -0.0224,4.0964 -0.11857,4.31744 -0.067,0.15384 -1.79918,1.94923 -3.97934,4.12443 -2.12341,2.11859 -3.86076,3.91709 -3.86076,3.99667 0,0.0965 0.0917,0.16138 0.27517,0.19483 0.15134,0.0276 2.57109,0.0389 5.37721,0.025 l 5.10205,-0.0252 3.63979,-3.64271 3.63978,-3.64271 v -2.00173 c 0,-1.51739 -0.0254,-2.0102 -0.10496,-2.03673 -0.0577,-0.0192 -0.25777,0.0109 -0.4445,0.067 -2.33229,0.70066 -4.7987,-0.67296 -5.42353,-3.02056 -0.25366,-0.95304 -0.11892,-2.15951 0.34316,-3.07282 1.07371,-2.12214 3.84637,-2.92388 5.95755,-1.72269 0.98423,0.56001 1.81257,1.70791 2.04724,2.83704 0.22293,1.07273 -0.0323,2.34105 -0.65648,3.26193 l -0.30047,0.4433 0.0161,2.80887 c 0.0135,2.34833 -0.005,2.84809 -0.11016,3.048 -0.0694,0.13152 -1.8929,2.00126 -4.05214,4.15497 l -3.9259,3.91583 h -6.55121 -6.55122 l -0.58701,0.58701 c -0.32286,0.32285 -0.57029,0.63718 -0.54985,0.6985 0.0303,0.0909 1.42892,0.11549 7.56476,0.13311 l 7.52761,0.0216 6.29489,-6.28697 c 3.4622,-3.45782 6.52011,-6.54522 6.79538,-6.86087 l 0.50048,-0.57391 -0.20242,-0.39976 c -0.46982,-0.92779 -0.61172,-2.16591 -0.35762,-3.12023 0.48902,-1.83653 2.21191,-3.16385 4.10677,-3.16385 1.25422,0 2.1604,0.37521 3.06438,1.26886 1.69243,1.6731 1.6945,4.29672 0.005,6.00923 -1.29766,1.31512 -3.20791,1.64819 -4.87893,0.85069 -0.29362,-0.14013 -0.59544,-0.25478 -0.67071,-0.25478 -0.0753,0 -3.25641,3.13372 -7.0692,6.96383 l -6.93234,6.96383 -8.77334,0.0423 -8.77335,0.0423 -3.85152,3.85426 -3.85152,3.85427 v 49.69614 49.69615 l 6.68555,6.68992 c 4.68782,4.69088 6.72443,6.78399 6.81567,7.0047 0.10923,0.26427 0.13011,0.83103 0.13011,3.53224 v 3.21744 l 0.44709,0.286 c 0.5697,0.36444 1.1036,0.9698 1.23134,1.39618 0.0741,0.24748 0.0996,3.19989 0.0996,11.56202 v 11.22967 h -3.175 -3.175 V 416.40591 Z M 297.29908,260.5191 c 0.59199,-0.32322 1.14409,-0.94686 1.37117,-1.54886 0.25261,-0.66968 0.20515,-1.6533 -0.10908,-2.26074 -0.43661,-0.844 -1.36003,-1.48595 -2.30758,-1.60418 -0.56276,-0.0702 -1.31653,0.13288 -1.88332,0.50746 -0.8781,0.58034 -1.41638,1.81984 -1.21841,2.80564 0.20282,1.0099 0.74526,1.71941 1.64751,2.15496 0.48315,0.23323 0.5808,0.25015 1.28489,0.22268 0.64921,-0.0253 0.82903,-0.0663 1.21482,-0.27696 z m -13.20817,-2.07383 c 1.06276,-0.56644 1.57445,-1.46294 1.52229,-2.6671 -0.0488,-1.12576 -0.5754,-1.93873 -1.57454,-2.43061 -1.04983,-0.51682 -2.28528,-0.34592 -3.18034,0.43995 -0.4168,0.36596 -0.69591,0.85569 -0.86595,1.51943 -0.1168,0.4559 -0.12267,0.62105 -0.0374,1.05416 0.29931,1.52138 1.46475,2.46311 2.96582,2.39653 0.52825,-0.0234 0.72825,-0.0768 1.17017,-0.31236 z m 29.60055,-24.39008 c 0.65896,-0.24655 1.31242,-0.86729 1.61663,-1.53567 0.20073,-0.44103 0.24199,-0.64439 0.23984,-1.18192 -0.002,-0.55568 -0.0415,-0.72822 -0.27246,-1.19739 -0.6355,-1.2909 -2.06463,-1.93028 -3.38192,-1.51306 -1.24765,0.39517 -2.04442,1.46171 -2.04895,2.74268 -0.004,1.26436 0.79153,2.36945 1.97277,2.7388 0.54543,0.17054 1.33568,0.14801 1.87409,-0.0534 z m 6.61096,-8.12346 c 0.53501,-0.25867 1.12884,-0.85294 1.39453,-1.39556 0.17277,-0.35286 0.20748,-0.55017 0.20853,-1.18533 10e-4,-0.88441 -0.15447,-1.31745 -0.68638,-1.90621 -1.41121,-1.56204 -3.85262,-1.19886 -4.73436,0.70428 -0.73189,1.57971 0.10569,3.39946 1.82452,3.96399 0.42102,0.13828 1.54346,0.0362 1.99316,-0.18117 z m 7.48951,-8.09783 c 1.46128,-0.64784 2.12816,-2.36032 1.46503,-3.76213 -0.89506,-1.89208 -3.22322,-2.30431 -4.65691,-0.82456 -0.83215,0.8589 -1.04975,2.08993 -0.55445,3.13675 0.69909,1.47753 2.29278,2.09434 3.74633,1.44994 z m 4.61433,-18.86795 c 0.58873,-0.1925 1.28296,-0.68099 1.70209,-1.19768 0.96179,-1.18565 1.048,-2.94604 0.20784,-4.24371 -0.56475,-0.87228 -1.4328,-1.44281 -2.49224,-1.63801 -1.51643,-0.27942 -3.11965,0.5658 -3.84074,2.02485 -0.31016,0.62755 -0.31828,0.66799 -0.31828,1.5841 0,0.91611 0.008,0.95656 0.31828,1.58411 0.82168,1.66256 2.68156,2.45577 4.42305,1.88634 z m -34.30222,-6.86424 c 2.05396,-0.52957 3.4556,-2.43165 3.33266,-4.52254 -0.10741,-1.82661 -1.29491,-3.40329 -3.00949,-3.99577 -0.85013,-0.29377 -2.03382,-0.27793 -2.89328,0.0387 -3.0739,1.13249 -3.93791,5.00507 -1.63131,7.31167 1.09778,1.09778 2.72213,1.54933 4.20142,1.16792 z m 10.23972,-21.2321 c 0.55017,-0.26917 1.18705,-0.92247 1.4383,-1.47538 0.28054,-0.61736 0.25766,-1.6801 -0.0498,-2.31509 -0.27178,-0.56124 -0.91795,-1.19652 -1.47989,-1.45496 -0.622,-0.28607 -1.68022,-0.26318 -2.31825,0.0501 -0.61447,0.30176 -1.13939,0.82594 -1.41749,1.41552 -0.18268,0.38727 -0.21965,0.58682 -0.21965,1.18533 0,0.60176 0.0368,0.79812 0.22448,1.19849 0.23647,0.5044 0.77728,1.09404 1.21074,1.32006 0.8224,0.42881 1.83039,0.45811 2.61161,0.0759 z m 20.84517,-1.95981 c 1.43824,-0.30196 2.76532,-1.32679 3.38414,-2.61339 0.93869,-1.95161 0.58013,-4.02678 -0.96149,-5.56465 -0.71094,-0.7092 -1.36818,-1.08041 -2.30312,-1.30079 -2.9672,-0.69941 -5.9192,1.62801 -5.9192,4.66682 0,0.84137 0.12795,1.3917 0.50941,2.19105 0.94131,1.97249 3.15506,3.06925 5.29026,2.62096 z m -13.50092,-14.65582 c 1.245,-0.36972 2.0555,-1.44712 2.06212,-2.74115 0.003,-0.51353 -0.0398,-0.72959 -0.21923,-1.11715 -0.29635,-0.64006 -0.80027,-1.1701 -1.39838,-1.47089 -0.42539,-0.21392 -0.58565,-0.24677 -1.21118,-0.24825 -0.64589,-0.002 -0.7799,0.0273 -1.28761,0.27702 -0.95878,0.47157 -1.49842,1.28199 -1.57047,2.35852 -0.091,1.35966 0.65207,2.47046 1.95338,2.9201 0.55014,0.19009 1.08135,0.19702 1.67137,0.0218 z"
         id="path43"
         inkscape:connector-curvature="0" />
    </g>
  </g>
</svg>
