<svg version="1.0" xmlns="http://www.w3.org/2000/svg" xmlns:xlink="http://www.w3.org/1999/xlink" viewBox="0 0 100 100" enable-background="new 0 0 100 100" xml:space="preserve">
	
<svg xmlns="http://www.w3.org/2000/svg" xmlns:xlink="http://www.w3.org/1999/xlink" version="1.1" width="100" height="100" viewBox="0 0 2000 2000" x="0" y="0" shape-rendering="crispEdges"><defs></defs><rect x="0" y="0" width="2000" height="2000" fill="#ffffff"></rect><rect x="563" y="149" width="46" height="46" fill="#000000"></rect><rect x="701" y="149" width="46" height="46" fill="#000000"></rect><rect x="1069" y="149" width="46" height="46" fill="#000000"></rect><rect x="1161" y="149" width="46" height="46" fill="#000000"></rect><rect x="1207" y="149" width="46" height="46" fill="#000000"></rect><rect x="1391" y="149" width="46" height="46" fill="#000000"></rect><rect x="1437" y="149" width="46" height="46" fill="#000000"></rect><rect x="517" y="195" width="46" height="46" fill="#000000"></rect><rect x="655" y="195" width="46" height="46" fill="#000000"></rect><rect x="701" y="195" width="46" height="46" fill="#000000"></rect><rect x="747" y="195" width="46" height="46" fill="#000000"></rect><rect x="793" y="195" width="46" height="46" fill="#000000"></rect><rect x="839" y="195" width="46" height="46" fill="#000000"></rect><rect x="885" y="195" width="46" height="46" fill="#000000"></rect><rect x="931" y="195" width="46" height="46" fill="#000000"></rect><rect x="977" y="195" width="46" height="46" fill="#000000"></rect><rect x="1161" y="195" width="46" height="46" fill="#000000"></rect><rect x="1207" y="195" width="46" height="46" fill="#000000"></rect><rect x="1299" y="195" width="46" height="46" fill="#000000"></rect><rect x="1345" y="195" width="46" height="46" fill="#000000"></rect><rect x="1391" y="195" width="46" height="46" fill="#000000"></rect><rect x="517" y="241" width="46" height="46" fill="#000000"></rect><rect x="563" y="241" width="46" height="46" fill="#000000"></rect><rect x="609" y="241" width="46" height="46" fill="#000000"></rect><rect x="655" y="241" width="46" height="46" fill="#000000"></rect><rect x="701" y="241" width="46" height="46" fill="#000000"></rect><rect x="839" y="241" width="46" height="46" fill="#000000"></rect><rect x="931" y="241" width="46" height="46" fill="#000000"></rect><rect x="1069" y="241" width="46" height="46" fill="#000000"></rect><rect x="1299" y="241" width="46" height="46" fill="#000000"></rect><rect x="1391" y="241" width="46" height="46" fill="#000000"></rect><rect x="563" y="287" width="46" height="46" fill="#000000"></rect><rect x="609" y="287" width="46" height="46" fill="#000000"></rect><rect x="655" y="287" width="46" height="46" fill="#000000"></rect><rect x="747" y="287" width="46" height="46" fill="#000000"></rect><rect x="793" y="287" width="46" height="46" fill="#000000"></rect><rect x="839" y="287" width="46" height="46" fill="#000000"></rect><rect x="885" y="287" width="46" height="46" fill="#000000"></rect><rect x="977" y="287" width="46" height="46" fill="#000000"></rect><rect x="1023" y="287" width="46" height="46" fill="#000000"></rect><rect x="1207" y="287" width="46" height="46" fill="#000000"></rect><rect x="1253" y="287" width="46" height="46" fill="#000000"></rect><rect x="1299" y="287" width="46" height="46" fill="#000000"></rect><rect x="1391" y="287" width="46" height="46" fill="#000000"></rect><rect x="517" y="333" width="46" height="46" fill="#000000"></rect><rect x="747" y="333" width="46" height="46" fill="#000000"></rect><rect x="793" y="333" width="46" height="46" fill="#000000"></rect><rect x="839" y="333" width="46" height="46" fill="#000000"></rect><rect x="885" y="333" width="46" height="46" fill="#000000"></rect><rect x="977" y="333" width="46" height="46" fill="#000000"></rect><rect x="1161" y="333" width="46" height="46" fill="#000000"></rect><rect x="1207" y="333" width="46" height="46" fill="#000000"></rect><rect x="1253" y="333" width="46" height="46" fill="#000000"></rect><rect x="1299" y="333" width="46" height="46" fill="#000000"></rect><rect x="1345" y="333" width="46" height="46" fill="#000000"></rect><rect x="1437" y="333" width="46" height="46" fill="#000000"></rect><rect x="517" y="379" width="46" height="46" fill="#000000"></rect><rect x="563" y="379" width="46" height="46" fill="#000000"></rect><rect x="655" y="379" width="46" height="46" fill="#000000"></rect><rect x="977" y="379" width="46" height="46" fill="#000000"></rect><rect x="1023" y="379" width="46" height="46" fill="#000000"></rect><rect x="1161" y="379" width="46" height="46" fill="#000000"></rect><rect x="1391" y="379" width="46" height="46" fill="#000000"></rect><rect x="517" y="425" width="46" height="46" fill="#000000"></rect><rect x="609" y="425" width="46" height="46" fill="#000000"></rect><rect x="701" y="425" width="46" height="46" fill="#000000"></rect><rect x="793" y="425" width="46" height="46" fill="#000000"></rect><rect x="885" y="425" width="46" height="46" fill="#000000"></rect><rect x="977" y="425" width="46" height="46" fill="#000000"></rect><rect x="1069" y="425" width="46" height="46" fill="#000000"></rect><rect x="1161" y="425" width="46" height="46" fill="#000000"></rect><rect x="1253" y="425" width="46" height="46" fill="#000000"></rect><rect x="1345" y="425" width="46" height="46" fill="#000000"></rect><rect x="1437" y="425" width="46" height="46" fill="#000000"></rect><rect x="517" y="471" width="46" height="46" fill="#000000"></rect><rect x="563" y="471" width="46" height="46" fill="#000000"></rect><rect x="701" y="471" width="46" height="46" fill="#000000"></rect><rect x="747" y="471" width="46" height="46" fill="#000000"></rect><rect x="885" y="471" width="46" height="46" fill="#000000"></rect><rect x="1023" y="471" width="46" height="46" fill="#000000"></rect><rect x="1115" y="471" width="46" height="46" fill="#000000"></rect><rect x="1253" y="471" width="46" height="46" fill="#000000"></rect><rect x="149" y="517" width="46" height="46" fill="#000000"></rect><rect x="195" y="517" width="46" height="46" fill="#000000"></rect><rect x="287" y="517" width="46" height="46" fill="#000000"></rect><rect x="425" y="517" width="46" height="46" fill="#000000"></rect><rect x="471" y="517" width="46" height="46" fill="#000000"></rect><rect x="609" y="517" width="46" height="46" fill="#000000"></rect><rect x="885" y="517" width="46" height="46" fill="#000000"></rect><rect x="931" y="517" width="46" height="46" fill="#000000"></rect><rect x="1069" y="517" width="46" height="46" fill="#000000"></rect><rect x="1207" y="517" width="46" height="46" fill="#000000"></rect><rect x="1253" y="517" width="46" height="46" fill="#000000"></rect><rect x="1345" y="517" width="46" height="46" fill="#000000"></rect><rect x="1529" y="517" width="46" height="46" fill="#000000"></rect><rect x="1575" y="517" width="46" height="46" fill="#000000"></rect><rect x="1621" y="517" width="46" height="46" fill="#000000"></rect><rect x="1713" y="517" width="46" height="46" fill="#000000"></rect><rect x="1759" y="517" width="46" height="46" fill="#000000"></rect><rect x="149" y="563" width="46" height="46" fill="#000000"></rect><rect x="241" y="563" width="46" height="46" fill="#000000"></rect><rect x="333" y="563" width="46" height="46" fill="#000000"></rect><rect x="379" y="563" width="46" height="46" fill="#000000"></rect><rect x="471" y="563" width="46" height="46" fill="#000000"></rect><rect x="609" y="563" width="46" height="46" fill="#000000"></rect><rect x="655" y="563" width="46" height="46" fill="#000000"></rect><rect x="747" y="563" width="46" height="46" fill="#000000"></rect><rect x="793" y="563" width="46" height="46" fill="#000000"></rect><rect x="839" y="563" width="46" height="46" fill="#000000"></rect><rect x="931" y="563" width="46" height="46" fill="#000000"></rect><rect x="1115" y="563" width="46" height="46" fill="#000000"></rect><rect x="1161" y="563" width="46" height="46" fill="#000000"></rect><rect x="1207" y="563" width="46" height="46" fill="#000000"></rect><rect x="1299" y="563" width="46" height="46" fill="#000000"></rect><rect x="1345" y="563" width="46" height="46" fill="#000000"></rect><rect x="1391" y="563" width="46" height="46" fill="#000000"></rect><rect x="1529" y="563" width="46" height="46" fill="#000000"></rect><rect x="1759" y="563" width="46" height="46" fill="#000000"></rect><rect x="149" y="609" width="46" height="46" fill="#000000"></rect><rect x="379" y="609" width="46" height="46" fill="#000000"></rect><rect x="425" y="609" width="46" height="46" fill="#000000"></rect><rect x="517" y="609" width="46" height="46" fill="#000000"></rect><rect x="563" y="609" width="46" height="46" fill="#000000"></rect><rect x="885" y="609" width="46" height="46" fill="#000000"></rect><rect x="931" y="609" width="46" height="46" fill="#000000"></rect><rect x="1069" y="609" width="46" height="46" fill="#000000"></rect><rect x="1115" y="609" width="46" height="46" fill="#000000"></rect><rect x="1161" y="609" width="46" height="46" fill="#000000"></rect><rect x="1207" y="609" width="46" height="46" fill="#000000"></rect><rect x="1253" y="609" width="46" height="46" fill="#000000"></rect><rect x="1483" y="609" width="46" height="46" fill="#000000"></rect><rect x="1529" y="609" width="46" height="46" fill="#000000"></rect><rect x="1575" y="609" width="46" height="46" fill="#000000"></rect><rect x="1667" y="609" width="46" height="46" fill="#000000"></rect><rect x="1713" y="609" width="46" height="46" fill="#000000"></rect><rect x="1805" y="609" width="46" height="46" fill="#000000"></rect><rect x="333" y="655" width="46" height="46" fill="#000000"></rect><rect x="471" y="655" width="46" height="46" fill="#000000"></rect><rect x="609" y="655" width="46" height="46" fill="#000000"></rect><rect x="747" y="655" width="46" height="46" fill="#000000"></rect><rect x="977" y="655" width="46" height="46" fill="#000000"></rect><rect x="1023" y="655" width="46" height="46" fill="#000000"></rect><rect x="1253" y="655" width="46" height="46" fill="#000000"></rect><rect x="1299" y="655" width="46" height="46" fill="#000000"></rect><rect x="1345" y="655" width="46" height="46" fill="#000000"></rect><rect x="1437" y="655" width="46" height="46" fill="#000000"></rect><rect x="1529" y="655" width="46" height="46" fill="#000000"></rect><rect x="1621" y="655" width="46" height="46" fill="#000000"></rect><rect x="1667" y="655" width="46" height="46" fill="#000000"></rect><rect x="1759" y="655" width="46" height="46" fill="#000000"></rect><rect x="1805" y="655" width="46" height="46" fill="#000000"></rect><rect x="149" y="701" width="46" height="46" fill="#000000"></rect><rect x="195" y="701" width="46" height="46" fill="#000000"></rect><rect x="425" y="701" width="46" height="46" fill="#000000"></rect><rect x="471" y="701" width="46" height="46" fill="#000000"></rect><rect x="563" y="701" width="46" height="46" fill="#000000"></rect><rect x="701" y="701" width="46" height="46" fill="#000000"></rect><rect x="885" y="701" width="46" height="46" fill="#000000"></rect><rect x="931" y="701" width="46" height="46" fill="#000000"></rect><rect x="1253" y="701" width="46" height="46" fill="#000000"></rect><rect x="1483" y="701" width="46" height="46" fill="#000000"></rect><rect x="1575" y="701" width="46" height="46" fill="#000000"></rect><rect x="1667" y="701" width="46" height="46" fill="#000000"></rect><rect x="1759" y="701" width="46" height="46" fill="#000000"></rect><rect x="1805" y="701" width="46" height="46" fill="#000000"></rect><rect x="149" y="747" width="46" height="46" fill="#000000"></rect><rect x="195" y="747" width="46" height="46" fill="#000000"></rect><rect x="333" y="747" width="46" height="46" fill="#000000"></rect><rect x="379" y="747" width="46" height="46" fill="#000000"></rect><rect x="471" y="747" width="46" height="46" fill="#000000"></rect><rect x="655" y="747" width="46" height="46" fill="#000000"></rect><rect x="701" y="747" width="46" height="46" fill="#000000"></rect><rect x="885" y="747" width="46" height="46" fill="#000000"></rect><rect x="931" y="747" width="46" height="46" fill="#000000"></rect><rect x="1115" y="747" width="46" height="46" fill="#000000"></rect><rect x="1161" y="747" width="46" height="46" fill="#000000"></rect><rect x="1207" y="747" width="46" height="46" fill="#000000"></rect><rect x="1253" y="747" width="46" height="46" fill="#000000"></rect><rect x="1345" y="747" width="46" height="46" fill="#000000"></rect><rect x="1391" y="747" width="46" height="46" fill="#000000"></rect><rect x="1483" y="747" width="46" height="46" fill="#000000"></rect><rect x="1575" y="747" width="46" height="46" fill="#000000"></rect><rect x="1621" y="747" width="46" height="46" fill="#000000"></rect><rect x="1667" y="747" width="46" height="46" fill="#000000"></rect><rect x="1713" y="747" width="46" height="46" fill="#000000"></rect><rect x="1759" y="747" width="46" height="46" fill="#000000"></rect><rect x="149" y="793" width="46" height="46" fill="#000000"></rect><rect x="195" y="793" width="46" height="46" fill="#000000"></rect><rect x="241" y="793" width="46" height="46" fill="#000000"></rect><rect x="287" y="793" width="46" height="46" fill="#000000"></rect><rect x="379" y="793" width="46" height="46" fill="#000000"></rect><rect x="425" y="793" width="46" height="46" fill="#000000"></rect><rect x="471" y="793" width="46" height="46" fill="#000000"></rect><rect x="701" y="793" width="46" height="46" fill="#000000"></rect><rect x="747" y="793" width="46" height="46" fill="#000000"></rect><rect x="839" y="793" width="46" height="46" fill="#000000"></rect><rect x="885" y="793" width="46" height="46" fill="#000000"></rect><rect x="977" y="793" width="46" height="46" fill="#000000"></rect><rect x="1115" y="793" width="46" height="46" fill="#000000"></rect><rect x="1207" y="793" width="46" height="46" fill="#000000"></rect><rect x="1253" y="793" width="46" height="46" fill="#000000"></rect><rect x="1299" y="793" width="46" height="46" fill="#000000"></rect><rect x="1345" y="793" width="46" height="46" fill="#000000"></rect><rect x="1437" y="793" width="46" height="46" fill="#000000"></rect><rect x="1529" y="793" width="46" height="46" fill="#000000"></rect><rect x="1621" y="793" width="46" height="46" fill="#000000"></rect><rect x="1667" y="793" width="46" height="46" fill="#000000"></rect><rect x="1805" y="793" width="46" height="46" fill="#000000"></rect><rect x="195" y="839" width="46" height="46" fill="#000000"></rect><rect x="241" y="839" width="46" height="46" fill="#000000"></rect><rect x="471" y="839" width="46" height="46" fill="#000000"></rect><rect x="701" y="839" width="46" height="46" fill="#000000"></rect><rect x="747" y="839" width="46" height="46" fill="#000000"></rect><rect x="885" y="839" width="46" height="46" fill="#000000"></rect><rect x="931" y="839" width="46" height="46" fill="#000000"></rect><rect x="977" y="839" width="46" height="46" fill="#000000"></rect><rect x="1023" y="839" width="46" height="46" fill="#000000"></rect><rect x="1069" y="839" width="46" height="46" fill="#000000"></rect><rect x="1115" y="839" width="46" height="46" fill="#000000"></rect><rect x="1161" y="839" width="46" height="46" fill="#000000"></rect><rect x="1207" y="839" width="46" height="46" fill="#000000"></rect><rect x="1253" y="839" width="46" height="46" fill="#000000"></rect><rect x="1299" y="839" width="46" height="46" fill="#000000"></rect><rect x="1345" y="839" width="46" height="46" fill="#000000"></rect><rect x="1437" y="839" width="46" height="46" fill="#000000"></rect><rect x="1483" y="839" width="46" height="46" fill="#000000"></rect><rect x="1529" y="839" width="46" height="46" fill="#000000"></rect><rect x="1667" y="839" width="46" height="46" fill="#000000"></rect><rect x="1713" y="839" width="46" height="46" fill="#000000"></rect><rect x="1805" y="839" width="46" height="46" fill="#000000"></rect><rect x="149" y="885" width="46" height="46" fill="#000000"></rect><rect x="195" y="885" width="46" height="46" fill="#000000"></rect><rect x="379" y="885" width="46" height="46" fill="#000000"></rect><rect x="425" y="885" width="46" height="46" fill="#000000"></rect><rect x="471" y="885" width="46" height="46" fill="#000000"></rect><rect x="563" y="885" width="46" height="46" fill="#000000"></rect><rect x="655" y="885" width="46" height="46" fill="#000000"></rect><rect x="793" y="885" width="46" height="46" fill="#000000"></rect><rect x="885" y="885" width="46" height="46" fill="#000000"></rect><rect x="931" y="885" width="46" height="46" fill="#000000"></rect><rect x="1023" y="885" width="46" height="46" fill="#000000"></rect><rect x="1115" y="885" width="46" height="46" fill="#000000"></rect><rect x="1299" y="885" width="46" height="46" fill="#000000"></rect><rect x="1483" y="885" width="46" height="46" fill="#000000"></rect><rect x="1529" y="885" width="46" height="46" fill="#000000"></rect><rect x="1713" y="885" width="46" height="46" fill="#000000"></rect><rect x="1759" y="885" width="46" height="46" fill="#000000"></rect><rect x="1805" y="885" width="46" height="46" fill="#000000"></rect><rect x="149" y="931" width="46" height="46" fill="#000000"></rect><rect x="287" y="931" width="46" height="46" fill="#000000"></rect><rect x="563" y="931" width="46" height="46" fill="#000000"></rect><rect x="747" y="931" width="46" height="46" fill="#000000"></rect><rect x="1023" y="931" width="46" height="46" fill="#000000"></rect><rect x="1069" y="931" width="46" height="46" fill="#000000"></rect><rect x="1115" y="931" width="46" height="46" fill="#000000"></rect><rect x="1161" y="931" width="46" height="46" fill="#000000"></rect><rect x="1299" y="931" width="46" height="46" fill="#000000"></rect><rect x="1345" y="931" width="46" height="46" fill="#000000"></rect><rect x="1483" y="931" width="46" height="46" fill="#000000"></rect><rect x="1667" y="931" width="46" height="46" fill="#000000"></rect><rect x="195" y="977" width="46" height="46" fill="#000000"></rect><rect x="333" y="977" width="46" height="46" fill="#000000"></rect><rect x="379" y="977" width="46" height="46" fill="#000000"></rect><rect x="425" y="977" width="46" height="46" fill="#000000"></rect><rect x="747" y="977" width="46" height="46" fill="#000000"></rect><rect x="885" y="977" width="46" height="46" fill="#000000"></rect><rect x="1023" y="977" width="46" height="46" fill="#000000"></rect><rect x="1069" y="977" width="46" height="46" fill="#000000"></rect><rect x="1207" y="977" width="46" height="46" fill="#000000"></rect><rect x="1299" y="977" width="46" height="46" fill="#000000"></rect><rect x="1529" y="977" width="46" height="46" fill="#000000"></rect><rect x="1759" y="977" width="46" height="46" fill="#000000"></rect><rect x="1805" y="977" width="46" height="46" fill="#000000"></rect><rect x="149" y="1023" width="46" height="46" fill="#000000"></rect><rect x="241" y="1023" width="46" height="46" fill="#000000"></rect><rect x="379" y="1023" width="46" height="46" fill="#000000"></rect><rect x="517" y="1023" width="46" height="46" fill="#000000"></rect><rect x="655" y="1023" width="46" height="46" fill="#000000"></rect><rect x="839" y="1023" width="46" height="46" fill="#000000"></rect><rect x="977" y="1023" width="46" height="46" fill="#000000"></rect><rect x="1069" y="1023" width="46" height="46" fill="#000000"></rect><rect x="1115" y="1023" width="46" height="46" fill="#000000"></rect><rect x="1345" y="1023" width="46" height="46" fill="#000000"></rect><rect x="1483" y="1023" width="46" height="46" fill="#000000"></rect><rect x="1529" y="1023" width="46" height="46" fill="#000000"></rect><rect x="1575" y="1023" width="46" height="46" fill="#000000"></rect><rect x="1805" y="1023" width="46" height="46" fill="#000000"></rect><rect x="149" y="1069" width="46" height="46" fill="#000000"></rect><rect x="195" y="1069" width="46" height="46" fill="#000000"></rect><rect x="241" y="1069" width="46" height="46" fill="#000000"></rect><rect x="287" y="1069" width="46" height="46" fill="#000000"></rect><rect x="333" y="1069" width="46" height="46" fill="#000000"></rect><rect x="379" y="1069" width="46" height="46" fill="#000000"></rect><rect x="425" y="1069" width="46" height="46" fill="#000000"></rect><rect x="471" y="1069" width="46" height="46" fill="#000000"></rect><rect x="563" y="1069" width="46" height="46" fill="#000000"></rect><rect x="655" y="1069" width="46" height="46" fill="#000000"></rect><rect x="701" y="1069" width="46" height="46" fill="#000000"></rect><rect x="747" y="1069" width="46" height="46" fill="#000000"></rect><rect x="793" y="1069" width="46" height="46" fill="#000000"></rect><rect x="931" y="1069" width="46" height="46" fill="#000000"></rect><rect x="977" y="1069" width="46" height="46" fill="#000000"></rect><rect x="1069" y="1069" width="46" height="46" fill="#000000"></rect><rect x="1207" y="1069" width="46" height="46" fill="#000000"></rect><rect x="1299" y="1069" width="46" height="46" fill="#000000"></rect><rect x="1437" y="1069" width="46" height="46" fill="#000000"></rect><rect x="1575" y="1069" width="46" height="46" fill="#000000"></rect><rect x="1621" y="1069" width="46" height="46" fill="#000000"></rect><rect x="1667" y="1069" width="46" height="46" fill="#000000"></rect><rect x="1805" y="1069" width="46" height="46" fill="#000000"></rect><rect x="149" y="1115" width="46" height="46" fill="#000000"></rect><rect x="195" y="1115" width="46" height="46" fill="#000000"></rect><rect x="333" y="1115" width="46" height="46" fill="#000000"></rect><rect x="563" y="1115" width="46" height="46" fill="#000000"></rect><rect x="609" y="1115" width="46" height="46" fill="#000000"></rect><rect x="655" y="1115" width="46" height="46" fill="#000000"></rect><rect x="701" y="1115" width="46" height="46" fill="#000000"></rect><rect x="747" y="1115" width="46" height="46" fill="#000000"></rect><rect x="793" y="1115" width="46" height="46" fill="#000000"></rect><rect x="885" y="1115" width="46" height="46" fill="#000000"></rect><rect x="931" y="1115" width="46" height="46" fill="#000000"></rect><rect x="977" y="1115" width="46" height="46" fill="#000000"></rect><rect x="1069" y="1115" width="46" height="46" fill="#000000"></rect><rect x="1115" y="1115" width="46" height="46" fill="#000000"></rect><rect x="1161" y="1115" width="46" height="46" fill="#000000"></rect><rect x="1253" y="1115" width="46" height="46" fill="#000000"></rect><rect x="1299" y="1115" width="46" height="46" fill="#000000"></rect><rect x="1345" y="1115" width="46" height="46" fill="#000000"></rect><rect x="1391" y="1115" width="46" height="46" fill="#000000"></rect><rect x="1483" y="1115" width="46" height="46" fill="#000000"></rect><rect x="1529" y="1115" width="46" height="46" fill="#000000"></rect><rect x="1667" y="1115" width="46" height="46" fill="#000000"></rect><rect x="1759" y="1115" width="46" height="46" fill="#000000"></rect><rect x="425" y="1161" width="46" height="46" fill="#000000"></rect><rect x="655" y="1161" width="46" height="46" fill="#000000"></rect><rect x="701" y="1161" width="46" height="46" fill="#000000"></rect><rect x="839" y="1161" width="46" height="46" fill="#000000"></rect><rect x="885" y="1161" width="46" height="46" fill="#000000"></rect><rect x="1023" y="1161" width="46" height="46" fill="#000000"></rect><rect x="1115" y="1161" width="46" height="46" fill="#000000"></rect><rect x="1161" y="1161" width="46" height="46" fill="#000000"></rect><rect x="1253" y="1161" width="46" height="46" fill="#000000"></rect><rect x="1345" y="1161" width="46" height="46" fill="#000000"></rect><rect x="1437" y="1161" width="46" height="46" fill="#000000"></rect><rect x="1483" y="1161" width="46" height="46" fill="#000000"></rect><rect x="1529" y="1161" width="46" height="46" fill="#000000"></rect><rect x="1575" y="1161" width="46" height="46" fill="#000000"></rect><rect x="1713" y="1161" width="46" height="46" fill="#000000"></rect><rect x="287" y="1207" width="46" height="46" fill="#000000"></rect><rect x="333" y="1207" width="46" height="46" fill="#000000"></rect><rect x="379" y="1207" width="46" height="46" fill="#000000"></rect><rect x="563" y="1207" width="46" height="46" fill="#000000"></rect><rect x="609" y="1207" width="46" height="46" fill="#000000"></rect><rect x="655" y="1207" width="46" height="46" fill="#000000"></rect><rect x="701" y="1207" width="46" height="46" fill="#000000"></rect><rect x="793" y="1207" width="46" height="46" fill="#000000"></rect><rect x="839" y="1207" width="46" height="46" fill="#000000"></rect><rect x="885" y="1207" width="46" height="46" fill="#000000"></rect><rect x="931" y="1207" width="46" height="46" fill="#000000"></rect><rect x="977" y="1207" width="46" height="46" fill="#000000"></rect><rect x="1069" y="1207" width="46" height="46" fill="#000000"></rect><rect x="1115" y="1207" width="46" height="46" fill="#000000"></rect><rect x="1253" y="1207" width="46" height="46" fill="#000000"></rect><rect x="1345" y="1207" width="46" height="46" fill="#000000"></rect><rect x="1437" y="1207" width="46" height="46" fill="#000000"></rect><rect x="1529" y="1207" width="46" height="46" fill="#000000"></rect><rect x="1621" y="1207" width="46" height="46" fill="#000000"></rect><rect x="1713" y="1207" width="46" height="46" fill="#000000"></rect><rect x="1805" y="1207" width="46" height="46" fill="#000000"></rect><rect x="149" y="1253" width="46" height="46" fill="#000000"></rect><rect x="241" y="1253" width="46" height="46" fill="#000000"></rect><rect x="379" y="1253" width="46" height="46" fill="#000000"></rect><rect x="425" y="1253" width="46" height="46" fill="#000000"></rect><rect x="471" y="1253" width="46" height="46" fill="#000000"></rect><rect x="563" y="1253" width="46" height="46" fill="#000000"></rect><rect x="655" y="1253" width="46" height="46" fill="#000000"></rect><rect x="793" y="1253" width="46" height="46" fill="#000000"></rect><rect x="977" y="1253" width="46" height="46" fill="#000000"></rect><rect x="1069" y="1253" width="46" height="46" fill="#000000"></rect><rect x="1115" y="1253" width="46" height="46" fill="#000000"></rect><rect x="1161" y="1253" width="46" height="46" fill="#000000"></rect><rect x="1299" y="1253" width="46" height="46" fill="#000000"></rect><rect x="1529" y="1253" width="46" height="46" fill="#000000"></rect><rect x="1667" y="1253" width="46" height="46" fill="#000000"></rect><rect x="1759" y="1253" width="46" height="46" fill="#000000"></rect><rect x="1805" y="1253" width="46" height="46" fill="#000000"></rect><rect x="195" y="1299" width="46" height="46" fill="#000000"></rect><rect x="287" y="1299" width="46" height="46" fill="#000000"></rect><rect x="609" y="1299" width="46" height="46" fill="#000000"></rect><rect x="655" y="1299" width="46" height="46" fill="#000000"></rect><rect x="793" y="1299" width="46" height="46" fill="#000000"></rect><rect x="839" y="1299" width="46" height="46" fill="#000000"></rect><rect x="931" y="1299" width="46" height="46" fill="#000000"></rect><rect x="977" y="1299" width="46" height="46" fill="#000000"></rect><rect x="1023" y="1299" width="46" height="46" fill="#000000"></rect><rect x="1115" y="1299" width="46" height="46" fill="#000000"></rect><rect x="1253" y="1299" width="46" height="46" fill="#000000"></rect><rect x="1345" y="1299" width="46" height="46" fill="#000000"></rect><rect x="1437" y="1299" width="46" height="46" fill="#000000"></rect><rect x="1529" y="1299" width="46" height="46" fill="#000000"></rect><rect x="1575" y="1299" width="46" height="46" fill="#000000"></rect><rect x="1621" y="1299" width="46" height="46" fill="#000000"></rect><rect x="1713" y="1299" width="46" height="46" fill="#000000"></rect><rect x="1759" y="1299" width="46" height="46" fill="#000000"></rect><rect x="1805" y="1299" width="46" height="46" fill="#000000"></rect><rect x="149" y="1345" width="46" height="46" fill="#000000"></rect><rect x="241" y="1345" width="46" height="46" fill="#000000"></rect><rect x="425" y="1345" width="46" height="46" fill="#000000"></rect><rect x="471" y="1345" width="46" height="46" fill="#000000"></rect><rect x="563" y="1345" width="46" height="46" fill="#000000"></rect><rect x="655" y="1345" width="46" height="46" fill="#000000"></rect><rect x="747" y="1345" width="46" height="46" fill="#000000"></rect><rect x="793" y="1345" width="46" height="46" fill="#000000"></rect><rect x="931" y="1345" width="46" height="46" fill="#000000"></rect><rect x="1207" y="1345" width="46" height="46" fill="#000000"></rect><rect x="1299" y="1345" width="46" height="46" fill="#000000"></rect><rect x="1345" y="1345" width="46" height="46" fill="#000000"></rect><rect x="1529" y="1345" width="46" height="46" fill="#000000"></rect><rect x="1621" y="1345" width="46" height="46" fill="#000000"></rect><rect x="195" y="1391" width="46" height="46" fill="#000000"></rect><rect x="287" y="1391" width="46" height="46" fill="#000000"></rect><rect x="333" y="1391" width="46" height="46" fill="#000000"></rect><rect x="379" y="1391" width="46" height="46" fill="#000000"></rect><rect x="517" y="1391" width="46" height="46" fill="#000000"></rect><rect x="563" y="1391" width="46" height="46" fill="#000000"></rect><rect x="655" y="1391" width="46" height="46" fill="#000000"></rect><rect x="747" y="1391" width="46" height="46" fill="#000000"></rect><rect x="839" y="1391" width="46" height="46" fill="#000000"></rect><rect x="885" y="1391" width="46" height="46" fill="#000000"></rect><rect x="1023" y="1391" width="46" height="46" fill="#000000"></rect><rect x="1069" y="1391" width="46" height="46" fill="#000000"></rect><rect x="1115" y="1391" width="46" height="46" fill="#000000"></rect><rect x="1299" y="1391" width="46" height="46" fill="#000000"></rect><rect x="1437" y="1391" width="46" height="46" fill="#000000"></rect><rect x="1483" y="1391" width="46" height="46" fill="#000000"></rect><rect x="1529" y="1391" width="46" height="46" fill="#000000"></rect><rect x="1575" y="1391" width="46" height="46" fill="#000000"></rect><rect x="149" y="1437" width="46" height="46" fill="#000000"></rect><rect x="195" y="1437" width="46" height="46" fill="#000000"></rect><rect x="379" y="1437" width="46" height="46" fill="#000000"></rect><rect x="425" y="1437" width="46" height="46" fill="#000000"></rect><rect x="471" y="1437" width="46" height="46" fill="#000000"></rect><rect x="517" y="1437" width="46" height="46" fill="#000000"></rect><rect x="563" y="1437" width="46" height="46" fill="#000000"></rect><rect x="609" y="1437" width="46" height="46" fill="#000000"></rect><rect x="701" y="1437" width="46" height="46" fill="#000000"></rect><rect x="747" y="1437" width="46" height="46" fill="#000000"></rect><rect x="977" y="1437" width="46" height="46" fill="#000000"></rect><rect x="1023" y="1437" width="46" height="46" fill="#000000"></rect><rect x="1115" y="1437" width="46" height="46" fill="#000000"></rect><rect x="1299" y="1437" width="46" height="46" fill="#000000"></rect><rect x="1437" y="1437" width="46" height="46" fill="#000000"></rect><rect x="1483" y="1437" width="46" height="46" fill="#000000"></rect><rect x="1529" y="1437" width="46" height="46" fill="#000000"></rect><rect x="1575" y="1437" width="46" height="46" fill="#000000"></rect><rect x="1621" y="1437" width="46" height="46" fill="#000000"></rect><rect x="1759" y="1437" width="46" height="46" fill="#000000"></rect><rect x="1805" y="1437" width="46" height="46" fill="#000000"></rect><rect x="517" y="1483" width="46" height="46" fill="#000000"></rect><rect x="563" y="1483" width="46" height="46" fill="#000000"></rect><rect x="701" y="1483" width="46" height="46" fill="#000000"></rect><rect x="747" y="1483" width="46" height="46" fill="#000000"></rect><rect x="793" y="1483" width="46" height="46" fill="#000000"></rect><rect x="885" y="1483" width="46" height="46" fill="#000000"></rect><rect x="977" y="1483" width="46" height="46" fill="#000000"></rect><rect x="1069" y="1483" width="46" height="46" fill="#000000"></rect><rect x="1115" y="1483" width="46" height="46" fill="#000000"></rect><rect x="1253" y="1483" width="46" height="46" fill="#000000"></rect><rect x="1299" y="1483" width="46" height="46" fill="#000000"></rect><rect x="1345" y="1483" width="46" height="46" fill="#000000"></rect><rect x="1437" y="1483" width="46" height="46" fill="#000000"></rect><rect x="1621" y="1483" width="46" height="46" fill="#000000"></rect><rect x="517" y="1529" width="46" height="46" fill="#000000"></rect><rect x="655" y="1529" width="46" height="46" fill="#000000"></rect><rect x="701" y="1529" width="46" height="46" fill="#000000"></rect><rect x="747" y="1529" width="46" height="46" fill="#000000"></rect><rect x="793" y="1529" width="46" height="46" fill="#000000"></rect><rect x="885" y="1529" width="46" height="46" fill="#000000"></rect><rect x="931" y="1529" width="46" height="46" fill="#000000"></rect><rect x="1299" y="1529" width="46" height="46" fill="#000000"></rect><rect x="1345" y="1529" width="46" height="46" fill="#000000"></rect><rect x="1391" y="1529" width="46" height="46" fill="#000000"></rect><rect x="1437" y="1529" width="46" height="46" fill="#000000"></rect><rect x="1529" y="1529" width="46" height="46" fill="#000000"></rect><rect x="1621" y="1529" width="46" height="46" fill="#000000"></rect><rect x="1759" y="1529" width="46" height="46" fill="#000000"></rect><rect x="1805" y="1529" width="46" height="46" fill="#000000"></rect><rect x="609" y="1575" width="46" height="46" fill="#000000"></rect><rect x="701" y="1575" width="46" height="46" fill="#000000"></rect><rect x="747" y="1575" width="46" height="46" fill="#000000"></rect><rect x="793" y="1575" width="46" height="46" fill="#000000"></rect><rect x="839" y="1575" width="46" height="46" fill="#000000"></rect><rect x="977" y="1575" width="46" height="46" fill="#000000"></rect><rect x="1023" y="1575" width="46" height="46" fill="#000000"></rect><rect x="1161" y="1575" width="46" height="46" fill="#000000"></rect><rect x="1253" y="1575" width="46" height="46" fill="#000000"></rect><rect x="1299" y="1575" width="46" height="46" fill="#000000"></rect><rect x="1437" y="1575" width="46" height="46" fill="#000000"></rect><rect x="1621" y="1575" width="46" height="46" fill="#000000"></rect><rect x="1759" y="1575" width="46" height="46" fill="#000000"></rect><rect x="1805" y="1575" width="46" height="46" fill="#000000"></rect><rect x="563" y="1621" width="46" height="46" fill="#000000"></rect><rect x="701" y="1621" width="46" height="46" fill="#000000"></rect><rect x="793" y="1621" width="46" height="46" fill="#000000"></rect><rect x="885" y="1621" width="46" height="46" fill="#000000"></rect><rect x="931" y="1621" width="46" height="46" fill="#000000"></rect><rect x="977" y="1621" width="46" height="46" fill="#000000"></rect><rect x="1069" y="1621" width="46" height="46" fill="#000000"></rect><rect x="1161" y="1621" width="46" height="46" fill="#000000"></rect><rect x="1207" y="1621" width="46" height="46" fill="#000000"></rect><rect x="1299" y="1621" width="46" height="46" fill="#000000"></rect><rect x="1345" y="1621" width="46" height="46" fill="#000000"></rect><rect x="1391" y="1621" width="46" height="46" fill="#000000"></rect><rect x="1437" y="1621" width="46" height="46" fill="#000000"></rect><rect x="1483" y="1621" width="46" height="46" fill="#000000"></rect><rect x="1529" y="1621" width="46" height="46" fill="#000000"></rect><rect x="1575" y="1621" width="46" height="46" fill="#000000"></rect><rect x="1621" y="1621" width="46" height="46" fill="#000000"></rect><rect x="1667" y="1621" width="46" height="46" fill="#000000"></rect><rect x="1759" y="1621" width="46" height="46" fill="#000000"></rect><rect x="517" y="1667" width="46" height="46" fill="#000000"></rect><rect x="609" y="1667" width="46" height="46" fill="#000000"></rect><rect x="655" y="1667" width="46" height="46" fill="#000000"></rect><rect x="747" y="1667" width="46" height="46" fill="#000000"></rect><rect x="793" y="1667" width="46" height="46" fill="#000000"></rect><rect x="931" y="1667" width="46" height="46" fill="#000000"></rect><rect x="977" y="1667" width="46" height="46" fill="#000000"></rect><rect x="1023" y="1667" width="46" height="46" fill="#000000"></rect><rect x="1069" y="1667" width="46" height="46" fill="#000000"></rect><rect x="1115" y="1667" width="46" height="46" fill="#000000"></rect><rect x="1207" y="1667" width="46" height="46" fill="#000000"></rect><rect x="1253" y="1667" width="46" height="46" fill="#000000"></rect><rect x="1299" y="1667" width="46" height="46" fill="#000000"></rect><rect x="1345" y="1667" width="46" height="46" fill="#000000"></rect><rect x="1391" y="1667" width="46" height="46" fill="#000000"></rect><rect x="1437" y="1667" width="46" height="46" fill="#000000"></rect><rect x="1529" y="1667" width="46" height="46" fill="#000000"></rect><rect x="1621" y="1667" width="46" height="46" fill="#000000"></rect><rect x="609" y="1713" width="46" height="46" fill="#000000"></rect><rect x="701" y="1713" width="46" height="46" fill="#000000"></rect><rect x="793" y="1713" width="46" height="46" fill="#000000"></rect><rect x="885" y="1713" width="46" height="46" fill="#000000"></rect><rect x="1069" y="1713" width="46" height="46" fill="#000000"></rect><rect x="1161" y="1713" width="46" height="46" fill="#000000"></rect><rect x="1345" y="1713" width="46" height="46" fill="#000000"></rect><rect x="1483" y="1713" width="46" height="46" fill="#000000"></rect><rect x="1575" y="1713" width="46" height="46" fill="#000000"></rect><rect x="1621" y="1713" width="46" height="46" fill="#000000"></rect><rect x="1713" y="1713" width="46" height="46" fill="#000000"></rect><rect x="1805" y="1713" width="46" height="46" fill="#000000"></rect><rect x="517" y="1759" width="46" height="46" fill="#000000"></rect><rect x="563" y="1759" width="46" height="46" fill="#000000"></rect><rect x="609" y="1759" width="46" height="46" fill="#000000"></rect><rect x="747" y="1759" width="46" height="46" fill="#000000"></rect><rect x="931" y="1759" width="46" height="46" fill="#000000"></rect><rect x="1023" y="1759" width="46" height="46" fill="#000000"></rect><rect x="1161" y="1759" width="46" height="46" fill="#000000"></rect><rect x="1207" y="1759" width="46" height="46" fill="#000000"></rect><rect x="1253" y="1759" width="46" height="46" fill="#000000"></rect><rect x="1299" y="1759" width="46" height="46" fill="#000000"></rect><rect x="1483" y="1759" width="46" height="46" fill="#000000"></rect><rect x="1667" y="1759" width="46" height="46" fill="#000000"></rect><rect x="1759" y="1759" width="46" height="46" fill="#000000"></rect><rect x="1805" y="1759" width="46" height="46" fill="#000000"></rect><rect x="517" y="1805" width="46" height="46" fill="#000000"></rect><rect x="563" y="1805" width="46" height="46" fill="#000000"></rect><rect x="701" y="1805" width="46" height="46" fill="#000000"></rect><rect x="793" y="1805" width="46" height="46" fill="#000000"></rect><rect x="931" y="1805" width="46" height="46" fill="#000000"></rect><rect x="1161" y="1805" width="46" height="46" fill="#000000"></rect><rect x="1345" y="1805" width="46" height="46" fill="#000000"></rect><rect x="1391" y="1805" width="46" height="46" fill="#000000"></rect><rect x="1575" y="1805" width="46" height="46" fill="#000000"></rect><rect x="1621" y="1805" width="46" height="46" fill="#000000"></rect><rect x="1667" y="1805" width="46" height="46" fill="#000000"></rect><rect x="1759" y="1805" width="46" height="46" fill="#000000"></rect><rect x="1805" y="1805" width="46" height="46" fill="#000000"></rect><svg version="1.1" id="Ebene_1" x="149" y="149" width="322" height="322" viewBox="0 0 699.988 699.986" enable-background="new 0 0 699.988 699.986" xml:space="preserve" shape-rendering="auto">
<path fill="#000000" d="M600.99,0h-100h-99.997h-0.001h-99.997h-99.998h-99.998H1v99.998v99.998v99.998v99.999v99.997v99.998v99.998  h99.999h99.998h99.998h99.997h0.001h99.997h100h99.998v-99.998V499.99v-99.997v-99.999v-99.998V99.998V0H600.99z M600.99,199.996  v99.998v99.999v99.997v99.998h-100h-99.997h-0.001h-99.997h-99.998h-99.998V499.99v-99.997v-99.999v-99.998V99.998h99.998h99.998  h99.997h0.001h99.997h100V199.996z"></path>
</svg>
<svg version="1.0" id="Ebene_1" x="149" y="149" width="322" height="322" viewBox="0 0 699.988 699.988" enable-background="new 0 0 699.988 699.988" xml:space="preserve" shape-rendering="auto">
<polygon fill="#000000" points="399.994,199.997 399.992,199.997 299.996,199.997 199.998,199.997 199.998,299.994 199.998,399.994   199.998,499.991 299.996,499.991 399.992,499.991 399.994,499.991 499.99,499.991 499.99,399.994 499.99,299.994 499.99,199.997 "></polygon>
</svg>
<svg version="1.1" id="Ebene_1" x="1529" y="149" width="322" height="322" viewBox="0 0 699.988 699.986" enable-background="new 0 0 699.988 699.986" xml:space="preserve" shape-rendering="auto">
<path fill="#000000" d="M600.99,0h-100h-99.997h-0.001h-99.997h-99.998h-99.998H1v99.998v99.998v99.998v99.999v99.997v99.998v99.998  h99.999h99.998h99.998h99.997h0.001h99.997h100h99.998v-99.998V499.99v-99.997v-99.999v-99.998V99.998V0H600.99z M600.99,199.996  v99.998v99.999v99.997v99.998h-100h-99.997h-0.001h-99.997h-99.998h-99.998V499.99v-99.997v-99.999v-99.998V99.998h99.998h99.998  h99.997h0.001h99.997h100V199.996z"></path>
</svg>
<svg version="1.0" id="Ebene_1" x="1529" y="149" width="322" height="322" viewBox="0 0 699.988 699.988" enable-background="new 0 0 699.988 699.988" xml:space="preserve" shape-rendering="auto">
<polygon fill="#000000" points="399.994,199.997 399.992,199.997 299.996,199.997 199.998,199.997 199.998,299.994 199.998,399.994   199.998,499.991 299.996,499.991 399.992,499.991 399.994,499.991 499.99,499.991 499.99,399.994 499.99,299.994 499.99,199.997 "></polygon>
</svg>
<svg version="1.1" id="Ebene_1" x="149" y="1529" width="322" height="322" viewBox="0 0 699.988 699.986" enable-background="new 0 0 699.988 699.986" xml:space="preserve" shape-rendering="auto">
<path fill="#000000" d="M600.99,0h-100h-99.997h-0.001h-99.997h-99.998h-99.998H1v99.998v99.998v99.998v99.999v99.997v99.998v99.998  h99.999h99.998h99.998h99.997h0.001h99.997h100h99.998v-99.998V499.99v-99.997v-99.999v-99.998V99.998V0H600.99z M600.99,199.996  v99.998v99.999v99.997v99.998h-100h-99.997h-0.001h-99.997h-99.998h-99.998V499.99v-99.997v-99.999v-99.998V99.998h99.998h99.998  h99.997h0.001h99.997h100V199.996z"></path>
</svg>
<svg version="1.0" id="Ebene_1" x="149" y="1529" width="322" height="322" viewBox="0 0 699.988 699.988" enable-background="new 0 0 699.988 699.988" xml:space="preserve" shape-rendering="auto">
<polygon fill="#000000" points="399.994,199.997 399.992,199.997 299.996,199.997 199.998,199.997 199.998,299.994 199.998,399.994   199.998,499.991 299.996,499.991 399.992,499.991 399.994,499.991 499.99,499.991 499.99,399.994 499.99,299.994 499.99,199.997 "></polygon>
</svg>
</svg>

</svg>
