<?xml version="1.0" encoding="UTF-8" standalone="no"?>
<!-- Created with Inkscape (http://www.inkscape.org/) -->

<svg
   version="1.1"
   id="svg9"
   width="5131"
   height="1720"
   viewBox="0 0 5131 1720"
   sodipodi:docname="CCCU-logo-2colour Hi-Res.svg"
   inkscape:version="1.1.2 (0a00cf5339, 2022-02-04, custom)"
   xmlns:inkscape="http://www.inkscape.org/namespaces/inkscape"
   xmlns:sodipodi="http://sodipodi.sourceforge.net/DTD/sodipodi-0.dtd"
   xmlns="http://www.w3.org/2000/svg"
   xmlns:svg="http://www.w3.org/2000/svg">
  <defs
     id="defs13" />
  <sodipodi:namedview
     id="namedview11"
     pagecolor="#ffffff"
     bordercolor="#666666"
     borderopacity="1.0"
     inkscape:pageshadow="2"
     inkscape:pageopacity="0.0"
     inkscape:pagecheckerboard="0"
     showgrid="false"
     inkscape:zoom="0.083170922"
     inkscape:cx="6492.6538"
     inkscape:cy="3132.1043"
     inkscape:window-width="1920"
     inkscape:window-height="1011"
     inkscape:window-x="-9"
     inkscape:window-y="-9"
     inkscape:window-maximized="1"
     inkscape:current-layer="g15" />
  <g
     inkscape:groupmode="layer"
     inkscape:label="Image"
     id="g15">
    <g
       id="g1665"
       transform="translate(12.023432,12.023472)">
      <path
         d="m 3869.5564,1628.5715 c -1.375,-0.4538 -4.0106,-0.8699 -5.857,-0.9247 -2.7783,-0.082 -3.2367,-0.4014 -2.6595,-1.8497 0.3837,-0.9625 1.0462,-7.0519 1.4724,-13.532 0.4261,-6.4801 1.0582,-12.0654 1.4046,-12.4119 0.3465,-0.3464 4.3546,-0.05 8.907,0.6577 21.9463,3.414 35.014,-1.9542 47.3797,-19.4638 4.532,-6.4172 11.3033,-19.6592 15.5962,-30.5 0.5444,-1.375 1.3874,-3.2814 1.8733,-4.2364 0.4858,-0.9551 0.8833,-2.616 0.8833,-3.691 0,-1.075 0.3609,-2.1776 0.802,-2.4502 0.4411,-0.2726 1.4302,-2.8027 2.198,-5.6224 0.7678,-2.8197 1.7569,-5.3498 2.198,-5.6224 1.1434,-0.7066 0.994,-5.1409 -0.198,-5.8776 -0.55,-0.3399 -1,-1.4976 -1,-2.5726 0,-1.075 -0.45,-2.8484 -1,-3.941 -0.55,-1.0925 -1.45,-2.8803 -2,-3.9728 -0.55,-1.0926 -1,-2.866 -1,-3.941 0,-1.075 -0.45,-2.2327 -1,-2.5726 -0.55,-0.3399 -1,-1.6899 -1,-3 0,-1.3101 -0.45,-2.6601 -1,-3 -0.55,-0.3399 -1,-1.4976 -1,-2.5726 0,-1.075 -0.45,-2.8484 -1,-3.941 -0.55,-1.0925 -1.45,-2.8803 -2,-3.9728 -0.55,-1.0926 -1,-2.866 -1,-3.941 0,-1.075 -0.45,-2.2327 -1,-2.5726 -0.55,-0.3399 -1,-1.6899 -1,-3 0,-1.3101 -0.45,-2.6601 -1,-3 -0.55,-0.3399 -1,-1.6899 -1,-3 0,-1.3101 -0.45,-2.6601 -1,-3 -0.55,-0.3399 -1,-1.4976 -1,-2.5726 0,-1.075 -0.45,-2.8484 -1,-3.941 -0.55,-1.0925 -1.45,-2.8803 -2,-3.9728 -0.55,-1.0926 -1,-2.866 -1,-3.941 0,-1.075 -0.45,-2.2327 -1,-2.5726 -0.55,-0.3399 -1,-1.6899 -1,-3 0,-1.3101 -0.45,-2.6601 -1,-3 -0.55,-0.3399 -1,-1.6899 -1,-3 0,-1.3101 -0.45,-2.6601 -1,-3 -0.55,-0.3399 -1,-1.6265 -1,-2.859 0,-1.2326 -0.369,-2.6685 -0.8199,-3.191 -0.451,-0.5225 -1.882,-4.325 -3.1801,-8.45 -1.2981,-4.125 -2.7291,-7.9275 -3.1801,-8.45 -0.4509,-0.5225 -0.8199,-1.7661 -0.8199,-2.7636 0,-0.9974 -0.45,-2.7074 -1,-3.8 -0.55,-1.0925 -1.45,-2.8803 -2,-3.9728 -0.55,-1.0926 -1,-2.866 -1,-3.941 0,-1.075 -0.45,-2.2327 -1,-2.5726 -0.55,-0.3399 -1,-1.6899 -1,-3 0,-1.3101 -0.45,-2.6601 -1,-3 -0.55,-0.3399 -1,-1.6899 -1,-3 0,-1.3101 -0.45,-2.6601 -1,-3 -0.55,-0.3399 -1,-1.6265 -1,-2.859 0,-1.2326 -0.369,-2.6685 -0.8199,-3.191 -0.451,-0.5225 -1.882,-4.325 -3.1801,-8.45 -1.2981,-4.125 -2.7291,-7.9275 -3.1801,-8.45 -0.4509,-0.5225 -0.8199,-1.9584 -0.8199,-3.191 0,-1.2325 -0.45,-2.5191 -1,-2.859 -0.55,-0.3399 -1,-1.6899 -1,-3 0,-1.3101 -0.3609,-2.605 -0.802,-2.8776 -0.4411,-0.2726 -1.4302,-2.8027 -2.198,-5.6224 -0.7678,-2.8197 -1.7569,-5.3498 -2.198,-5.6224 -0.4411,-0.2726 -0.802,-1.5675 -0.802,-2.8776 0,-1.3101 -0.45,-2.6601 -1,-3 -0.55,-0.3399 -1,-1.6899 -1,-3 0,-1.3101 -0.45,-2.6601 -1,-3 -0.55,-0.3399 -1,-1.6899 -1,-3 0,-1.3101 -0.45,-2.6601 -1,-3 -0.55,-0.3399 -1,-1.4976 -1,-2.5726 0,-1.075 -0.45,-2.8484 -1,-3.941 -0.55,-1.0925 -1.45,-2.8803 -2,-3.9728 -0.55,-1.0926 -1,-2.866 -1,-3.941 0,-1.075 -0.45,-2.2327 -1,-2.5726 -0.55,-0.3399 -1,-1.6899 -1,-3 0,-1.3101 -0.45,-2.6601 -1,-3 -0.55,-0.3399 -1,-1.6899 -1,-3 0,-1.3101 -0.45,-2.6601 -1,-3 -0.55,-0.3399 -1,-1.4976 -1,-2.5726 0,-1.075 -0.5203,-2.9609 -1.1561,-4.191 -2.4827,-4.8025 -2.8439,-5.7759 -2.8439,-7.6638 0,-1.075 -0.45,-2.2327 -1,-2.5726 -0.55,-0.3399 -1,-1.6899 -1,-3 0,-1.3101 -0.45,-2.6601 -1,-3 -0.55,-0.3399 -1,-1.6899 -1,-3 0,-1.3101 -0.45,-2.6601 -1,-3 -0.55,-0.3399 -1,-1.4976 -1,-2.5726 0,-1.8879 -0.3612,-2.8613 -2.8439,-7.6638 -0.6358,-1.2301 -1.1561,-3.116 -1.1561,-4.191 0,-1.075 -0.45,-2.2327 -1,-2.5726 -3.2617,-2.0159 0.3261,-2.5259 15.9938,-2.2736 l 16.9938,0.2736 38.2745,114.4898 c 29.7352,88.9465 38.6608,114.5643 40.0062,114.8233 1.2715,0.2449 1.7317,-0.3346 1.7317,-2.1808 0,-1.3828 0.45,-2.7924 1,-3.1323 0.55,-0.3399 1,-1.6899 1,-3 0,-1.3101 0.45,-2.6601 1,-3 0.55,-0.3399 1,-1.6899 1,-3 0,-1.3101 0.45,-2.6601 1,-3 0.55,-0.3399 1,-1.6899 1,-3 0,-1.3101 0.45,-2.6601 1,-3 0.55,-0.3399 1,-1.7165 1,-3.059 0,-1.3426 0.45,-2.441 1,-2.441 0.55,0 1,-1.35 1,-3 0,-1.65 0.45,-3 1,-3 0.55,0 1,-1.35 1,-3 0,-1.65 0.45,-3 1,-3 0.55,0 1,-1.35 1,-3 0,-1.65 0.45,-3 1,-3 0.55,0 1,-1.35 1,-3 0,-1.65 0.45,-3 1,-3 0.55,0 1,-1.3234 1,-2.941 0,-1.6175 0.45,-3.2191 1,-3.559 0.55,-0.3399 1,-1.6899 1,-3 0,-1.3101 0.45,-2.6601 1,-3 0.55,-0.3399 1,-1.6899 1,-3 0,-1.3101 0.45,-2.6601 1,-3 0.55,-0.3399 1,-1.6899 1,-3 0,-1.3101 0.45,-2.6601 1,-3 0.55,-0.3399 1,-1.6899 1,-3 0,-1.3101 0.45,-2.6601 1,-3 0.55,-0.3399 1,-1.6899 1,-3 0,-1.3101 0.45,-2.6601 1,-3 0.55,-0.3399 1,-1.6899 1,-3 0,-1.3101 0.45,-2.6601 1,-3 0.55,-0.3399 1,-1.4976 1,-2.5726 0,-1.075 0.5203,-2.9609 1.1561,-4.191 2.4827,-4.8025 2.8439,-5.7759 2.8439,-7.6638 0,-1.075 0.45,-2.2327 1,-2.5726 0.55,-0.3399 1,-1.6899 1,-3 0,-1.3101 0.45,-2.6601 1,-3 0.55,-0.3399 1,-1.6899 1,-3 0,-1.3101 0.45,-2.6601 1,-3 0.55,-0.3399 1,-1.6899 1,-3 0,-1.3101 0.45,-2.6601 1,-3 0.55,-0.3399 1,-1.6899 1,-3 0,-1.3101 0.45,-2.6601 1,-3 0.55,-0.3399 1,-1.6899 1,-3 0,-1.3101 0.45,-2.6601 1,-3 0.55,-0.3399 1,-1.6899 1,-3 0,-1.3101 0.45,-2.6601 1,-3 0.55,-0.3399 1,-1.6899 1,-3 0,-1.3101 0.45,-2.6601 1,-3 0.55,-0.3399 1,-1.6899 1,-3 0,-1.3101 0.45,-2.6601 1,-3 0.55,-0.3399 1,-1.6899 1,-3 0,-1.3101 0.45,-2.6601 1,-3 0.55,-0.3399 1,-1.6899 1,-3 0,-1.3101 0.45,-2.6601 1,-3 0.55,-0.3399 1,-1.6899 1,-3 0,-1.3101 0.45,-2.6601 1,-3 0.55,-0.3399 1,-1.6899 1,-3 0,-1.3101 0.45,-2.6601 1,-3 0.55,-0.3399 1,-1.6899 1,-3 0,-1.3101 0.45,-2.6601 1,-3 0.55,-0.3399 1,-1.6899 1,-3 0,-1.3101 0.45,-2.6601 1,-3 0.55,-0.3399 1,-1.6899 1,-3 0,-1.3101 0.45,-2.6601 1,-3 0.55,-0.3399 1,-1.6899 1,-3 0,-1.3101 0.45,-2.6601 1,-3 0.55,-0.3399 1,-1.6899 1,-3 0,-1.3101 0.45,-2.6601 1,-3 0.55,-0.3399 1,-1.6899 1,-3 0,-1.3101 0.45,-2.6601 1,-3 0.55,-0.3399 1,-1.4018 1,-2.3597 0,-0.9578 0.5625,-2.9528 1.25,-4.4331 l 1.25,-2.6916 15.857,-0.01 c 14.7047,-0.01 15.8059,0.1194 15.1542,1.7422 -0.3866,0.9625 -1.983,5.575 -3.5476,10.25 -1.5647,4.675 -5.6137,16.375 -8.9978,26 -3.3841,9.625 -8.5539,24.475 -11.4884,33 -5.0101,14.5548 -8.7633,25.332 -26.4676,76 -3.9397,11.275 -7.991,22.975 -9.0028,26 -7.4703,22.3325 -13.2002,38.7672 -14.0283,40.2364 -0.5383,0.9551 -0.9787,2.616 -0.9787,3.691 0,1.075 -0.3963,2.1995 -0.8806,2.4988 -0.4843,0.2993 -1.1078,1.5634 -1.3854,2.809 -0.7653,3.4336 -11.6635,35.017 -12.7677,37.0012 -0.5315,0.9551 -0.9663,2.5526 -0.9663,3.55 0,0.9975 -0.3889,2.2411 -0.8642,2.7636 -0.4754,0.5225 -3.8903,9.9416 -7.5888,20.9313 -13.8562,41.172 -23.9374,61.8953 -36.7685,75.5828 -4.1789,4.458 -13.7819,11.402 -18.7785,13.579 -6.454,2.8121 -7.7284,3.2663 -11,3.9206 -5.2595,1.052 -32.1363,1.4057 -35,0.4607 z m -1791.5,-109.0609 c -14.4483,-1.2669 -20.4995,-2.1536 -21.0775,-3.0889 -0.2973,-0.481 -2.0624,-0.8746 -3.9225,-0.8746 -1.8601,0 -3.6601,-0.45 -4,-1 -0.3399,-0.55 -1.4976,-1 -2.5726,-1 -1.075,0 -2.7359,-0.4008 -3.691,-0.8906 -2.372,-1.2165 -10.0318,-4.649 -13.9864,-6.2675 -1.7875,-0.7316 -3.25,-1.6703 -3.25,-2.086 0,-0.4158 -0.4814,-0.7559 -1.0698,-0.7559 -1.2538,0 -9.1668,-5.328 -13.3187,-8.9678 -7.8313,-6.8652 -14.4935,-14.3016 -20.1866,-22.5322 -6.3361,-9.1602 -16.1807,-33.1218 -18.8991,-46 -0.3483,-1.65 -1.0707,-5.025 -1.6053,-7.5 -4.2786,-19.8084 -4.7406,-34.9789 -4.8337,-158.75 l -0.087,-115.25 h 16.5 16.5 l 0.076,115.25 c 0.072,109.2311 0.4829,129.4821 2.9374,144.75 0.5747,3.575 1.3044,8.1903 1.6215,10.2563 0.3171,2.0659 0.979,4.005 1.4709,4.309 0.4919,0.304 0.8944,1.8496 0.8944,3.4347 0,1.5851 0.45,3.1601 1,3.5 0.55,0.3399 1,1.4976 1,2.5726 0,1.075 0.3975,2.7359 0.8833,3.691 0.4859,0.955 1.322,2.8614 1.858,4.2364 0.5361,1.375 2.0057,4.525 3.2658,7 1.2602,2.475 2.7866,5.509 3.392,6.7422 0.6055,1.2332 1.4384,2.2457 1.8509,2.25 0.4125,0 0.7505,0.5703 0.7512,1.2578 0,2.0609 10.2547,13.3814 17.369,19.178 9.7592,7.9516 24.6847,14.092 40.1298,16.5096 8.2711,1.2947 35.8728,1.0823 42.5,-0.3269 31.5688,-6.713 53.1725,-25.0814 65.9937,-56.1107 0.6818,-1.65 1.6371,-3.7814 2.123,-4.7364 0.4858,-0.9551 0.8833,-2.616 0.8833,-3.691 0,-1.075 0.4003,-2.202 0.8895,-2.5043 0.4892,-0.3024 1.1317,-2.0164 1.4278,-3.809 0.296,-1.7926 1.03,-5.2843 1.6311,-7.7593 4.8086,-19.7994 5.1609,-29.1713 5.6661,-150.75 l 0.479,-115.25 h 14.4763 14.4764 l -0.4037,121.75 c -0.2718,81.975 -0.7682,124.3636 -1.5193,129.75 -1.7398,12.4769 -2.9091,19.573 -4.1192,25 -0.6133,2.75 -1.3648,6.4667 -1.67,8.2593 -0.3052,1.7926 -0.9553,3.5066 -1.4445,3.809 -0.4892,0.3023 -0.8895,1.6216 -0.8895,2.9317 0,1.3101 -0.45,2.6601 -1,3 -0.55,0.3399 -1,1.4976 -1,2.5726 0,1.075 -0.3975,2.7359 -0.8833,3.691 -0.4859,0.955 -1.3387,2.8614 -1.8952,4.2364 -3.4101,8.4252 -9.6881,20.0306 -14.1523,26.1616 -3.3125,4.5493 -22.8651,23.8384 -24.1641,23.8384 -0.5746,0 -2.9258,1.255 -5.2249,2.7889 -4.934,3.2919 -12.6833,7.0351 -21.1802,10.2309 -1.1,0.4137 -4.025,1.284 -6.5,1.934 -2.475,0.6499 -5.8819,1.6012 -7.571,2.114 -1.689,0.5127 -4.2473,0.9322 -5.6849,0.9322 -1.4376,0 -3.6557,0.3948 -4.929,0.8773 -3.3342,1.2635 -34.7143,2.0156 -45.3151,1.0862 z m 955.5,0 c -12.94,-1.1804 -18.9865,-2.1367 -19.5799,-3.0967 -0.296,-0.479 -1.4921,-0.8708 -2.6581,-0.8708 -2.2516,0 -8.1093,-1.6632 -10.9984,-3.1228 -0.9551,-0.4824 -2.4176,-0.8772 -3.25,-0.8772 -0.8325,0 -1.5136,-0.45 -1.5136,-1 0,-0.55 -0.6293,-1 -1.3985,-1 -1.9599,0 -11.2139,-4.9832 -18.7201,-10.0805 -13.5932,-9.231 -27.6524,-26.2958 -35.7722,-43.4195 -1.8257,-3.85 -3.7221,-7.7814 -4.2143,-8.7364 -0.4922,-0.9551 -0.8949,-2.616 -0.8949,-3.691 0,-1.075 -0.45,-2.2327 -1,-2.5726 -0.55,-0.3399 -1,-1.6899 -1,-3 0,-1.3101 -0.45,-2.6601 -1,-3 -0.55,-0.3399 -1,-2.1399 -1,-4 0,-1.8601 -0.45,-3.6601 -1,-4 -0.55,-0.3399 -1,-2.5899 -1,-5 0,-2.4101 -0.3916,-4.624 -0.8703,-4.9198 -2.4384,-1.5071 -3.4432,-49.6885 -1.3364,-64.0802 0.6442,-4.4 1.4503,-10.025 1.7914,-12.5 0.3411,-2.475 1.0241,-4.9275 1.5177,-5.45 0.4937,-0.5225 0.8976,-2.1834 0.8976,-3.691 0,-1.5075 0.45,-3.0191 1,-3.359 0.55,-0.3399 1,-1.7226 1,-3.0726 0,-1.35 0.3975,-3.2359 0.8833,-4.191 0.4859,-0.955 1.3319,-2.8614 1.8802,-4.2364 2.1422,-5.3725 9.7591,-20.518 10.4773,-20.8333 0.4176,-0.1834 0.7592,-0.9709 0.7592,-1.75 0,-0.7792 0.45,-1.4167 1,-1.4167 0.55,0 1,-0.6375 1,-1.4167 0,-0.7791 0.3375,-1.5666 0.75,-1.75 0.4125,-0.1833 2.7403,-2.9507 5.1728,-6.1497 7.3309,-9.6407 27.1449,-26.6836 31.0223,-26.6836 0.5802,0 1.0549,-0.45 1.0549,-1 0,-0.55 0.9,-1 2,-1 1.1,0 2,-0.45 2,-1 0,-0.55 0.81,-1 1.8,-1 0.99,0 2.2275,-0.369 2.75,-0.8199 1.928,-1.664 20.2248,-6.7027 28.45,-7.8347 11.617,-1.5988 41.261,-0.3502 42.586,1.7937 0.2926,0.4735 1.518,0.8674 2.723,0.8755 4.6729,0.031 18.5981,5.9598 26.691,11.3639 19.4932,13.0169 35.1636,35.9023 42.1941,61.6215 3.9014,14.2723 4.9361,23.0413 5.4573,46.25 l 0.4884,21.75 h -94.1922 -94.1922 l 0.6143,8.75 c 0.6956,9.9093 1.9476,18.6527 3.6156,25.25 0.6258,2.475 1.387,5.743 1.6915,7.2622 0.3046,1.5193 0.9519,3.0083 1.4385,3.3091 0.4866,0.3007 0.8847,1.3144 0.8847,2.2526 0,4.7247 12.2834,25.1265 19.7551,32.8118 11.8817,12.2212 29.4218,21.2011 46.7449,23.9316 2.2,0.3468 4.3373,0.8374 4.7497,1.0904 1.5585,0.9562 32.8764,0.4618 38.4378,-0.6068 16.9482,-3.2564 28.8492,-7.1163 44.0625,-14.2911 2.6125,-1.232 5.0991,-2.3984 5.5259,-2.5919 0.4267,-0.1935 0.6517,6.7287 0.5,15.3826 -0.2248,12.8177 -0.5539,15.8645 -1.7759,16.4365 -0.825,0.3862 -2.5064,1.2221 -3.7364,1.8576 -1.2301,0.6355 -3.116,1.1554 -4.191,1.1554 -1.075,0 -2.2327,0.45 -2.5726,1 -0.3399,0.55 -1.6899,1 -3,1 -1.3101,0 -2.6601,0.45 -3,1 -0.3399,0.55 -1.9149,1 -3.5,1 -1.5851,0 -3.1601,0.45 -3.5,1 -0.3399,0.55 -2.3649,1 -4.5,1 -2.1351,0 -4.1601,0.45 -4.5,1 -0.3399,0.55 -2.3622,1 -4.4939,1 -2.1318,0 -4.9177,0.3916 -6.191,0.8702 -3.3142,1.2458 -34.7496,2.0155 -44.8151,1.0973 z m 78.649,-163.7175 c -0.3095,-4.2625 -1.0498,-10.45 -1.645,-13.75 -0.5952,-3.3 -1.3372,-7.6903 -1.6488,-9.7563 -0.3115,-2.0659 -0.9689,-4.005 -1.4608,-4.309 -0.4919,-0.304 -0.8944,-1.6246 -0.8944,-2.9347 0,-1.3101 -0.45,-2.6601 -1,-3 -0.55,-0.3399 -1,-1.3857 -1,-2.3239 0,-4.4162 -11.0189,-23.2174 -17.8861,-30.5184 -6.3366,-6.737 -18.2203,-13.973 -27.1139,-16.5097 -2.475,-0.7059 -5.8819,-1.703 -7.571,-2.2158 -4.2059,-1.2767 -23.7634,-1.177 -28.813,0.147 -9.354,2.4525 -12.4029,3.532 -18.116,6.4145 -15.8063,7.9747 -27.9404,20.9649 -36.4356,39.0063 -1.8129,3.85 -3.694,7.7814 -4.1803,8.7364 -0.4862,0.9551 -0.8841,2.616 -0.8841,3.691 0,1.075 -0.45,2.2327 -1,2.5726 -0.55,0.3399 -1,1.9149 -1,3.5 0,1.5851 -0.4025,3.1307 -0.8944,3.4347 -0.9478,0.5858 -1.4466,3.24 -3.0091,16.0114 -0.5346,4.3704 -0.7485,8.3079 -0.4753,8.75 0.2733,0.4422 35.3929,0.8039 78.0437,0.8039 h 77.5469 z m 658.351,161.6827 c -8.7874,-0.8941 -13.7249,-1.7529 -16.5,-2.8702 -16.5431,-6.66 -25.8064,-17.2212 -30.3114,-34.5585 -4.7113,-18.1309 -5.2004,-29.501 -5.1943,-120.75 l 0.01,-84.75 h -27 -27 v -13 -13 h 27 27 v -34 -34 h 2.441 c 1.3425,0 2.7191,-0.45 3.059,-1 0.3399,-0.55 1.4976,-1 2.5726,-1 1.075,0 2.8484,-0.45 3.941,-1 1.0925,-0.55 2.8803,-1.45 3.9728,-2 1.0926,-0.55 2.8176,-1 3.8334,-1 1.0158,0 2.1553,-0.3084 2.5322,-0.6853 0.796,-0.796 7.6746,-3.2773 9.148,-3.3 0.6497,-0.01 1,13.5578 1,38.735 v 38.7503 l 31.2798,0.2643 31.2797,0.2643 -0.2797,12.7357 -0.2798,12.7357 -30.4502,0.265 c -22.8321,0.1986 -30.6465,0.5739 -31.2347,1.5 -1.0765,1.6948 -0.9032,164.2786 0.1857,174.235 1.1737,10.7316 1.8435,14.0088 4.091,20.0159 3.5385,9.4573 9.9402,15.7516 19.1931,18.871 8.0495,2.7136 27.1787,1.9602 35.2151,-1.387 1.1,-0.4581 3.0125,-1.0534 4.25,-1.3228 2.2467,-0.4891 2.25,-0.47 2.25,13.0563 0,15.2068 -0.4206,16.1754 -7.05,16.2348 -1.9525,0.017 -3.9775,0.4255 -4.5,0.9067 -1.3377,1.232 -25.45,1.9696 -34.45,1.0538 z m -357.107,-0.369 c -0.3288,-0.3289 -4.6018,-1.0363 -9.4955,-1.5719 -4.8936,-0.5357 -11.3725,-1.4458 -14.3975,-2.0225 -3.025,-0.5767 -6.9667,-1.3046 -8.7593,-1.6174 -1.7926,-0.3129 -3.5066,-0.9692 -3.809,-1.4584 -0.3023,-0.4892 -1.5582,-0.8895 -2.7907,-0.8895 -1.2326,0 -2.6685,-0.3718 -3.191,-0.8261 -0.5225,-0.4544 -2.8625,-1.4264 -5.2,-2.1601 l -4.25,-1.3339 v -14.9566 c 0,-17.0731 -1.1798,-15.8429 10.5,-10.9492 18.9862,7.9551 35.2432,11.2259 55.7958,11.2259 14.6021,0 18.6478,-0.5576 30.3295,-4.1805 12.4157,-3.8504 25.9754,-14.4217 30.3902,-23.6926 1.2119,-2.5448 2.6646,-5.505 3.2282,-6.5783 1.3105,-2.4954 1.2875,-22.6254 -0.029,-25.1433 -0.5478,-1.0479 -2.0181,-4.0469 -3.2674,-6.6645 -3.2813,-6.8752 -8.1884,-12.1676 -16.4519,-17.7437 -9.9525,-6.7159 -11.8149,-7.7451 -37.9956,-20.9971 -12.65,-6.4031 -24.6258,-12.5802 -26.613,-13.727 -1.9871,-1.1467 -4.6642,-2.6897 -5.9491,-3.429 -1.2848,-0.7392 -3.2313,-2.1315 -4.3255,-3.094 -1.0943,-0.9625 -2.5797,-1.75 -3.301,-1.75 -0.7213,0 -1.3114,-0.353 -1.3114,-0.7844 0,-0.4314 -1.4625,-1.6335 -3.25,-2.6714 -4.5791,-2.6587 -16.1606,-14.5913 -17.8363,-18.377 -0.771,-1.7419 -1.7421,-3.1672 -2.1578,-3.1672 -0.4158,0 -0.7559,-0.81 -0.7559,-1.8 0,-0.99 -0.3718,-2.2275 -0.8261,-2.75 -1.0969,-1.2614 -2.7314,-7.3852 -4.2262,-15.8339 -2.6307,-14.8681 3.4622,-34.2585 14.3532,-45.679 8.5538,-8.9696 16.2357,-14.097 28.6991,-19.1557 1.375,-0.5581 3.2814,-1.4122 4.2364,-1.8981 0.9551,-0.4858 2.841,-0.8833 4.191,-0.8833 1.35,0 2.6967,-0.3918 2.9927,-0.8708 1.0669,-1.7262 11.5069,-2.4712 35.0799,-2.5033 22.3927,-0.031 30.1954,0.5613 44.5,3.3754 3.025,0.5951 6.9667,1.338 8.7593,1.6508 1.7926,0.3129 3.5066,0.9692 3.809,1.4584 0.3023,0.4892 1.6482,0.8895 2.9907,0.8895 h 2.441 v 15 c 0,8.25 -0.2695,15 -0.5989,15 -0.3293,0 -2.0168,-0.6447 -3.75,-1.4326 -7.9586,-3.6182 -22.9821,-7.8819 -34.1511,-9.6923 -10.194,-1.6524 -33.4457,-2.1919 -39.4931,-0.9164 -15.0248,3.1691 -22.09,6.3721 -29.7996,13.5098 -8.4267,7.8017 -13.0502,18.3654 -11.8549,27.0861 1.9325,14.0986 17.9132,29.0806 45.1869,42.3628 23.0433,11.222 34.944,17.2906 37.5584,19.1521 1.4911,1.0618 2.9963,1.9305 3.345,1.9305 2.1952,0 20.3013,13.5712 26.5575,19.9058 12.9638,13.1262 18.2005,26.0224 18.3112,45.0942 0.055,9.5668 -1.1633,19.7904 -2.4543,20.5883 -0.4714,0.2914 -0.8571,1.6016 -0.8571,2.9117 0,1.3101 -0.45,2.6601 -1,3 -0.55,0.3399 -1,1.2424 -1,2.0054 0,2.6623 -7.4091,14.0392 -12.9334,19.8597 -6.5661,6.9182 -12.1911,10.9917 -22.6796,16.4242 -6.7266,3.484 -17.8426,7.2107 -21.508,7.2107 -1.3634,0 -2.9065,0.4104 -3.429,0.912 -0.5225,0.5016 -3.65,1.1903 -6.95,1.5304 -9.1867,0.9469 -39.9315,1.7928 -40.607,1.1173 z m -1097.893,-136.0597 v -132.5 h 15 15 v 24.5 c 0,21.1111 0.2075,24.5 1.5,24.5 0.825,0 1.5,-0.6173 1.5,-1.3717 0,-4.7088 18.0253,-26.3763 29,-34.8598 4.1794,-3.2307 17.8913,-10.1358 23.5,-11.8343 2.2,-0.6662 4.9,-1.5711 6,-2.0108 1.1,-0.4396 3.8,-1.1167 6,-1.5044 6.1962,-1.0922 42.4565,-0.8831 47.5,0.2739 10.7237,2.46 21.975,7.7396 30.5,14.3119 4.6974,3.6215 14.5,14.0989 14.5,15.4983 0,0.3501 1.2687,2.5176 2.8193,4.8167 3.3192,4.9212 7.1807,13.047 7.1807,15.1103 0,0.7985 0.45,1.73 1,2.0699 0.55,0.3399 1,1.6899 1,3 0,1.3101 0.45,2.6601 1,3 0.55,0.3399 1,2.0765 1,3.859 0,1.7826 0.4064,3.6685 0.903,4.191 0.9745,1.0251 1.5525,5.1252 3.024,21.45 0.5206,5.775 0.975,48.6375 1.0097,95.25 l 0.063,84.75 h -15.9841 -15.984 l -0.3752,-88.25 c -0.2614,-61.4595 -0.7304,-90.2232 -1.5451,-94.75 -0.6434,-3.575 -1.4292,-8.1903 -1.7463,-10.2563 -0.3171,-2.0659 -0.979,-4.005 -1.4709,-4.309 -0.4919,-0.304 -0.8944,-1.3912 -0.8944,-2.4159 0,-4.3624 -8.4972,-18.5717 -14.9721,-25.0369 -7.1523,-7.1417 -13.1753,-10.5379 -25.0182,-14.1073 -5.4837,-1.6527 -33.2206,-1.7947 -37.5658,-0.1922 -1.6192,0.5971 -4.9689,1.6849 -7.4439,2.4174 -5.3492,1.5831 -14.3127,6.1286 -18.5,9.3816 -13.1823,10.241 -23.6288,25.6037 -28.5725,42.0186 -0.6625,2.2 -1.5616,4.9 -1.9979,6 -0.4363,1.1 -1.0721,3.575 -1.4129,5.5 -0.3407,1.925 -1.1063,6.2 -1.7012,9.5 -0.6922,3.8396 -1.2222,34.5347 -1.4719,85.25 l -0.3902,79.25 h -15.9767 -15.9767 v -132.5 z m 285,0 v -132.5 h 16 16 v 132.5 132.5 h -16 -16 z m 169.0352,130.5657 c -0.5694,-1.0638 -1.0352,-2.8372 -1.0352,-3.9409 0,-1.1037 -0.45,-2.2849 -1,-2.6248 -0.55,-0.3399 -1,-1.6899 -1,-3 0,-1.3101 -0.45,-2.6601 -1,-3 -0.55,-0.3399 -1,-1.6899 -1,-3 0,-1.3101 -0.45,-2.6601 -1,-3 -0.55,-0.3399 -1,-1.6899 -1,-3 0,-1.3101 -0.45,-2.6601 -1,-3 -0.55,-0.3399 -1,-1.6899 -1,-3 0,-1.3101 -0.45,-2.6601 -1,-3 -0.55,-0.3399 -1,-1.6899 -1,-3 0,-1.3101 -0.45,-2.6601 -1,-3 -0.55,-0.3399 -1,-1.6899 -1,-3 0,-1.3101 -0.45,-2.6601 -1,-3 -0.55,-0.3399 -1,-1.6899 -1,-3 0,-1.3101 -0.45,-2.6601 -1,-3 -0.55,-0.3399 -1,-1.6899 -1,-3 0,-1.3101 -0.45,-2.6601 -1,-3 -0.55,-0.3399 -1,-1.6899 -1,-3 0,-1.3101 -0.45,-2.6601 -1,-3 -0.55,-0.3399 -1,-1.6899 -1,-3 0,-1.3101 -0.45,-2.6601 -1,-3 -0.55,-0.3399 -1,-1.6899 -1,-3 0,-1.3101 -0.45,-2.6601 -1,-3 -0.55,-0.3399 -1,-1.6899 -1,-3 0,-1.3101 -0.45,-2.6601 -1,-3 -0.55,-0.3399 -1,-1.4976 -1,-2.5726 0,-1.075 -0.4038,-2.7359 -0.8974,-3.691 -0.4935,-0.955 -5.0397,-14.5614 -10.1026,-30.2364 -5.0629,-15.675 -9.6091,-29.2814 -10.1026,-30.2364 -0.4936,-0.9551 -0.8974,-2.616 -0.8974,-3.691 0,-1.075 -0.45,-2.2327 -1,-2.5726 -0.55,-0.3399 -1,-1.6899 -1,-3 0,-1.3101 -0.45,-2.6601 -1,-3 -0.55,-0.3399 -1,-1.6899 -1,-3 0,-1.3101 -0.45,-2.6601 -1,-3 -0.55,-0.3399 -1,-1.6899 -1,-3 0,-1.3101 -0.45,-2.6601 -1,-3 -0.55,-0.3399 -1,-1.6899 -1,-3 0,-1.3101 -0.45,-2.6601 -1,-3 -0.55,-0.3399 -1,-1.6899 -1,-3 0,-1.3101 -0.45,-2.6601 -1,-3 -0.55,-0.3399 -1,-1.6899 -1,-3 0,-1.3101 -0.45,-2.6601 -1,-3 -0.55,-0.3399 -1,-1.6899 -1,-3 0,-1.3101 -0.45,-2.6601 -1,-3 -0.55,-0.3399 -1,-1.6899 -1,-3 0,-1.3101 -0.45,-2.6601 -1,-3 -0.55,-0.3399 -1,-1.6899 -1,-3 0,-1.3101 -0.45,-2.6601 -1,-3 -0.55,-0.3399 -1,-1.6899 -1,-3 0,-1.3101 -0.45,-2.6601 -1,-3 -0.55,-0.3399 -1,-1.6899 -1,-3 0,-1.3101 -0.45,-2.6601 -1,-3 -0.55,-0.3399 -1,-1.6899 -1,-3 0,-1.3101 -0.45,-2.6601 -1,-3 -0.55,-0.3399 -1,-1.6899 -1,-3 0,-1.3101 -0.45,-2.6601 -1,-3 -0.55,-0.3399 -1,-1.6899 -1,-3 0,-1.3101 -0.45,-2.6601 -1,-3 -0.55,-0.3399 -1,-1.6899 -1,-3 0,-1.3101 -0.45,-2.6601 -1,-3 -0.55,-0.3399 -1,-1.6899 -1,-3 0,-1.3101 -0.45,-2.6601 -1,-3 -0.55,-0.3399 -1,-1.6899 -1,-3 0,-1.3101 -0.45,-2.6601 -1,-3 -0.55,-0.3399 -1,-1.6899 -1,-3 0,-1.3101 -0.45,-2.6601 -1,-3 -0.55,-0.3399 -1,-1.2774 -1,-2.0832 0,-1.2394 2.5787,-1.4229 16.739,-1.191 l 16.739,0.2742 1.8698,6 c 1.0283,3.3 2.2708,6.7814 2.761,7.7364 0.4901,0.9551 0.8912,2.616 0.8912,3.691 0,1.075 0.45,2.2327 1,2.5726 0.55,0.3399 1,1.9149 1,3.5 0,1.5851 0.45,3.1601 1,3.5 0.55,0.3399 1,1.4976 1,2.5726 0,1.075 0.3998,2.7359 0.8885,3.691 0.8204,1.6035 4.9992,14.5645 8.1364,25.2364 0.7276,2.475 1.6946,4.9275 2.149,5.45 0.4543,0.5225 0.8261,2.1834 0.8261,3.691 0,1.5075 0.45,3.0191 1,3.359 0.55,0.3399 1,1.4976 1,2.5726 0,1.075 0.3998,2.7359 0.8885,3.691 0.8531,1.6672 4.2782,12.3414 9.0604,28.2364 1.2411,4.125 2.6603,8.2814 3.1538,9.2364 0.4935,0.9551 0.8973,2.4237 0.8973,3.2636 0,0.8399 0.3998,2.3085 0.8885,3.2636 0.8531,1.6672 4.2782,12.3414 9.0604,28.2364 1.2411,4.125 2.6603,8.2814 3.1538,9.2364 0.4935,0.9551 0.8973,2.4237 0.8973,3.2636 0,0.8399 0.3998,2.3085 0.8885,3.2636 0.8531,1.6672 4.2782,12.3414 9.0604,28.2364 1.2411,4.125 2.6603,8.2814 3.1538,9.2364 0.4935,0.9551 0.8973,2.4237 0.8973,3.2636 0,0.8399 0.4035,2.3085 0.8967,3.2636 1.1293,2.1868 6.9648,21.0517 7.3424,23.7364 0.1683,1.1963 1.1813,2.1284 2.5211,2.3196 1.8945,0.2702 2.2398,-0.1446 2.2398,-2.691 0,-1.6558 0.45,-3.2887 1,-3.6286 0.55,-0.3399 1,-1.9149 1,-3.5 0,-1.5851 0.45,-3.1601 1,-3.5 0.55,-0.3399 1,-1.6899 1,-3 0,-1.3101 0.45,-2.6601 1,-3 0.55,-0.3399 1,-1.6899 1,-3 0,-1.3101 0.45,-2.6601 1,-3 0.55,-0.3399 1,-1.6899 1,-3 0,-1.3101 0.45,-2.6601 1,-3 0.55,-0.3399 1,-1.6899 1,-3 0,-1.3101 0.45,-2.6601 1,-3 0.55,-0.3399 1,-1.6899 1,-3 0,-1.3101 0.45,-2.6601 1,-3 0.55,-0.3399 1,-1.4976 1,-2.5726 0,-1.075 0.4037,-2.7359 0.897,-3.691 0.4934,-0.955 3.6897,-10.5114 7.103,-21.2364 3.4133,-10.725 6.6096,-20.2814 7.103,-21.2364 0.4933,-0.9551 0.897,-2.616 0.897,-3.691 0,-1.075 0.45,-2.2327 1,-2.5726 0.55,-0.3399 1,-1.6899 1,-3 0,-1.3101 0.45,-2.6601 1,-3 0.55,-0.3399 1,-1.6899 1,-3 0,-1.3101 0.45,-2.6601 1,-3 0.55,-0.3399 1,-1.6899 1,-3 0,-1.3101 0.45,-2.6601 1,-3 0.55,-0.3399 1,-1.6899 1,-3 0,-1.3101 0.45,-2.6601 1,-3 0.55,-0.3399 1,-1.6899 1,-3 0,-1.3101 0.45,-2.6601 1,-3 0.55,-0.3399 1,-1.6899 1,-3 0,-1.3101 0.45,-2.6601 1,-3 0.55,-0.3399 1,-1.6899 1,-3 0,-1.3101 0.45,-2.6601 1,-3 0.55,-0.3399 1,-1.6899 1,-3 0,-1.3101 0.45,-2.6601 1,-3 0.55,-0.3399 1,-1.6899 1,-3 0,-1.3101 0.45,-2.6601 1,-3 0.55,-0.3399 1,-1.6899 1,-3 0,-1.3101 0.45,-2.6601 1,-3 0.55,-0.3399 1,-1.6899 1,-3 0,-1.3101 0.45,-2.6601 1,-3 0.55,-0.3399 1,-1.9149 1,-3.5 0,-1.5851 0.45,-3.1601 1,-3.5 0.55,-0.3399 1,-1.6899 1,-3 0,-1.3101 0.45,-2.6601 1,-3 0.55,-0.3399 1,-1.6899 1,-3 0,-1.3101 0.45,-2.6601 1,-3 0.55,-0.3399 1,-1.6899 1,-3 0,-1.3101 0.45,-2.6601 1,-3 0.55,-0.3399 1,-1.6899 1,-3 0,-1.3101 0.45,-2.6601 1,-3 0.55,-0.3399 1,-1.6899 1,-3 0,-1.3101 0.45,-2.6601 1,-3 0.55,-0.3399 1,-1.4976 1,-2.5726 0,-1.075 0.4035,-2.7359 0.8967,-3.691 0.4932,-0.955 2.8197,-7.6989 5.1699,-14.9864 l 4.2732,-13.25 h 15.3301 c 14.5539,0 16.4269,0.3292 14.5102,2.55 -0.451,0.5225 -1.882,4.325 -3.1801,8.45 -1.2981,4.125 -2.7291,7.9275 -3.1801,8.45 -0.4509,0.5225 -0.8199,1.7661 -0.8199,2.7636 0,0.9974 -0.4371,2.5949 -0.9714,3.55 -0.5342,0.955 -2.7971,7.3614 -5.0286,14.2364 -2.2315,6.875 -4.4944,13.2814 -5.0286,14.2364 -0.5343,0.9551 -0.9714,2.616 -0.9714,3.691 0,1.075 -0.45,2.2327 -1,2.5726 -0.55,0.3399 -1,1.4976 -1,2.5726 0,1.8879 -0.3612,2.8613 -2.8439,7.6638 -0.6358,1.2301 -1.1561,3.116 -1.1561,4.191 0,1.075 -0.45,2.2327 -1,2.5726 -0.55,0.3399 -1,1.6899 -1,3 0,1.3101 -0.45,2.6601 -1,3 -0.55,0.3399 -1,1.6899 -1,3 0,1.3101 -0.45,2.6601 -1,3 -0.55,0.3399 -1,1.6265 -1,2.859 0,1.2326 -0.369,2.6685 -0.8199,3.191 -0.451,0.5225 -1.882,4.325 -3.1801,8.45 -1.2981,4.125 -2.7291,7.9275 -3.1801,8.45 -0.4509,0.5225 -0.8199,1.895 -0.8199,3.05 0,1.155 -0.369,2.5275 -0.8199,3.05 -0.451,0.5225 -1.882,4.325 -3.1801,8.45 -1.2981,4.125 -2.7291,7.9275 -3.1801,8.45 -0.4509,0.5225 -0.8199,1.9584 -0.8199,3.191 0,1.2325 -0.45,2.5191 -1,2.859 -0.55,0.3399 -1,1.6265 -1,2.859 0,1.2326 -0.369,2.6685 -0.8199,3.191 -0.451,0.5225 -1.882,4.325 -3.1801,8.45 -1.2981,4.125 -2.7291,7.9275 -3.1801,8.45 -0.4509,0.5225 -0.8199,1.9584 -0.8199,3.191 0,1.2325 -0.45,2.5191 -1,2.859 -0.55,0.3399 -1,1.6265 -1,2.859 0,1.2326 -0.369,2.6685 -0.8199,3.191 -0.451,0.5225 -1.882,4.325 -3.1801,8.45 -1.2981,4.125 -2.7291,7.9275 -3.1801,8.45 -0.4509,0.5225 -0.8199,1.7661 -0.8199,2.7636 0,0.9974 -0.4343,2.5949 -0.9651,3.55 -0.5307,0.955 -2.3465,6.0114 -4.0349,11.2364 -1.6884,5.225 -3.5042,10.2814 -4.0349,11.2364 -0.5308,0.9551 -0.9651,2.5526 -0.9651,3.55 0,0.9975 -0.369,2.2411 -0.8199,2.7636 -0.451,0.5225 -1.882,4.325 -3.1801,8.45 -1.2981,4.125 -2.7291,7.9275 -3.1801,8.45 -0.4509,0.5225 -0.8199,1.9584 -0.8199,3.191 0,1.2325 -0.45,2.5191 -1,2.859 -0.55,0.3399 -1,1.4976 -1,2.5726 0,1.075 -0.4016,2.7359 -0.8924,3.691 -0.4908,0.955 -1.3812,2.9739 -1.9786,4.4864 l -1.0861,2.75 h -19.4863 c -18.242,0 -19.5523,-0.1235 -20.5214,-1.9343 z m 432.9648,-130.5657 v -132.5 h 14.5 14.5 v 27.5 c 0,18.2245 0.3479,27.5 1.0314,27.5 0.5672,0 1.2831,-0.7875 1.5907,-1.75 1.4388,-4.5022 3.7939,-9.5196 8.586,-18.2923 4.625,-8.4669 22.7988,-26.9577 26.4955,-26.9577 0.713,0 1.2964,-0.3401 1.2964,-0.7559 0,-0.4157 1.4625,-1.3535 3.25,-2.0838 1.7875,-0.7304 4.2625,-1.7402 5.5,-2.2441 1.2375,-0.5039 3.2625,-1.3323 4.5,-1.8409 4.7494,-1.9518 8.7654,-2.4079 24.5,-2.7821 l 16.25,-0.3865 v 16.6517 16.6517 l -4.25,-0.633 c -18.0413,-2.6868 -30.7748,-1.1816 -44.1323,5.2166 -13.4574,6.4461 -24.3373,17.9519 -31.5168,33.3299 -4.9576,10.6187 -6.5762,16.0905 -9.2818,31.3764 -0.6643,3.7533 -1.2166,35.6756 -1.4749,85.25 l -0.4128,79.25 h -15.4657 -15.4657 z m 378,0 v -132.5 h 16 16 v 132.5 132.5 h -16 -16 z m -982.311,-215.1444 c -0.379,-0.3789 -0.689,-9.8389 -0.689,-21.0223 v -20.3333 h 18.5203 18.5203 l -0.2703,20.75 -0.2703,20.75 -17.561,0.2723 c -9.6586,0.1498 -17.8711,-0.038 -18.25,-0.4167 z m 979.9777,-0.022 c -0.3667,-0.3669 -0.6667,-9.7977 -0.6667,-20.9576 v -20.2906 l 18.5856,-0.2927 c 10.2221,-0.161 18.7721,-0.1052 19,0.124 0.6603,0.6639 0.4792,38.7509 -0.1926,40.5015 -0.5219,1.3601 -3.0917,1.5818 -18.3333,1.5818 -9.7495,0 -18.0264,-0.3 -18.393,-0.6667 z"
         style="fill:#ef2a22;fill-opacity:1"
         id="path1230" />
      <path
         style="fill:#172175;fill-opacity:1"
         d="m 380.5,1593.8971 c -42.72541,-1.7964 -81.73424,-8.0404 -120.65455,-19.3128 -70.33193,-20.37 -123.60031,-54.7813 -154.65949,-99.9101 -26.889141,-39.0697 -43.191452,-94.5822 -43.187236,-147.0609 0.0029,-36.3644 7.028548,-72.2606 22.138645,-113.1133 5.071239,-13.711 23.556241,-51.4175 32.240601,-65.7658 19.15973,-31.6557 44.13074,-64.927 67.71981,-90.2298 3.07878,-3.3024 9.60378,-10.3206 14.5,-15.5959 16.77541,-18.0744 50.49542,-48.70752 76.14908,-69.17803 37.94641,-30.27959 79.04264,-57.9537 126.25314,-85.01858 18.71853,-10.73098 58.38604,-31.06612 75.5,-38.70429 2.75,-1.22736 7.475,-3.35971 10.5,-4.73855 10.04572,-4.57899 32.32043,-13.85352 46,-19.15304 16.44503,-6.37087 18.58248,-7.43895 18.20385,-9.09646 -0.16288,-0.71305 -1.85689,-9.44665 -3.76447,-19.408 -8.93085,-46.63694 -12.31709,-72.87557 -15.37199,-119.11155 -0.8727,-13.20831 -0.60941,-96.81398 0.30957,-98.30091 0.31606,-0.51141 0.8362,-5.82791 1.15585,-11.81446 0.31966,-5.98655 1.00554,-13.04428 1.52419,-15.68385 0.51865,-2.63957 0.943,-6.63769 0.943,-8.8847 0,-2.24702 0.47384,-7.06237 1.05298,-10.70078 0.57913,-3.63842 1.50412,-9.7653 2.05552,-13.6153 0.55141,-3.85 1.40694,-9.25 1.90119,-12 0.49425,-2.75 1.40604,-7.925 2.02622,-11.5 1.92603,-11.10267 5.71763,-29.14195 7.98707,-38 0.49318,-1.925 1.62196,-6.425 2.50838,-10 2.70073,-10.89215 5.21634,-20.16289 7.39429,-27.25 1.14089,-3.7125 2.92044,-9.5625 3.95456,-13 1.03411,-3.4375 2.86442,-8.95 4.06736,-12.25 1.20293,-3.3 3.00813,-8.475 4.01155,-11.5 1.9456,-5.86536 12.95125,-33.66511 16.13253,-40.75 1.04959,-2.3375 2.85455,-6.3875 4.01102,-9 2.83926,-6.41397 18.0524,-36.76307 20.92809,-41.75 1.26862,-2.2 3.95494,-6.925 5.96962,-10.5 9.48513,-16.83121 27.26373,-43.84292 39.43266,-59.91158 28.35534,-37.44228 66.25103,-75.17591 99.03724,-98.61374 29.7186,-21.2449 58.31403,-36.142373 88.34023,-46.022976 15.99534,-5.263526 23.15123,-7.04139 42.68949,-10.606105 9.42748,-1.720024 52.18544,-1.706731 63.5,0.01974 32.14371,4.904762 54.8089,11.997815 82.144,25.706893 11.1397,5.586733 13.2614,6.820266 26.356,15.322608 64.1941,41.68142 119.8535,116.87096 159.9729,216.10516 29.1142,72.01338 49.8928,161.06654 57.9818,248.5 5.3575,57.90821 5.3482,118.67699 -0.027,173.5 -1.6848,17.18479 -6.727,52.92122 -8.887,62.98724 -0.8798,4.09976 -1.0462,6.90397 -0.4524,7.61957 0.5169,0.62277 3.0709,1.90425 5.6756,2.84772 10.6447,3.85573 27.6966,10.45514 33.2358,12.86292 1.925,0.83676 7.1,2.94766 11.5,4.6909 4.4,1.74323 9.8,3.97118 12,4.951 2.2,0.97981 8.95,3.95019 15,6.60085 17.682,7.74691 68.5849,33.44755 86.5,43.67342 59.8074,34.13783 104.9704,65.5619 153.4432,106.76458 18.6121,15.8205 53.0434,49.2139 68.5688,66.5018 63.639,70.8632 102.8757,142.4081 116.8136,213 3.8743,19.6223 4.5583,27.6159 4.4922,52.5 -0.067,25.0886 -1.1726,35.3476 -5.9294,55 -7.9557,32.8683 -24.3353,65.241 -47.607,94.0906 -37.386,46.3468 -92.0076,79.5383 -160.2136,97.3559 -33.9222,8.8616 -65.4757,13.3955 -108.7542,15.6269 -46.2025,2.3822 -110.7807,-3.4036 -169.3136,-15.1694 -96.0144,-19.3001 -194.0517,-56.5988 -272.5,-103.6739 -31.15656,-18.6964 -63.26359,-41.799 -85,-61.1618 -2.475,-2.2047 -4.82834,-4.022 -5.22964,-4.0385 -0.40131,-0.016 -8.99959,6.2029 -19.1073,13.8207 -93.17726,70.2242 -200.03015,121.4077 -311.16306,149.05 -52.40036,13.0337 -99.52151,19.8973 -151.5,22.0675 -25.02483,1.0448 -34.21988,1.034 -60.5,-0.071 z m 940,-166.9142 c 35.4443,-1.7116 64.5007,-5.9338 88.5,-12.86 1.925,-0.5556 5.075,-1.4321 7,-1.9478 3.9877,-1.0684 12.5248,-3.8756 15.5,-5.0967 4.3763,-1.7962 25.2696,-12.177 29.5,-14.657 18.7693,-11.0032 44.3961,-36.6346 55.4113,-55.4214 4.0783,-6.9556 12.8822,-24.9359 14.9341,-30.5 14.9383,-40.5075 16.6396,-92.3705 4.7566,-145 -6.3098,-27.9462 -22.2247,-67.9089 -36.3324,-91.2319 -2.0733,-3.4276 -3.7696,-6.4388 -3.7696,-6.6916 0,-0.9222 -18.4766,-28.2979 -24.349,-36.0765 -15.7051,-20.8029 -35.7135,-42.55824 -55.6421,-60.5 -5.1926,-4.675 -10.3564,-9.32773 -11.475,-10.33939 -17.0765,-15.44376 -54.9579,-42.07919 -83.0339,-58.38342 -27.0673,-15.71845 -68.9689,-35.73228 -98.5,-47.04744 -22.4435,-8.59947 -57.4656,-20.36046 -75.5,-25.35412 -2.2,-0.60917 -5.125,-1.49733 -6.5,-1.97369 -6.3597,-2.20326 -54.5108,-13.9244 -69.5,-16.91799 -4.1461,-0.82804 -13.059,-2.59079 -20,-3.9555 -9.2259,-1.81396 -40.5651,-7.17981 -47.5,-8.13287 -4.125,-0.5669 -10.425,-1.45178 -14,-1.96641 -37.21491,-5.35719 -79.02821,-9.44255 -122,-11.92 -30.6232,-1.76551 -98.04109,-3.17874 -125.7132,-2.63522 -15.51727,0.30478 -28.41553,0.22678 -28.66281,-0.17333 -0.37554,-0.60764 11.20476,-3.0008 49.37601,-10.20395 2.475,-0.46705 8.1,-1.35912 12.5,-1.98239 4.4,-0.62327 10.7,-1.53478 14,-2.02558 16.26706,-2.41936 27.25223,-3.65078 44.35843,-4.97252 7.34713,-0.5677 13.64713,-1.20111 14,-1.4076 0.35286,-0.20648 8.74157,-0.76538 18.64157,-1.242 32.7661,-1.57747 111.17683,-0.83616 124.04902,1.17278 1.67696,0.26172 8.65196,0.91802 15.49998,1.45844 14.2501,1.12457 19.08,1.60212 30.951,3.06022 20.7757,2.55187 32.3221,4.25483 53.75,7.92751 6.8484,1.17379 41.2589,7.8859 46.25,9.02152 1.925,0.43799 5.6375,1.29058 8.25,1.89465 2.6125,0.60406 6.6625,1.53438 9,2.06736 7.0591,1.60957 37.8321,9.61717 46.5,12.10001 8.8125,2.52427 10.9158,3.11074 12.9098,3.59983 2.0058,0.49199 2.2122,0.0415 2.8952,-6.31957 1.085,-10.10479 -0.2389,-64.45985 -2.0057,-82.34933 -1.881,-19.04489 -3.2144,-30.49416 -4.5423,-39 -0.5581,-3.575 -1.2503,-8.075 -1.5383,-10 -0.5624,-3.76 -1.5344,-8.86067 -4.097,-21.5 -0.8921,-4.4 -1.9955,-10.025 -2.452,-12.5 -1.1114,-6.02536 -8.2445,-33.75429 -10.9329,-42.5 -1.1835,-3.85 -2.5104,-8.35 -2.9488,-10 -1.0125,-3.81103 -5.8478,-18.36035 -6.979,-21 -0.4714,-1.1 -1.398,-3.575 -2.059,-5.5 -0.661,-1.925 -1.5646,-4.4 -2.0079,-5.5 -0.4434,-1.1 -1.5599,-4.025 -2.4812,-6.5 -1.636,-4.39502 -2.1988,-5.74652 -6.2466,-15 -1.0827,-2.475 -2.8226,-6.50922 -3.8664,-8.96493 -1.0438,-2.45571 -5.5369,-11.68071 -9.9846,-20.5 C 1119.5885,422.48151 1073.8006,372.55579 1019,343.88453 c -11.7842,-6.1654 -32.13112,-13.86912 -44.25,-16.75386 -14.29329,-3.40232 -16.46941,-3.78645 -31.75,-5.60446 -22.78153,-2.71045 -45.50871,-1.19365 -66,4.40478 -13.32427,3.64034 -14.55095,4.04774 -26,8.63507 -25.20148,10.09756 -49.07046,24.4591 -75.33356,45.32686 -10.57634,8.4036 -37.15817,34.93648 -47.73374,47.64586 -49.57105,59.57285 -83.18948,131.86006 -100.35919,215.79489 -4.51397,22.06672 -8.73451,53.42119 -10.11654,75.15602 -0.34936,5.49433 -0.83272,10.30927 -1.07413,10.69987 -0.57123,0.92428 -0.59075,73.66219 -0.02,74.59759 0.23922,0.39207 0.70867,5.43785 1.0432,11.21285 2.05378,35.45335 8.83398,80.80298 18.61393,124.5 18.84226,84.1876 55.07008,179.9943 101.71813,269 6.34164,12.1 13.43963,25.375 15.77332,29.5 2.3337,4.125 5.22037,9.2404 6.41484,11.3677 1.19447,2.1272 1.97132,4.0681 1.72634,4.313 -0.47466,0.4747 -7.29115,-8.4766 -17.65238,-23.1807 -3.48801,-4.95 -7.54002,-10.575 -9.00447,-12.5 -6.06274,-7.9694 -39.0689,-58.1845 -45.49574,-69.2166 -0.55,-0.9441 -4.21156,-7.0191 -8.13679,-13.5 -3.92524,-6.4809 -8.02488,-13.3584 -9.11031,-15.2834 -1.08543,-1.925 -3.38637,-5.8823 -5.1132,-8.794 -1.72684,-2.9117 -3.1397,-5.4751 -3.1397,-5.6964 0,-0.2214 -1.52873,-3.0141 -3.39719,-6.206 C 651.29266,1083.3986 616,1013.0817 616,1010.4372 c 0,-0.2079 -1.07461,-2.7538 -2.38802,-5.6576 -1.31341,-2.9038 -3.29685,-7.3046 -4.40764,-9.7796 -2.58985,-5.77056 -18.19102,-44.70358 -19.23446,-48 -0.43524,-1.375 -2.20891,-6.325 -3.94149,-11 -4.45941,-12.03283 -14.90765,-43.83024 -19.05807,-58 -0.72494,-2.475 -1.63629,-4.87396 -2.02522,-5.33102 -2.01305,-2.3657 -53.433,29.01075 -78.56067,47.93771 -83.61976,62.98508 -142.03286,143.12861 -166.8303,228.89331 -5.49833,19.0166 -8.11614,34.1816 -10.01204,58 -1.1371,14.2855 -1.13737,19.6347 -0.002,33.5 1.56942,19.1611 1.75342,20.3761 5.5655,36.75 2.51266,10.7926 9.60155,29.5572 15.77224,41.75 12.99538,25.6777 31.22765,45.4502 58.37349,63.3047 10.36155,6.8151 34.22524,19.1953 37.00017,19.1953 0.74153,0 1.77573,0.4126 2.29823,0.9168 0.90407,0.8725 19.59911,7.4412 25.95,9.1179 1.65,0.4356 5.475,1.4646 8.5,2.2867 10.01057,2.7206 32.53334,6.9694 43,8.1116 21.20692,2.3144 32.24301,2.7471 58,2.2745 15.675,-0.2877 32.1,-1.019 36.5,-1.6252 4.4,-0.6061 11.6,-1.5689 16,-2.1395 11.81899,-1.5326 19.56992,-2.8403 33.5,-5.6522 19.92039,-4.021 22.11319,-4.536 41.5,-9.7458 11.15893,-2.9987 35.34114,-10.5635 40,-12.5129 1.1,-0.4603 4.475,-1.7381 7.5,-2.8395 7.19501,-2.6197 28.59899,-10.9706 32.75,-12.7776 1.7875,-0.7782 4.9375,-2.1424 7,-3.0317 19.65403,-8.4746 52.74421,-25.2238 75.25,-38.0893 22.12166,-12.6459 57.54789,-35.6373 76.047,-49.3541 26.16965,-19.4044 36.61467,-27.5803 54.79298,-42.8895 6.23699,-5.2526 13.33146,-11.2007 15.7655,-13.218 15.6075,-12.9351 47.5618,-43.618 74.3945,-71.4343 11.8147,-12.2478 39.0368,-42.3775 46.5,-51.4667 1.1,-1.3396 5.3951,-6.4847 9.5448,-11.4335 17.531,-20.9072 35.7697,-44.4111 60.5247,-77.9977 8.9394,-12.1286 35.8331,-51.47113 36.7929,-53.8241 0.2698,-0.66144 0.5142,-0.46409 0.5587,0.4511 0.087,1.78952 -8.3957,25.64789 -14.7096,41.373 -12.7703,31.8052 -38.0707,84.5087 -55.6861,116 -35.7766,63.9586 -76.9324,123.5807 -120.4534,174.5 -15.8826,18.5826 -18.1031,20.9879 -38.57198,41.7829 -9.9,10.0577 -18.12157,18.8335 -18.27015,19.5019 -0.24237,1.0903 8.54735,5.7152 10.86177,5.7152 0.51453,0 1.71691,0.4167 2.67195,0.9259 8.95231,4.7735 60.43201,22.1929 88.73641,30.026 6.05,1.6743 12.35,3.4535 14,3.9538 4.4536,1.3504 29.4236,7.3576 42.25,10.1643 2.3375,0.5115 6.1625,1.3555 8.5,1.8756 4.8191,1.0722 5.8884,1.2741 21.75,4.1066 43.1427,7.7045 79.6365,11.4551 124.5,12.7954 2.75,0.082 14.45,-0.3069 26,-0.8647 z m 1890,-389.5765 c -19.6421,-1.9706 -32.4851,-7.2968 -43.0585,-17.8568 -7.6872,-7.6776 -11.7574,-14.902 -15.2393,-27.0496 C 3146.8691,973.89428 3146,957.02008 3146,872.07894 v -71.04627 l -26.75,-0.26634 -26.75,-0.26633 -0.2725,-18.23414 -0.2725,-18.23414 27.7725,-0.26586 L 3147.5,763.5 3148,731.10824 c 0.4238,-27.45365 0.7287,-32.50493 2,-33.13411 0.825,-0.40829 2.625,-1.22588 4,-1.81686 2.8349,-1.21846 37.6994,-12.84175 40,-13.33541 1.3075,-0.28056 1.5642,4.87445 2,40.17814 l 0.5,40.5 32.25,0.26385 32.25,0.26386 V 782.51385 801 h -32.564 -32.5641 l 0.3933,80.75 c 0.3829,78.61391 0.4495,80.95349 2.518,88.44238 4.2154,15.26142 9.9926,22.62975 21.1375,26.95886 9.9662,3.87126 27.2372,2.74715 41.3293,-2.69002 1.6298,-0.62883 1.75,0.66031 1.75,18.77208 v 19.4473 l -5.25,1.0945 c -2.8875,0.602 -7.7007,1.5863 -10.6959,2.1873 -5.7968,1.1632 -29.8731,2.1143 -36.5541,1.444 z m 957.5,-1.9626 c -12.9702,-2.0401 -17.0394,-3.2855 -29.25,-8.952 -6.0019,-2.7852 -16.5954,-11.514 -21.5778,-17.7793 -9.7936,-12.31566 -15.3694,-25.07186 -19.9811,-45.7125 l -2.5695,-11.5 -0.3626,-93.75 -0.3626,-93.75 H 4118.4482 4143 l 0.1948,79.25 c 0.1071,43.5875 0.2667,80.375 0.3547,81.75 0.6901,10.79069 1.9851,18.4076 5.3581,31.51548 1.7702,6.87888 7.7149,17.14455 13.4874,23.29044 10.2501,10.91325 30.1921,16.72206 48.5544,14.14314 32.9384,-4.62609 51.7356,-25.89985 60.2804,-68.22255 1.9528,-9.67192 2.0872,-14.3345 2.4797,-85.97651 l 0.415,-75.75 h 24.4187 24.4187 l 0.5431,2.25 c 0.2987,1.2375 0.4198,61.65 0.269,134.25 l -0.274,132 -22.75,0.2688 -22.75,0.2687 v -24.4873 c 0,-21.35577 -0.1918,-24.41382 -1.5,-23.91183 -0.825,0.31659 -1.5,1.01642 -1.5,1.55519 0,1.93522 -10.4315,16.01804 -16.4047,22.14674 -12.2937,12.6137 -25.6698,20.404 -42.5953,24.8077 -6.7425,1.7542 -24.5692,3.8345 -32,3.7341 -4.125,-0.056 -11.325,-0.7029 -16,-1.4383 z m -1228.5,-0.039 c -14.8255,-1.1107 -33.5103,-4.7848 -47.6383,-9.3674 -10.35,-3.3572 -9.9782,-2.6842 -8.8586,-16.0371 0.5304,-6.325 0.9717,-15.4375 0.9806,-20.25 0.01,-4.8125 0.2571,-8.75 0.5515,-8.75 0.2943,0 1.5318,0.64241 2.75,1.42757 3.1482,2.02917 20.9311,8.97066 29.2148,11.40389 19.5249,5.73517 45.1258,7.41524 58.5,3.83911 14.3467,-3.83619 26.0189,-11.9068 30.8141,-21.30611 3.5087,-6.8777 4.7468,-15.27448 3.2468,-22.01931 -3.816,-17.15793 -12.0531,-24.18 -52.6273,-44.86419 -49.8318,-25.40363 -64.7471,-40.50042 -69.323,-70.16674 -1.1259,-7.2996 -0.2769,-18.462 2.0014,-26.31422 2.2489,-7.7509 7.5017,-16.61303 13.8116,-23.30186 14.7054,-15.58852 32.888,-23.89369 60.8168,-27.77904 11.9784,-1.66639 43.9221,-0.53102 57.2596,2.03516 11.6174,2.23524 16.6967,3.32366 19,4.07149 1.375,0.44643 3.8475,1.10944 5.4944,1.47336 4.4316,0.97925 5.1903,2.019 4.9126,6.73167 -0.1384,2.34807 -0.5818,11.13172 -0.9854,19.51922 -0.4036,8.3875 -1.1315,15.25 -1.6176,15.25 -0.486,0 -2.5532,-0.84607 -4.5938,-1.88016 -5.7323,-2.90487 -24.7158,-8.74428 -34.7102,-10.67701 -11.6441,-2.25174 -37.8003,-2.56241 -45,-0.53449 -11.3273,3.19054 -20.821,9.91482 -24.7405,17.52345 -1.5798,3.06655 -2.0958,5.91484 -2.0958,11.56821 0,9.15766 2.1815,13.98711 9.6957,21.46498 6.7635,6.73079 16.0764,12.25554 43.005,25.51215 45.9957,22.64311 63.3513,38.15115 70.422,62.92527 2.0872,7.31272 2.3103,31.62906 0.3496,38.0976 -3.9435,13.0102 -8.7134,21.35735 -17.136,29.9871 -15.3206,15.6973 -32.7548,23.9876 -60,28.531 -8.6657,1.445 -34.4601,2.5637 -43.5,1.8864 z m 1752,0.021 c -18.1648,-1.7184 -31.117,-4.5591 -44,-9.6502 -52.7502,-20.8458 -82.4556,-71.69213 -79.0301,-135.2749 1.863,-34.57886 11.0289,-59.32996 30.8492,-83.30333 14.8732,-17.98956 43.5467,-35.4569 66.1809,-40.31605 17.9929,-3.86276 21.4753,-4.19632 44,-4.21465 23.8843,-0.0194 33.091,0.96824 49.7848,5.34076 15.1464,3.96722 15.2264,4.0122 15.1271,8.50637 -0.2872,13.00318 -3.5396,38.66267 -4.8293,38.10045 -11.0588,-4.82082 -18.2342,-7.58756 -23.3026,-8.98512 -31.9864,-8.81983 -64.6337,-4.54601 -87.9981,11.51974 -10.9661,7.54044 -23.3347,22.41865 -28.9732,34.85183 -13.1813,29.06558 -12.8719,65.42838 0.8072,94.87643 3.9802,8.56848 7.8759,14.05618 16.197,22.81617 16.0182,16.86293 37.6343,25.42014 64.6871,25.60775 17.3269,0.12017 32.1778,-2.96596 51.8291,-10.77047 5.131,-2.03778 9.5037,-3.53045 9.7171,-3.31705 0.7525,0.75252 2.4027,19.42997 2.7392,31.00277 l 0.3407,11.7155 -6.5631,2.1079 c -12.0248,3.8619 -21.1854,5.8977 -35.563,7.9032 -7.7765,1.0847 -35.7641,2.0729 -42,1.4829 z m -2565,-2.0175 c -29.5229,-1.7235 -56.137,-7.3052 -76,-15.9393 -1.65,-0.7173 -5.025,-2.0906 -7.5,-3.0519 -2.475,-0.9613 -5.6945,-2.5732 -7.1544,-3.5821 -1.4599,-1.0089 -2.8983,-1.8343 -3.1964,-1.8343 -1.2757,0 -13.2071,-7.5155 -19.4108,-12.2267 -17.0056,-12.91443 -27.6252,-24.17872 -38.9109,-41.2733 -12.7506,-19.31323 -21.4344,-42.10948 -25.1416,-66 -0.5974,-3.85 -1.5141,-9.7 -2.0371,-13 -1.2224,-7.71256 -1.2738,-45.02196 -0.074,-53.5 2.6178,-18.49429 3.1078,-21.08011 6.1584,-32.5 1.7027,-6.37403 5.7784,-18.68719 7.4475,-22.5 3.7738,-8.62043 7.952,-16.82982 10.5253,-20.68018 1.5365,-2.29909 2.7937,-4.45397 2.7937,-4.78861 0,-1.82189 15.0637,-20.23898 22.6675,-27.71362 14.8324,-14.58035 25.7609,-22.55712 42.6075,-31.09929 15.4029,-7.8102 27.8516,-12.49188 43.0403,-16.18657 37.6765,-9.16489 89.6445,-8.72705 127.1847,1.07155 2.75,0.7178 6.125,1.58826 7.5,1.93437 2.8237,0.71075 4.8094,1.45111 10.3845,3.87172 l 3.8846,1.68659 -0.6284,6.20202 c -0.3456,3.41111 -0.9259,13.06452 -1.2896,21.45202 -0.4604,10.62057 -1.0171,15.25 -1.8337,15.25 -0.6449,0 -4.0069,-1.15169 -7.4711,-2.55932 -3.4642,-1.40762 -11.7543,-4.13064 -18.4224,-6.05115 -52.4477,-15.10559 -106.35,-9.3492 -143.5074,15.32557 -10.4706,6.95315 -27.9584,24.19016 -34.2765,33.7849 -13.8606,21.04904 -19.9203,38.65886 -23.3996,68 -2.1247,17.91764 -1.7766,28.46076 1.6838,51 7.5341,49.07164 39.7169,87.53472 86.1057,102.90854 20.2905,6.72451 30.0763,8.07447 58.2701,8.03838 29.1549,-0.0373 43.8199,-2.28735 69,-10.58648 5.5,-1.81275 10.4127,-3.31043 10.9171,-3.32818 1.1801,-0.0415 1.2764,1.08345 2.1557,25.16854 l 0.7374,20.2007 -2.4051,1.0078 c -6.318,2.6474 -31.9557,7.7552 -50.4051,10.0422 -8.7777,1.0881 -40.4864,2.0115 -50,1.4561 z m 1511.5,7e-4 c -41.7235,-2.1443 -77.7061,-12.9053 -106,-31.7004 -36.4428,-24.2083 -60.0485,-59.26862 -69.4886,-103.2079 -6.6901,-31.13925 -6.5495,-68.13538 0.3802,-100.06509 11.8107,-54.41882 46.9533,-96.99642 99.3834,-120.40947 3.7263,-1.66399 7.1538,-3.02544 7.6167,-3.02544 0.4629,0 3.0391,-0.85575 5.7249,-1.90166 5.6395,-2.1961 17.2896,-5.61221 22.3834,-6.56335 21.7029,-4.05252 36.7499,-5.51678 56.7894,-5.5263 10.0592,-0.005 22.6592,0.45356 28,1.01853 18.7761,1.98619 37.2929,5.62431 49.9308,9.81024 10.4932,3.47557 9.8708,2.50052 9.1358,14.31293 -0.3543,5.69228 -0.6986,14.84961 -0.7653,20.34961 -0.067,5.5 -0.5092,10.61225 -0.9834,11.36056 -0.7011,1.10655 -2.5184,0.76655 -9.7346,-1.82121 -13.3958,-4.80378 -13.3377,-4.7849 -21.3727,-6.94822 -18.8247,-5.06834 -30.4895,-6.51613 -52.5,-6.51613 -23.5417,0 -36.1145,1.75122 -54.2824,7.56084 -31.4833,10.06755 -58.4364,32.27539 -73.8691,60.86416 -4.7484,8.79627 -9.8601,22.24482 -12.163,32 -0.5843,2.475 -1.3406,5.625 -1.6808,7 -0.3401,1.375 -1.2582,7.9 -2.0403,14.5 -2.2952,19.37074 -1.8111,36.09552 1.6211,56 8.2935,48.09773 40.274,85.87864 85.5626,101.08152 4.2575,1.42918 13.1658,3.76069 19.7964,5.18114 11.2746,2.41535 13.772,2.58051 38.5555,2.54986 25.719,-0.0318 26.9446,-0.12476 41.5855,-3.15371 8.297,-1.71651 20.445,-4.89391 26.9956,-7.06089 6.5506,-2.16698 12.0424,-3.80777 12.2039,-3.64621 0.7459,0.74584 2.0941,45.06919 1.3922,45.77109 -1.1921,1.1921 -24.4048,6.7903 -34.1772,8.2425 -21.0288,3.125 -50.5777,4.8384 -68,3.943 z m -1355.531,-1.6405 c -0.2651,-0.6973 -0.3665,-90.5928 -0.2255,-199.7678 l 0.2565,-198.5 24.75,-0.26747 24.75,-0.26747 v 86.01747 c 0,54.45888 0.3532,86.01747 0.9627,86.01747 0.5295,0 2.8615,-2.8125 5.1822,-6.25 8.4683,-12.54371 21.4081,-24.09261 33.1904,-29.62267 11.8526,-5.5631 12.1195,-5.65791 26.1647,-9.29629 6.9415,-1.79819 41.2657,-1.76203 48,0.0506 15.1525,4.07847 22.6419,7.40345 31.6453,14.04926 18.388,13.57293 29.5804,35.5983 34.3981,67.69137 1.1653,7.76288 1.4421,26.66299 1.4677,100.22241 l 0.032,90.65532 -24.5213,0.2675 -24.5214,0.2674 v -82.07476 c 0,-51.75888 -0.3856,-84.73158 -1.0439,-89.26747 -2.5726,-17.72482 -4.2078,-23.51772 -9.7553,-34.55778 -6.0809,-12.10189 -18.6636,-21.95575 -32.2008,-25.2175 -6.9955,-1.68555 -26.819,-1.67332 -34,0.021 -9.1218,2.15222 -19.5744,7.89309 -27.1621,14.91811 -12.849,11.89616 -20.0338,25.59847 -24.9819,47.64357 -2.193,9.77028 -2.2574,11.81477 -2.8003,89 l -0.5557,79.00003 -24.2745,0.2678 c -18.8791,0.2083 -24.3817,-0.014 -24.7565,-1 z M 2588,898.49834 v -134.5366 l 22.25,0.26913 22.25,0.26913 0.5,26 c 0.2863,14.8873 0.8642,25.43598 1.352,24.68037 0.4687,-0.72579 2.4541,-4.55079 4.412,-8.5 4.7965,-9.67456 8.2702,-14.61912 16.1051,-22.92447 9.9006,-10.49514 22.1478,-18.01552 34.7986,-21.36807 5.9891,-1.58714 26.5766,-2.5427 36.0788,-1.67458 l 5.2466,0.47931 -0.059,8.65372 c -0.064,9.33507 -1.7291,37.28236 -2.2526,37.80588 -0.1755,0.17552 -3.4381,-0.3416 -7.2502,-1.14915 -14.9727,-3.17186 -33.072,-0.52838 -46.431,6.78145 -16.3993,8.97341 -28.9983,27.27746 -34.0936,49.53165 -3.5182,15.36642 -3.9027,25.04948 -3.8781,97.68389 l 0.024,72 -24.5263,0.2675 -24.5264,0.2674 V 898.49834 Z m 186.4683,133.26946 c -0.2654,-0.6973 -0.3668,-61.1178 -0.2254,-134.2678 l 0.2571,-133 24.7536,-0.26748 24.7536,-0.26747 -0.2536,134.26747 -0.2536,134.26748 -24.2745,0.2678 c -18.8788,0.2083 -24.3818,-0.014 -24.7572,-1 z M 3794,833 V 632.96506 l 24.75,0.26747 24.75,0.26747 v 85.75012 c 0,47.16257 0.3123,85.75007 0.6939,85.75 0.3816,-7e-5 3.2659,-3.41758 6.4096,-7.59448 15.5032,-20.59896 31.6259,-31.15965 56.6456,-37.10404 9.1845,-2.18213 41.2661,-2.45914 49.7509,-0.42958 19.4979,4.6639 31.501,11.61874 43.243,25.0559 13.16,15.05984 19.6706,32.4417 23.7334,63.36293 0.6317,4.80839 1.0236,41.66101 1.0236,96.26747 v 88.47658 l -24.4429,-0.2674 -24.4429,-0.2675 -0.4231,-85 c -0.365,-73.30179 -0.6481,-86.16982 -2.0569,-93.5 -5.5354,-28.80041 -16.2149,-43.54293 -36.6933,-50.65292 -6.528,-2.26651 -9.0971,-2.59014 -20.9409,-2.63796 -14.4379,-0.0583 -21.3938,1.4163 -31.9758,6.77863 -16.5582,8.39066 -29.8552,26.95183 -35.8283,50.01225 -3.6151,13.95679 -3.6315,14.33141 -4.1659,95 l -0.53,80 -24.75,0.2675 -24.75,0.2674 z m 608,65.51747 V 764 h 22.5 22.5 v 26 c 0,14.3 0.3673,26 0.8161,26 0.4489,0 2.1364,-2.79452 3.75,-6.21005 4.8504,-10.2666 11.9158,-20.29162 19.8731,-28.19737 9.8046,-9.74123 17.8163,-14.39069 34.0608,-19.76668 4.757,-1.5743 37.9942,-1.82094 39.2816,-0.29148 0.8041,0.95533 -0.2003,45.21765 -1.0453,46.06261 -0.241,0.241 -3.6847,-0.24474 -7.6526,-1.07943 -20.4954,-4.31134 -43.5074,1.64776 -57.9312,15.00169 -11.9911,11.10161 -19.6844,26.03086 -23.5593,45.71801 -3.0185,15.3355 -3.6386,32.47472 -3.5736,98.7627 l 0.065,66.5 -24.5424,0.2675 -24.5424,0.2674 V 898.51747 Z m 425,-65.5 V 633 h 25 25 v 86 c 0,47.3 0.3375,85.99653 0.75,85.9923 0.4125,-0.004 1.723,-1.69174 2.9122,-3.75 6.8605,-11.87437 23.5429,-26.94689 36.6375,-33.10202 16.3091,-7.66613 26.1797,-9.64028 48.2003,-9.64028 19.4097,0 27.0234,1.11485 38.25,5.60092 14.622,5.84283 27.4774,16.44749 36.088,29.76967 3.9167,6.05998 9.6775,18.67178 11.2502,24.62941 1.5661,5.93288 3.7357,16.12283 4.8034,22.56004 0.7272,4.38439 1.0984,37.21783 1.1193,99 l 0.031,92.43996 -24.5211,0.2675 -24.521,0.2674 -0.026,-80.76743 C 5007.96,907.84536 5007.5161,867.225 5006.9876,862 c -3.268,-32.31358 -15.9609,-51.75686 -38.5988,-59.1265 -5.7132,-1.85989 -9.1073,-2.24008 -19.8888,-2.22784 -11.2145,0.0127 -14.1674,0.37757 -21.5,2.65632 -24.452,7.59899 -41.2697,29.48094 -48.1876,62.69802 -0.7746,3.71902 -1.3344,31.56711 -1.7289,86 l -0.5835,80.5 -24.75,0.2675 -24.75,0.2674 z M 2774.4565,689.74715 c -0.272,-0.70869 -0.3734,-11.85422 -0.2255,-24.76784 L 2774.5,641.5 h 24.5 24.5 v 24.5 24.5 l -24.2745,0.26783 c -19.0791,0.21051 -24.3804,-0.008 -24.769,-1.02068 z M 4338,666.94051 c -10.264,-0.74392 -21.001,-2.66723 -20.9984,-3.76141 0.01,-2.69477 4.1754,-39.68943 4.5103,-40.02433 0.2332,-0.23319 1.9009,0.1991 3.706,0.96063 2.2496,0.94901 7.5291,1.3846 16.7821,1.3846 12.9066,0 13.751,-0.12717 19.211,-2.89318 8.1412,-4.12427 15.883,-11.43608 22.2661,-21.02928 5.9096,-8.88152 18.1328,-33.37719 19.1213,-38.31943 0.4621,-2.31078 -3.7279,-14.92813 -18.5543,-55.87147 -10.5332,-29.08765 -20.0272,-55.24914 -21.0977,-58.13664 -1.0705,-2.8875 -2.8464,-7.725 -3.9464,-10.75 l -4,-11 -4,-11 c -1.1,-3.025 -2.861,-7.8625 -3.9133,-10.75 -1.0523,-2.8875 -3.7435,-10.31579 -5.9805,-16.50732 -2.237,-6.19152 -5.8301,-16.09152 -7.9846,-22 -2.1546,-5.90847 -5.3525,-14.79268 -7.1065,-19.74268 -2.9944,-8.45078 -4.8384,-13.54878 -14.8298,-41 -2.2021,-6.05 -4.9506,-13.62063 -6.108,-16.82363 -1.1574,-3.20299 -1.8467,-6.24049 -1.5318,-6.75 0.6073,-0.98266 48.2347,-1.33168 50.7361,-0.3718 0.8682,0.33315 6.1569,14.80634 13.2462,36.25 37.9052,114.65513 49.7049,150.43415 54.5572,165.42873 2.9783,9.20332 5.8175,16.60665 6.3095,16.45184 0.8515,-0.26794 14.5994,-41.49522 43.5791,-130.68514 22.9175,-70.53249 28.2972,-86.48076 29.4262,-87.23469 1.2418,-0.82924 47.9759,-1.05632 48.7951,-0.23709 0.2905,0.29052 -1.1297,4.90302 -3.1561,10.25 -2.0264,5.34698 -4.8612,13.09678 -6.2994,17.22178 -1.4383,4.125 -4.0332,11.325 -5.7665,16 -1.7333,4.675 -3.5165,9.625 -3.9628,11 -0.4462,1.375 -2.6912,7.675 -4.9887,14 -2.2975,6.325 -4.5521,12.625 -5.0101,14 -0.458,1.375 -2.2583,6.325 -4.0007,11 -1.7423,4.675 -3.9971,10.975 -5.0106,14 -1.0135,3.025 -3.2537,9.325 -4.9783,14 -5.0533,13.69855 -7.0363,19.21531 -8.6267,24 -0.8226,2.475 -1.8777,5.4 -2.3444,6.5 -0.4668,1.1 -1.3896,3.575 -2.0506,5.5 -0.661,1.925 -1.5838,4.4 -2.0506,5.5 -0.4667,1.1 -1.5167,4.025 -2.3331,6.5 -0.8164,2.475 -2.8938,8.325 -4.6163,13 -1.7225,4.675 -3.7999,10.525 -4.6163,13 -0.8164,2.475 -1.8891,5.4 -2.3837,6.5 -0.4946,1.1 -1.5673,4.025 -2.3837,6.5 -0.8164,2.475 -2.8897,8.325 -4.6073,13 -5.3443,14.54627 -7.0675,19.34741 -8.614,24 -0.8226,2.475 -1.9004,5.4 -2.395,6.5 -0.4946,1.1 -1.5673,4.025 -2.3837,6.5 -0.8164,2.475 -2.9043,8.325 -4.6396,13 -1.7354,4.675 -3.5249,9.625 -3.9767,11 -0.4518,1.375 -2.2413,6.325 -3.9767,11 -1.7353,4.675 -3.8547,10.51953 -4.7096,12.98785 -2.0717,5.98109 -6.4536,15.73123 -11.4656,25.51215 -20.5836,40.16902 -47.3096,55.59612 -90.8481,52.44051 z M 3149.5,556.25501 c -5.6238,-0.44239 -24.2135,-4.10714 -29,-5.71703 -23.1076,-7.77195 -39.0635,-18.3583 -53.5632,-35.53798 -15.5204,-18.38897 -24.6442,-39.68412 -29.5503,-68.97137 -2.1976,-13.11848 -2.239,-50.17621 -0.069,-62.02863 6.1777,-33.74682 16.9185,-55.29909 37.4376,-75.1216 22.4992,-21.73535 46.1373,-31.38593 79.7452,-32.55703 34.4361,-1.19996 60.1465,7.32008 81.0243,26.85026 10.9475,10.2408 20.6649,24.71008 26.5805,39.57837 0.4924,1.2375 1.3076,3.2625 1.8117,4.5 0.5041,1.2375 1.1997,3.375 1.5459,4.75 0.3461,1.375 1.2303,4.75 1.9649,7.5 1.323,4.95289 2.7132,12.40978 4.4744,24 0.5015,3.3 0.9706,14.66023 1.0426,25.24495 l 0.1308,19.24494 -95.2876,0.25506 -95.2875,0.25505 0.3101,5 c 1.0275,16.56905 7.7657,36.11631 17.2358,50 9.3527,13.71176 29.0631,27.28205 45.9541,31.63863 23.7019,6.11327 49.6428,4.78819 77.6891,-3.96839 4.3285,-1.35142 20.0452,-8.1017 24.0804,-10.34243 l 3.2695,-1.81553 -0.2695,21.59919 -0.2695,21.59919 -6.5,2.46029 c -9.6553,3.6546 -27.0194,7.93358 -39.7884,9.80495 -10.3394,1.5153 -44.1067,2.61334 -54.7116,1.77911 z M 3226.2974,394.25 c 1.2987,-2.34505 -2.3019,-23.07045 -5.9327,-34.14796 -9.9491,-30.35528 -33.0124,-47.98384 -62.8647,-48.05107 -10.6962,-0.0241 -22.0137,2.56094 -30.876,7.0524 -18.5483,9.40042 -33.915,30.93917 -39.748,55.71274 -1.9171,8.14257 -3.6443,18.65521 -3.1928,19.43389 0.2392,0.4125 32.3317,0.75 71.3168,0.75 38.9851,0 71.0689,-0.3375 71.2974,-0.75 z M 2949.5,554.89017 c -21.0399,-4.15857 -29.628,-8.10254 -38.7883,-17.81294 -8.7582,-9.2841 -12.5694,-17.42328 -16.8935,-36.07723 -2.1608,-9.3213 -2.2092,-11.10797 -2.576,-94.98167 -0.2817,-64.39856 -0.6659,-85.67173 -1.558,-86.25224 -0.6513,-0.42381 -12.2092,-0.75506 -25.6842,-0.73612 -13.475,0.0189 -25.2875,0.0199 -26.25,0.002 -1.6003,-0.0294 -1.75,-1.56319 -1.75,-17.92522 0,-15.75035 0.1988,-17.96931 1.6603,-18.53014 0.9132,-0.35042 12.9507,-0.60931 26.75,-0.5753 13.7994,0.034 25.6522,0.0476 26.3397,0.0301 0.9736,-0.0247 1.25,-7.19078 1.25,-32.40926 0,-24.72969 0.2953,-32.60151 1.25,-33.32571 0.6875,-0.52149 3.5,-1.66837 6.25,-2.54863 2.75,-0.88026 12.8699,-4.29387 22.4887,-7.58578 9.6188,-3.29192 17.8313,-5.77358 18.25,-5.5148 0.4187,0.25878 0.7613,18.66896 0.7613,40.9115 0,31.67505 0.2709,40.44548 1.25,40.46173 0.6875,0.0114 14.975,0.12391 31.75,0.25 l 30.5,0.22925 v 18.29153 18.29154 l -31.5,0.20846 -31.5,0.20847 -0.294,79 c -0.2907,78.11508 -0.075,84.89609 2.9868,94 4.2236,12.55726 11.2872,20.18816 21.8072,23.55837 8.7048,2.7887 26.0869,1.40875 37.3151,-2.96244 1.5483,-0.60276 3.0108,-1.09593 3.25,-1.09593 0.2392,0 0.4349,8.74468 0.4349,19.43261 0,17.63623 -0.1618,19.4822 -1.75,19.96906 -11.2099,3.43628 -45.2405,5.56571 -55.75,3.4885 z m -607,-0.93225 c -10.796,-0.85812 -16.2848,-2.08605 -25.2501,-5.6488 -13.5766,-5.3952 -23.9892,-13.18661 -32.1877,-24.08489 C 2274.3426,509.9746 2270,495.95199 2270,475.58717 c 0,-15.88437 2.5579,-26.90493 9.3044,-40.08717 3.5303,-6.89799 20.7667,-24.68511 27.2262,-28.09604 2.1832,-1.15282 5.5974,-3.02423 7.5873,-4.15869 5.1753,-2.95066 21.1786,-8.77592 29.3821,-10.69522 10.8006,-2.52692 14.7017,-3.37885 18.5,-4.03994 9.057,-1.57641 27.83,-2.78061 52.5,-3.36764 l 27,-0.64247 0.3492,-3 c 0.8507,-7.30945 -3.1722,-26.90163 -7.435,-36.21 -6.072,-13.25884 -21.4044,-25.38054 -37.9142,-29.97481 -7.5063,-2.08882 -33.2914,-2.39954 -41.5,-0.50009 -17.6319,4.07999 -27.0403,7.47036 -42.8325,15.4349 -5.1801,2.6125 -9.587,4.75 -9.793,4.75 -0.206,0 -0.3745,-9.02822 -0.3745,-20.06272 v -20.06271 l 6.25,-2.83115 c 13.3333,-6.03977 32.9326,-11.46328 51.25,-14.18185 12.1905,-1.80925 47.8001,-1.79609 57,0.0211 38.0212,7.50994 60.782,29.3736 69.8715,67.11736 4.5261,18.79414 4.7104,23.6754 4.4117,116.79171 l -0.2832,88.29171 -22,10e-4 -22,0.001 -0.5,-20.79277 c -0.3212,-13.35827 -0.8573,-20.614 -1.4993,-20.29278 -0.5496,0.275 -2.5132,2.525 -4.3635,5 -15.3082,20.47608 -36.8447,33.84751 -62.6372,38.88966 -7.069,1.3819 -24.3993,1.91086 -35,1.06826 z M 2381,518.8898 c 22.5544,-3.54193 40.9318,-16.94704 51.2495,-37.38315 4.4489,-8.81166 6.0554,-14.33231 8.2705,-28.41952 1.8228,-11.59295 1.9929,-32.17426 0.28,-33.88713 -0.8534,-0.85344 -6.9904,-1.20037 -21.25,-1.20128 -46.7108,-0.003 -72.3009,7.16819 -88.8684,24.90377 -12.9879,13.90355 -15.321,37.38616 -5.397,54.32019 6.1006,10.40979 20.8693,20.54587 32.2154,22.11007 5.0954,0.70246 17.7217,0.46447 23.5,-0.44295 z m 1261.5,35.07106 c -30.8369,-2.6233 -56.2785,-18.82544 -74.9184,-47.71086 -2.5732,-3.9875 -5.0991,-7.25 -5.6132,-7.25 -0.5482,0 -1.045,10.56197 -1.2015,25.54391 l -0.2669,25.54392 -20.75,-0.0222 c -11.4125,-0.0122 -21.425,-0.032 -22.25,-0.0439 -1.3282,-0.0193 -1.5,-22.86089 -1.5,-199.48711 V 151.06924 l 24.0079,-0.28462 c 13.2044,-0.15655 24.4616,-0.13223 25.016,0.054 0.6675,0.22424 0.9916,29.40993 0.9594,86.38397 -0.027,47.32493 0.151,86.245 0.3951,86.48906 0.244,0.24405 2.3673,-2.17874 4.7183,-5.38398 10.4515,-14.24881 24.5456,-26.117 38.5632,-32.47289 21.9067,-9.93297 55.1419,-11.58521 79.0978,-3.93223 30.5204,9.7501 55.2599,36.15649 67.0591,71.57741 1.6489,4.95 3.4769,11.25 4.0621,14 0.5852,2.75 1.4952,7.025 2.022,9.5 0.5269,2.475 1.5148,11.5875 2.1952,20.25 1.2573,16.00528 0.2229,40.39118 -2.1952,51.75 -0.5268,2.475 -1.4139,6.75 -1.9712,9.5 -2.7771,13.70348 -6.1608,23.14696 -13.6158,38 -10.9336,21.78379 -32.8139,42.90908 -53.0217,51.19232 -13.502,5.53452 -32.2386,7.84689 -50.7922,6.26854 z m 19.3649,-41.34825 c 12.7977,-4.32976 23.7568,-12.78749 32.7465,-25.27233 11.6156,-16.13161 16.9785,-35.30188 17.9995,-64.34028 0.7049,-20.04999 -0.8943,-35.78737 -5.1431,-50.61212 -8.3426,-29.1087 -26.1239,-49.24335 -48.9678,-55.4486 -6.5887,-1.78973 -25.4272,-1.80812 -33,-0.0322 -14.6217,3.42896 -28.8083,12.52077 -38.1333,24.43857 -5.3278,6.80914 -14.3667,23.6587 -14.3667,26.78119 0,0.81024 -0.3776,1.90067 -0.839,2.42317 -0.4615,0.5225 -1.4162,3.65 -2.1217,6.95 -0.7055,3.3 -1.6992,7.575 -2.2082,9.5 -1.5749,5.95619 -2.216,37.65212 -0.9709,48 1.0146,8.43236 3.6455,20.83013 5.6234,26.5 9.4959,27.21992 30.4012,48.08087 52.5164,52.40493 3.025,0.59146 6.4,1.28377 7.5,1.53846 5.1267,1.18701 22.4155,-0.47963 29.3649,-2.83078 z M 3903,554.00896 c -38.7506,-3.29866 -64.3298,-26.2088 -74.0412,-66.3155 C 3824.3741,468.75958 3824,459.79481 3824,368.86312 c 0,-77.17833 0.1564,-85.70917 1.5818,-86.25613 2.0633,-0.79176 44.7731,-0.79176 46.8364,0 1.4243,0.54654 1.5849,8.78695 1.6127,82.75 0.017,46.53375 0.4475,85.35257 0.9919,89.54677 2.4862,19.15403 8.731,34.12723 18.0272,43.22407 13.5134,13.22343 35.7549,18.01423 57.45,12.37466 29.7001,-7.72045 47.4217,-34.08569 52.4572,-78.04301 0.6061,-5.2904 1.0298,-37.68442 1.0346,-79.10249 0.01,-63.03394 0.1685,-70.20453 1.59,-70.75 2.0633,-0.79176 44.7731,-0.79176 46.8364,0 1.4315,0.5493 1.5818,13.28551 1.5818,134 0,73.36615 -0.3375,133.39939 -0.75,133.40719 -0.4125,0.008 -10.425,0.0433 -22.25,0.0789 l -21.5,0.0647 -0.5,-24.68576 c -0.4645,-22.93313 -0.6157,-24.55392 -2.1294,-22.82891 -0.8962,1.02126 -2.3261,3.23404 -3.1777,4.91728 -2.6235,5.18592 -14.0475,18.64884 -20.7877,24.49783 -6.1639,5.34887 -8.9669,7.28007 -17.2061,11.85445 -4.9949,2.77322 -19.6461,7.58873 -27.1991,8.93974 -8.2364,1.47326 -25.2629,2.02793 -35.5,1.1565 z m -1785,-3.07703 c -26.8072,-2.89971 -39.8619,-5.53536 -57.3835,-11.58532 -25.4339,-8.78194 -44.7398,-20.58374 -63.4545,-38.79014 -13.3066,-12.94507 -20.4417,-21.59518 -26.0298,-31.55647 -12.1082,-21.58381 -18.3437,-39.08229 -22.0935,-62 -2.5354,-15.49616 -2.853,-20.70733 -2.5595,-42 0.4236,-30.73904 2.3576,-43.59416 10.215,-67.89955 2.1809,-6.74625 3.1867,-9.24205 8.1009,-20.10045 0.8711,-1.925 3.6008,-6.875 6.0658,-11 28.5909,-47.84451 76.3772,-77.30515 138.1391,-85.16394 15.3451,-1.95256 57.1662,-1.67129 72.7633,0.48937 13.7955,1.91109 25.8718,4.5452 37.8653,8.2593 12.3491,3.82422 11.7414,2.79178 10.4612,17.77197 -0.5994,7.01373 -1.0898,16.58848 -1.0898,21.27722 v 8.52499 l -3.2172,-0.70661 c -1.7694,-0.38864 -3.9069,-1.08367 -4.75,-1.54452 -4.1272,-2.25609 -24.9836,-8.28333 -39.4902,-11.41213 -6.6325,-1.43052 -27.5956,-3.47883 -35.6866,-3.48696 -44.4776,-0.0447 -80.192,13.28851 -106.9608,39.93161 -16.6956,16.61711 -27.6561,35.86736 -33.7885,59.34352 -3.5019,13.40626 -6.1207,33.10398 -6.0869,45.7839 0.018,6.69484 2.1597,28.23154 3.3919,34.10674 6.3226,30.14503 16.6755,50.44105 35.3469,69.29495 13.0395,13.16694 26.7924,22.31361 42.7414,28.42606 3.3,1.26473 6.9,2.6694 8,3.1215 1.1,0.4521 5.6,1.71091 10,2.79735 29.8682,7.37506 57.7523,7.69819 92,1.06614 9.6299,-1.86482 32.1402,-8.55766 34.2742,-10.19051 2.7397,-2.09632 2.725,-2.1966 3.7795,25.91406 l 0.7541,20.104 -2.4039,0.52536 c -1.3221,0.28895 -6.9039,1.67697 -12.4039,3.0845 -10.457,2.67609 -31.7357,6.30407 -42,7.16094 -12.6028,1.05208 -46.3675,1.3328 -54.5,0.45312 z m 448.4166,-0.8486 C 2566.1875,549.85417 2566,489.44167 2566,415.83333 V 282 h 22.5 22.5 v 23.5 c 0,18.89625 0.2608,23.5 1.331,23.5 0.7321,0 1.9696,-1.2375 2.75,-2.75 5.783,-11.20757 23.2503,-29.4577 34.419,-35.96158 16.6471,-9.69413 34.3878,-14.2488 55.5,-14.2488 17.7274,0 30.8594,2.77599 44.5442,9.41625 20.7399,10.06359 35.9728,30.79045 42.2911,57.54413 5.0982,21.58683 5.3263,27.117 4.9819,120.77235 l -0.3172,86.27235 -24.2504,0.22765 c -15.6461,0.14688 -24.2545,-0.12716 -24.262,-0.77235 -0.01,-0.55 -0.018,-35.65 -0.025,-78 -0.011,-59.10596 -0.3378,-79.90488 -1.4075,-89.5 -2.7273,-24.46354 -8.4498,-38.89886 -19.5639,-49.35087 -8.5319,-8.02356 -14.1213,-10.82238 -26.4907,-13.26465 -16.2033,-3.19928 -33.5702,-0.34506 -47.188,7.75527 -6.9696,4.14574 -18.9878,16.02284 -22.2103,21.94944 -8.7942,16.17409 -11.7118,25.11705 -14.3253,43.91081 -0.5951,4.27958 -1.3077,39.61303 -1.6597,82.28768 l -0.6167,74.78767 -23.8334,0.21233 c -13.1084,0.11677 -24.0209,0.0248 -24.25,-0.20435 z M 3329.3651,549.5 c -0.2086,-0.55 -0.2636,-60.85 -0.1222,-134 l 0.2571,-133 h 21.5 21.5 l 0.2676,25.46763 c 0.1472,14.00719 0.6272,25.82721 1.0667,26.26669 0.4395,0.43949 2.0842,-2.02095 3.6548,-5.46763 8.6698,-19.02529 24.8692,-36.43869 40.5581,-43.59765 13.0175,-5.93993 26.0305,-7.95927 42.4528,-6.58773 l 11,0.91869 -0.379,19 c -0.2084,10.45 -0.4984,20.8 -0.6443,23 -0.3015,4.54454 0.5425,4.37574 -12.9762,2.59493 -9.9585,-1.31183 -24.7228,0.0285 -32.0005,2.90497 -13.2537,5.23853 -22.9043,12.44572 -29.775,22.23633 -4.6411,6.61343 -10.725,18.60635 -10.725,21.14174 0,0.8272 -0.3893,1.74463 -0.8652,2.03873 -0.4759,0.2941 -1.1443,2.00816 -1.4853,3.80902 -0.3411,1.80085 -1.3653,6.42428 -2.2762,10.27428 -1.4479,6.11984 -1.7055,16.80135 -2.0493,84.95125 -0.2162,42.87319 -0.537,78.09505 -0.7127,78.27079 -0.8901,0.89011 -47.9064,0.67373 -48.2462,-0.22204 z m 804,0 c -0.2086,-0.55 -0.2636,-60.85 -0.1222,-134 l 0.2571,-133 h 21.5 21.5 l 0.2545,25 c 0.1399,13.75 0.5095,25.675 0.8213,26.5 0.3554,0.94037 2.2151,-1.80479 4.9848,-7.35791 13.8753,-27.82025 33.8834,-43.56224 60.7046,-47.76134 8.5556,-1.33945 30.7905,-0.4087 31.8675,1.33397 0.7385,1.19495 0.1743,31.5002 -0.7565,40.6357 -0.5294,5.19549 -0.6224,5.33231 -3.2107,4.72491 -16.7805,-3.9379 -35.9376,-2.03718 -49.3844,4.89981 -16.1476,8.33023 -26.6392,21.33363 -33.3555,41.3411 -5.8538,17.43832 -5.7716,16.10054 -6.1752,100.43376 -0.2047,42.7625 -0.6823,77.75524 -1.0613,77.76165 -29.4658,0.49807 -47.5142,0.30498 -47.824,-0.51165 z"
         id="path119"
         sodipodi:nodetypes="csssssssssssssssssssssssssssssssssssssssssssssssssssssssssssssscsssccssssssssssssssssssssssssssssssssssssssssssssssssssssssssssssssssssssssssssssssssssssssssscssssssssssssssssssssssssssssssssscsssssssssssscccccccssssscccccccssssscssssssscccccssssssscccsscccsssssssssscssssssssssssssssssssssssssssssssssssssssssssssscsssssssssssscsssssssssscsssssssssssssscsssssssssssssssssssssssssssssssssssssscccssssssssscccsssssssscsssccccsssssscsssssscccccsscccccssccccsssssssscccsssssssccccccccssssssssssscccccccccsssssssssscccsssssssccccsscccccssscssssssssscssssssssssssssssssssssssssssssssssssssssssssssscssssssssscccssssscccssssssssssssssssssssssssssssssscccccssssssssssssssssssscssssssscssssscccssssssssssssssssssscssscsssssssssssssssssssssssssssssssssssssssssssscssssscsssssssssssssssssssssscssssssssssssssscsssssscccsssssssscsccssssssscssssscccssssscsssssssssssssscccssssssssssss" />
    </g>
  </g>
</svg>
