<?xml version="1.0" encoding="UTF-8"?>
<svg xmlns="http://www.w3.org/2000/svg" width="640" height="640" xmlns:xlink="http://www.w3.org/1999/xlink" viewBox="0 0 640 640">
  <defs>
    <linearGradient id="linear-gradient" x1="355.43" y1="183.84" x2="384.58" y2="183.84" gradientUnits="userSpaceOnUse">
      <stop offset="0" stop-color="#006838"/>
      <stop offset="1" stop-color="#8dc63f"/>
    </linearGradient>
    <linearGradient id="linear-gradient-2" x1="311.53" y1="281.25" x2="423.25" y2="281.25" gradientUnits="userSpaceOnUse">
      <stop offset=".16" stop-color="#f26533"/>
      <stop offset=".83" stop-color="#fbad47"/>
    </linearGradient>
    <linearGradient id="linear-gradient-3" x1="213.53" y1="232.25" x2="310.67" y2="232.25" gradientUnits="userSpaceOnUse">
      <stop offset="0" stop-color="#f26533"/>
      <stop offset=".18" stop-color="#f37437"/>
      <stop offset=".72" stop-color="#f99d42"/>
      <stop offset="1" stop-color="#fbad47"/>
    </linearGradient>
    <linearGradient id="linear-gradient-4" x1="213.53" y1="256.57" x2="423.25" y2="256.57" gradientUnits="userSpaceOnUse">
      <stop offset="0" stop-color="#f26533"/>
      <stop offset=".07" stop-color="#f37236"/>
      <stop offset=".3" stop-color="#f89b41"/>
      <stop offset=".42" stop-color="#faab46"/>
      <stop offset="1" stop-color="#fbad47"/>
    </linearGradient>
  </defs>
  <g id="BACKGROUND">
    <rect x="107.41" y="107.24" width="425" height="425" rx="212.5" ry="212.5" style="fill: #e3e1ea;"/>
  </g>
  <g id="FOREGROUND">
    <g>
      <g>
        <path d="M63.58,354.07c0-2.03,1.05-3.15,3.07-3.15h24.37c2.03,0,3.15,1.12,3.15,3.15v2.1c0,2.03-1.12,3.08-3.15,3.08h-17.85v15.07h14.55c2.03,0,3.15,1.05,3.15,3.08v2.1c0,2.02-1.12,3.15-3.15,3.15h-14.55v18.38c0,2.1-1.05,3.15-3.08,3.15h-3.45c-2.02,0-3.07-1.05-3.07-3.15v-46.95Z" style="fill: #161126;"/>
        <path d="M106.33,354.07c0-2.03,1.05-3.15,3.08-3.15h14.4c5.25,0,7.87,.45,10.12,1.42,5.4,2.25,8.92,7.35,8.92,14.55,0,6.3-3.3,12.3-8.85,14.55v.15s.67,.83,1.72,2.78l8.78,16.05c1.27,2.17,.3,3.75-2.17,3.75h-4.05c-1.73,0-2.85-.67-3.67-2.17l-9.38-17.7h-9.3v16.72c0,2.1-1.05,3.15-3.08,3.15h-3.45c-2.03,0-3.08-1.05-3.08-3.15v-46.95Zm18.3,21.82c5.17,0,8.4-3.23,8.4-8.47,0-3.38-1.28-6.08-4.2-7.28-1.27-.6-2.92-.9-5.77-.9h-7.12v16.65h8.7Z" style="fill: #161126;"/>
        <path d="M157.8,354.07c0-2.03,1.05-3.15,3.08-3.15h3.38c2.1,0,3.15,1.12,3.15,3.15v30.9c0,7.2,4.65,11.25,11.77,11.25s11.85-4.05,11.85-11.25v-30.9c0-2.03,1.05-3.15,3.08-3.15h3.45c2.02,0,3.07,1.12,3.07,3.15v30.97c0,11.92-8.55,20.02-21.37,20.02s-21.45-8.1-21.45-20.02v-30.97Z" style="fill: #161126;"/>
        <path d="M217.9,354.07c0-2.03,1.05-3.15,3.07-3.15h3.45c2.02,0,3.08,1.12,3.08,3.15v46.95c0,2.1-1.05,3.15-3.08,3.15h-3.45c-2.02,0-3.07-1.05-3.07-3.15v-46.95Z" style="fill: #161126;"/>
        <path d="M256.5,359.24h-14.32c-2.1,0-3.15-1.05-3.15-3.08v-2.1c0-2.03,1.05-3.15,3.15-3.15h38.25c2.02,0,3.08,1.12,3.08,3.15v2.1c0,2.03-1.05,3.08-3.08,3.08h-14.32v41.77c0,2.1-1.05,3.15-3.15,3.15h-3.38c-2.02,0-3.07-1.05-3.07-3.15v-41.77Z" style="fill: #161126;"/>
        <path d="M293.66,354.37c-.53-2.1,.45-3.45,2.7-3.45h3.75c1.8,0,2.92,.9,3.38,2.78l7.72,34.05c.67,3,.83,5.62,.83,5.62h.15s.3-2.55,1.12-5.62l8.85-34.12c.53-1.8,1.65-2.7,3.53-2.7h2.55c1.88,0,3,.9,3.38,2.7l8.77,34.12c.83,3.08,1.12,5.62,1.12,5.62h.15s.22-2.62,.9-5.62l8.17-34.05c.38-1.88,1.5-2.78,3.45-2.78h3.52c2.25,0,3.3,1.35,2.78,3.45l-12.22,47.17c-.53,1.8-1.65,2.62-3.52,2.62h-5.33c-1.88,0-3-.9-3.45-2.7l-7.57-28.8c-.9-3.45-1.43-6.97-1.43-6.97h-.22s-.53,3.53-1.35,6.97l-7.65,28.8c-.45,1.8-1.57,2.7-3.45,2.7h-5.4c-1.88,0-3-.9-3.45-2.7l-11.77-47.1Z" style="fill: #161126;"/>
        <path d="M397.37,350.02c16.12,0,27.52,11.92,27.52,27.15s-11.4,27.9-27.52,27.9-27.52-12.22-27.52-27.9,11.4-27.15,27.52-27.15Zm0,46.2c10.2,0,17.55-8.25,17.55-19.05s-7.35-18.3-17.55-18.3-17.55,7.95-17.55,18.3,7.35,19.05,17.55,19.05Z" style="fill: #161126;"/>
        <path d="M439.56,354.07c0-2.03,1.05-3.15,3.08-3.15h14.4c5.25,0,7.88,.45,10.12,1.42,5.4,2.25,8.92,7.35,8.92,14.55,0,6.3-3.3,12.3-8.85,14.55v.15s.68,.83,1.73,2.78l8.77,16.05c1.27,2.17,.3,3.75-2.17,3.75h-4.05c-1.73,0-2.85-.67-3.67-2.17l-9.38-17.7h-9.3v16.72c0,2.1-1.05,3.15-3.07,3.15h-3.45c-2.03,0-3.08-1.05-3.08-3.15v-46.95Zm18.3,21.82c5.17,0,8.4-3.23,8.4-8.47,0-3.38-1.28-6.08-4.2-7.28-1.27-.6-2.92-.9-5.77-.9h-7.12v16.65h8.7Z" style="fill: #161126;"/>
        <path d="M491.96,354.07c0-2.03,1.05-3.15,3.08-3.15h3.45c2.02,0,3.07,1.12,3.07,3.15v18.52h6.97l11.25-19.5c.83-1.5,1.95-2.17,3.67-2.17h3.67c2.47,0,3.38,1.65,2.17,3.75l-12.9,21.6v.15l13.88,24c1.27,2.17,.3,3.75-2.18,3.75h-4.12c-1.73,0-2.85-.67-3.67-2.17l-11.78-21.07h-6.97v20.1c0,2.1-1.05,3.15-3.07,3.15h-3.45c-2.03,0-3.08-1.05-3.08-3.15v-46.95Z" style="fill: #161126;"/>
        <path d="M542,395.32l1.65-2.4c1.2-1.65,2.47-1.72,4.35-.67,1.73,1.2,5.55,3.9,10.8,3.9,4.95,0,7.95-2.48,7.95-6.08,0-10.12-24.82-8.02-24.82-24.6,0-9.38,7.8-15.45,17.92-15.45,6.3,0,11.47,2.4,13.72,4.05,1.65,1.2,1.88,2.62,.97,4.27l-1.35,2.47c-1.12,2.18-2.7,1.88-4.27,1.05-2.17-1.28-5.1-2.93-9.22-2.93-4.95,0-8.1,2.4-8.1,6,0,9.97,24.82,7.42,24.82,24.37,0,8.62-6.45,15.75-17.62,15.75-7.57,0-13.72-3.38-16.35-5.4-1.2-1.05-1.95-2.33-.45-4.35Z" style="fill: #161126;"/>
        <path d="M152.95,426.28c6.62,0,10.81,2.65,12.51,3.97,.64,.53,.64,1.17,.21,1.85l-.48,.69c-.48,.64-1.11,.69-1.8,.21-1.59-1.11-5.19-3.29-10.33-3.29-9.06,0-15,6.78-15,15.53s5.94,16.11,15.16,16.11c5.56,0,9.43-2.7,11.08-4.03,.64-.53,1.27-.53,1.8,.16l.48,.58c.53,.64,.48,1.27-.11,1.86-1.75,1.48-6.36,4.88-13.35,4.88-11.34,0-18.87-8.64-18.87-19.5s7.74-19.02,18.71-19.02Z" style="fill: #161126;"/>
        <path d="M195.34,426.28c10.92,0,18.97,8.32,18.97,19.02s-8.05,19.5-18.97,19.5-18.97-8.58-18.97-19.5,8.11-19.02,18.97-19.02Zm0,35.08c8.74,0,15.16-7,15.16-16.06s-6.41-15.58-15.16-15.58-15.16,6.73-15.16,15.58,6.47,16.06,15.16,16.06Z" style="fill: #161126;"/>
        <path d="M224.27,428.34c-.21-.9,.21-1.43,1.17-1.43h1.17c.74,0,1.22,.37,1.43,1.17l6.94,27.77c.48,1.91,.85,3.97,.85,3.97h.11s.37-2.07,.9-3.97l7.68-27.82c.21-.74,.69-1.11,1.43-1.11h1.22c.79,0,1.22,.37,1.43,1.11l7.63,27.82c.58,1.91,.95,3.97,.95,3.97h.11s.32-2.07,.8-3.97l7.26-27.77c.21-.79,.69-1.17,1.43-1.17h1.17c.9,0,1.38,.53,1.11,1.43l-9.22,34.71c-.21,.74-.69,1.11-1.48,1.11h-2.01c-.79,0-1.27-.37-1.48-1.11l-6.89-25.12c-.69-2.38-1.33-5.56-1.33-5.56h-.16s-.64,3.18-1.32,5.56l-6.94,25.12c-.21,.74-.69,1.11-1.43,1.11h-2.07c-.79,0-1.22-.37-1.43-1.17l-9.01-34.66Z" style="fill: #161126;"/>
        <path d="M297.99,426.28c10.92,0,18.97,8.32,18.97,19.02s-8.06,19.5-18.97,19.5-18.97-8.58-18.97-19.5,8.11-19.02,18.97-19.02Zm0,35.08c8.74,0,15.16-7,15.16-16.06s-6.41-15.58-15.16-15.58-15.16,6.73-15.16,15.58,6.46,16.06,15.16,16.06Z" style="fill: #161126;"/>
        <path d="M330.91,428.24c0-.85,.42-1.33,1.27-1.33h10.07c3.5,0,5.3,.37,6.78,1.06,3.34,1.59,5.51,4.82,5.51,9.33,0,5.04-2.86,9.12-7.05,10.28v.11s.37,.48,.95,1.48l7.26,13.46c.48,.9,.11,1.54-.9,1.54h-1.38c-.74,0-1.22-.32-1.54-.9l-7.95-14.79h-9.38v14.36c0,.85-.48,1.33-1.27,1.33h-1.11c-.85,0-1.27-.48-1.27-1.33v-34.6Zm12.51,16.96c4.5,0,7.37-3.13,7.37-7.79,0-2.97-1.43-5.41-3.92-6.52-1.06-.48-2.17-.69-4.88-.69h-7.42v15h8.85Z" style="fill: #161126;"/>
        <path d="M369.19,428.24c0-.85,.42-1.33,1.27-1.33h1.11c.8,0,1.27,.48,1.27,1.33v14.84h6.31l9.49-15.26c.37-.64,.85-.9,1.54-.9h1.33c1.06,0,1.43,.69,.9,1.59l-10.17,16v.11l10.92,18.02c.58,.85,.16,1.54-.85,1.54h-1.48c-.69,0-1.17-.26-1.54-.9l-10.12-16.9h-6.31v16.48c0,.85-.48,1.33-1.27,1.33h-1.11c-.85,0-1.27-.48-1.27-1.33v-34.6Z" style="fill: #161126;"/>
        <path d="M405.49,428.24c0-.85,.42-1.33,1.27-1.33h1.11c.79,0,1.27,.48,1.27,1.33v34.6c0,.85-.48,1.33-1.27,1.33h-1.11c-.85,0-1.27-.48-1.27-1.33v-34.6Z" style="fill: #161126;"/>
        <path d="M425.27,428.24c0-.85,.42-1.33,1.27-1.33h1.27c.69,0,1.17,.27,1.59,.85l18.44,25.97c1.27,1.85,3.07,5.03,3.07,5.03h.11s-.32-3.07-.32-5.03v-25.49c0-.85,.48-1.33,1.32-1.33h1.06c.85,0,1.27,.48,1.27,1.33v34.6c0,.85-.42,1.33-1.27,1.33h-1.27c-.69,0-1.17-.26-1.54-.85l-18.49-25.97c-1.27-1.86-3.07-5.04-3.07-5.04h-.11s.32,3.07,.32,5.04v25.49c0,.85-.48,1.33-1.27,1.33h-1.11c-.85,0-1.27-.48-1.27-1.33v-34.6Z" style="fill: #161126;"/>
        <path d="M487.1,426.28c6.36,0,10.65,2.44,12.24,3.55,.69,.53,.74,1.17,.21,1.8l-.48,.69c-.48,.69-1.11,.79-1.8,.32-1.59-1.01-5.09-2.92-10.07-2.92-9.01,0-15.1,6.94-15.1,15.74s6.31,15.9,14.79,15.9c7.47,0,11.76-5.46,11.76-5.46v-6.25h-5.09c-.85,0-1.27-.48-1.27-1.32v-.64c0-.85,.42-1.32,1.27-1.32h7.26c.85,0,1.27,.48,1.27,1.32v15.16c0,.85-.42,1.33-1.27,1.33h-.74c-.85,0-1.33-.48-1.33-1.17v-1.91c0-.69,.05-1.38,.05-1.38h-.11s-4.24,5.09-12.14,5.09c-10.23,0-18.28-8.21-18.28-19.24s8.05-19.29,18.81-19.29Z" style="fill: #161126;"/>
      </g>
      <g>
        <path d="M355.43,192.49s4.93-19.73,29.15-17.04c0,0-6.28,16.14-29.15,17.04Z" style="fill: url(#linear-gradient);"/>
        <path d="M367.39,312.61c-30.8,0-55.86-25.06-55.86-55.86,0-3.79,3.07-6.86,6.86-6.86s6.86,3.07,6.86,6.86c0,23.24,18.9,42.14,42.14,42.14s42.14-18.9,42.14-42.14c0-3.79,3.07-6.86,6.86-6.86s6.86,3.07,6.86,6.86c0,30.8-25.06,55.86-55.86,55.86Z" style="fill: url(#linear-gradient-2);"/>
        <path d="M220.39,263.61c-3.79,0-6.86-3.07-6.86-6.86,0-30.8,25.06-55.86,55.86-55.86,14.78,0,28.72,5.72,39.24,16.1,2.7,2.66,2.72,7,.06,9.7-2.66,2.7-7.01,2.72-9.7,.06-7.94-7.83-18.45-12.15-29.6-12.15-23.24,0-42.14,18.9-42.14,42.14,0,3.79-3.07,6.86-6.86,6.86Z" style="fill: url(#linear-gradient-3);"/>
        <path d="M269.39,312.43c-30.8,0-55.86-25.06-55.86-55.86h13.72c0,24.04,20.23,43.44,44.56,42.07,21.88-1.23,39.45-20.88,39.73-42.79,.38-30.47,25.29-55.15,55.86-55.15s55.86,25.06,55.86,55.86h-13.72c0-24.04-20.23-43.44-44.56-42.07-21.88,1.23-39.45,20.88-39.73,42.79-.38,30.47-25.29,55.15-55.86,55.15Z" style="fill: url(#linear-gradient-4);"/>
      </g>
    </g>
  </g>
</svg>