<?xml version="1.0" encoding="UTF-8" standalone="no"?>
<!-- Created with Inkscape (http://www.inkscape.org/) -->

<svg
   xmlns:dc="http://purl.org/dc/elements/1.1/"
   xmlns:cc="http://creativecommons.org/ns#"
   xmlns:rdf="http://www.w3.org/1999/02/22-rdf-syntax-ns#"
   xmlns:svg="http://www.w3.org/2000/svg"
   xmlns="http://www.w3.org/2000/svg"
   xmlns:sodipodi="http://sodipodi.sourceforge.net/DTD/sodipodi-0.dtd"
   xmlns:inkscape="http://www.inkscape.org/namespaces/inkscape"
   version="1.1"
   id="svg10"
   xml:space="preserve"
   width="834.92535"
   height="482.33334"
   viewBox="0 0 834.92535 482.33334"
   sodipodi:docname="logo_fruitworksco.svg"
   inkscape:version="0.92.4 (5da689c313, 2019-01-14)"><metadata
     id="metadata16"><rdf:RDF><cc:Work
         rdf:about=""><dc:format>image/svg+xml</dc:format><dc:type
           rdf:resource="http://purl.org/dc/dcmitype/StillImage" /><dc:title></dc:title></cc:Work></rdf:RDF></metadata><defs
     id="defs14"><linearGradient
       x1="0"
       y1="0"
       x2="1"
       y2="0"
       gradientUnits="userSpaceOnUse"
       gradientTransform="matrix(29.146484,0,0,-29.146484,349.78027,322.05762)"
       spreadMethod="pad"
       id="linearGradient36"><stop
         style="stop-opacity:1;stop-color:#006838"
         offset="0"
         id="stop32" /><stop
         style="stop-opacity:1;stop-color:#8cc63f"
         offset="1"
         id="stop34" /></linearGradient><clipPath
       clipPathUnits="userSpaceOnUse"
       id="clipPath46"><path
         d="m 294.231,290.136 -1.815,-1.807 c -2.135,-2.125 -2.549,-5.173 -0.927,-6.8 v 0 l 4.492,-4.508 c 1.623,-1.629 4.67,-1.223 6.803,0.903 v 0 l 1.815,1.807 c 2.134,2.127 2.549,5.172 0.927,6.799 v 0 l -4.492,4.51 c -0.671,0.673 -1.585,0.999 -2.578,0.999 v 0 c -1.408,0 -2.974,-0.655 -4.225,-1.903"
         id="path44"
         inkscape:connector-curvature="0" /></clipPath><linearGradient
       x1="0"
       y1="0"
       x2="1"
       y2="0"
       gradientUnits="userSpaceOnUse"
       gradientTransform="matrix(-16.449877,-0.8629036,3.6061027,16.802648,306.73437,284.46191)"
       spreadMethod="pad"
       id="linearGradient64"><stop
         style="stop-opacity:1;stop-color:#ffffff"
         offset="0"
         id="stop56" /><stop
         style="stop-opacity:1;stop-color:#ffffff"
         offset="0"
         id="stop58" /><stop
         style="stop-opacity:1;stop-color:#ffffff"
         offset="0"
         id="stop60" /><stop
         style="stop-opacity:1;stop-color:#ffffff"
         offset="1"
         id="stop62" /></linearGradient><mask
       maskUnits="userSpaceOnUse"
       x="0"
       y="0"
       width="1"
       height="1"
       id="mask66"><g
         id="g76"><g
           id="g74"><g
             id="g72"><g
               id="g70"><path
                 d="M -32768,32767 H 32767 V -32768 H -32768 Z"
                 style="fill:url(#linearGradient64);stroke:none"
                 id="path68"
                 inkscape:connector-curvature="0" /></g></g></g></g></mask><linearGradient
       x1="0"
       y1="0"
       x2="1"
       y2="0"
       gradientUnits="userSpaceOnUse"
       gradientTransform="matrix(-16.449877,-0.8629036,3.6061027,16.802648,306.73437,284.46191)"
       spreadMethod="pad"
       id="linearGradient90"><stop
         style="stop-opacity:1;stop-color:#fbad47"
         offset="0"
         id="stop82" /><stop
         style="stop-opacity:1;stop-color:#fbad47"
         offset="0"
         id="stop84" /><stop
         style="stop-opacity:1;stop-color:#fbad47"
         offset="0"
         id="stop86" /><stop
         style="stop-opacity:1;stop-color:#fbad47"
         offset="1"
         id="stop88" /></linearGradient><linearGradient
       x1="0"
       y1="0"
       x2="1"
       y2="0"
       gradientUnits="userSpaceOnUse"
       gradientTransform="matrix(85.386276,-71.647598,-71.647598,-85.386276,319.04102,284.979)"
       spreadMethod="pad"
       id="linearGradient114"><stop
         style="stop-opacity:1;stop-color:#f26533"
         offset="0"
         id="stop106" /><stop
         style="stop-opacity:1;stop-color:#f26533"
         offset="0.159509"
         id="stop108" /><stop
         style="stop-opacity:1;stop-color:#fbad47"
         offset="0.834356"
         id="stop110" /><stop
         style="stop-opacity:1;stop-color:#fbad47"
         offset="1"
         id="stop112" /></linearGradient><linearGradient
       x1="0"
       y1="0"
       x2="1"
       y2="0"
       gradientUnits="userSpaceOnUse"
       gradientTransform="matrix(208.78711,0,0,-208.78711,208.70312,249.17725)"
       spreadMethod="pad"
       id="linearGradient138"><stop
         style="stop-opacity:1;stop-color:#f26533"
         offset="0"
         id="stop130" /><stop
         style="stop-opacity:1;stop-color:#fbab46"
         offset="0.35597948"
         id="stop132" /><stop
         style="stop-opacity:1;stop-color:#fbab46"
         offset="0.423313"
         id="stop134" /><stop
         style="stop-opacity:1;stop-color:#fbad47"
         offset="1"
         id="stop136" /></linearGradient><linearGradient
       x1="0"
       y1="0"
       x2="1"
       y2="0"
       gradientUnits="userSpaceOnUse"
       gradientTransform="matrix(93.736328,0,0,-93.736328,208.77246,257.5332)"
       spreadMethod="pad"
       id="linearGradient160"><stop
         style="stop-opacity:1;stop-color:#f26533"
         offset="0"
         id="stop154" /><stop
         style="stop-opacity:1;stop-color:#fbad47"
         offset="0.8409368"
         id="stop156" /><stop
         style="stop-opacity:1;stop-color:#fbad47"
         offset="1"
         id="stop158" /></linearGradient><clipPath
       clipPathUnits="userSpaceOnUse"
       id="clipPath170"><path
         d="M 0,361.75 H 626.194 V 0 H 0 Z"
         id="path168"
         inkscape:connector-curvature="0" /></clipPath></defs><sodipodi:namedview
     pagecolor="#ffffff"
     bordercolor="#666666"
     borderopacity="1"
     objecttolerance="10"
     gridtolerance="10"
     guidetolerance="10"
     inkscape:pageopacity="0"
     inkscape:pageshadow="2"
     inkscape:window-width="2304"
     inkscape:window-height="1216"
     id="namedview12"
     showgrid="false"
     inkscape:zoom="2.0587422"
     inkscape:cx="417.46268"
     inkscape:cy="241.16667"
     inkscape:window-x="-11"
     inkscape:window-y="-11"
     inkscape:window-maximized="1"
     inkscape:current-layer="g18" /><g
     id="g18"
     inkscape:groupmode="layer"
     inkscape:label="fruitworksco__logo_vertical"
     transform="matrix(1.3333333,0,0,-1.3333333,0,482.33333)"><g
       id="g20"><g
         id="g22"><g
           id="g28"><g
             id="g30"><path
               d="m 349.78,313.411 c 22.869,0.897 29.147,17.041 29.147,17.041 v 0 c -1.546,0.172 -3.012,0.252 -4.404,0.252 v 0 C 354.104,330.703 349.78,313.411 349.78,313.411"
               style="fill:url(#linearGradient36);stroke:none"
               id="path38"
               inkscape:connector-curvature="0" /></g></g></g></g><g
       id="g40"><g
         id="g42"
         clip-path="url(#clipPath46)"><g
           id="g48"><g
             id="g50" /><g
             id="g78"
             mask="url(#mask66)"><g
               id="g80"><path
                 d="m 294.231,290.136 -1.815,-1.807 c -2.135,-2.125 -2.549,-5.173 -0.927,-6.8 v 0 l 4.492,-4.508 c 1.623,-1.629 4.67,-1.223 6.803,0.903 v 0 l 1.815,1.807 c 2.134,2.127 2.549,5.172 0.927,6.799 v 0 l -4.492,4.51 c -0.671,0.673 -1.585,0.999 -2.578,0.999 v 0 c -1.408,0 -2.974,-0.655 -4.225,-1.903"
                 style="fill:url(#linearGradient90);stroke:none"
                 id="path92"
                 inkscape:connector-curvature="0" /></g></g></g></g></g><g
       id="g94"><g
         id="g96"><g
           id="g102"><g
             id="g104"><path
               d="m 305.979,249.155 c 0,-30.744 25.01,-55.756 55.755,-55.756 v 0 c 30.744,0 55.756,25.012 55.756,55.756 v 0 c 0,30.744 -25.012,55.756 -55.756,55.756 v 0 c -30.745,0 -55.755,-25.012 -55.755,-55.756 m 13.8,0 c 0,23.134 18.822,41.955 41.955,41.955 v 0 c 23.134,0 41.956,-18.821 41.956,-41.955 v 0 c 0,-23.134 -18.822,-41.955 -41.956,-41.955 v 0 c -23.133,0 -41.955,18.821 -41.955,41.955"
               style="fill:url(#linearGradient114);stroke:none"
               id="path116"
               inkscape:connector-curvature="0" /></g></g></g></g><g
       id="g118"><g
         id="g120"><g
           id="g126"><g
             id="g128"><path
               d="m 305.979,249.145 c 0,-22.034 -18.686,-41.906 -41.82,-41.906 v 0 c -23.134,0 -41.955,20 -41.955,42.001 v 0 h -13.501 c 0,-30.001 24.712,-55.819 55.456,-55.819 v 0 c 30.744,0 55.62,26.344 55.62,55.724 v 0 c 0,23.506 18.822,42.002 41.955,42.002 v 0 c 23.134,0 41.956,-18.908 41.956,-41.907 v 0 h 13.8 c 0,30.999 -25.012,55.694 -55.756,55.694 v 0 c -30.745,0 -55.755,-24.937 -55.755,-55.789"
               style="fill:url(#linearGradient138);stroke:none"
               id="path140"
               inkscape:connector-curvature="0" /></g></g></g></g><g
       id="g142"><g
         id="g144"><g
           id="g150"><g
             id="g152"><path
               d="m 224.755,288.56 c -21.739,-21.741 -21.088,-57.112 0.651,-78.852 v 0 l 9.387,9.877 c -16.358,16.357 -16.637,42.857 -0.279,59.215 v 0 c 16.357,16.357 42.362,17.343 58.719,0.986 v 0 l 9.276,9.75 c -10.627,10.625 -24.245,15.824 -37.934,15.823 v 0 c -14.315,-10e-4 -28.706,-5.688 -39.82,-16.799"
               style="fill:url(#linearGradient160);stroke:none"
               id="path162"
               inkscape:connector-curvature="0" /></g></g></g></g><g
       id="g164"><g
         id="g166"
         clip-path="url(#clipPath170)"><g
           id="g172"
           transform="translate(55.7568,163.6338)"><path
             d="m 0,0 c 0,1.637 1.328,2.965 2.965,2.965 h 23.102 c 1.637,0 2.964,-1.328 2.964,-2.965 v -1.971 c 0,-1.636 -1.327,-2.964 -2.964,-2.964 h -15.9 c -0.546,0 -0.988,-0.443 -0.988,-0.988 v -12.325 c 0,-0.545 0.442,-0.988 0.988,-0.988 h 12.769 c 1.637,0 2.964,-1.327 2.964,-2.964 v -1.969 c 0,-1.637 -1.327,-2.965 -2.964,-2.965 H 10.167 c -0.546,0 -0.988,-0.442 -0.988,-0.988 v -16.469 c 0,-1.637 -1.328,-2.965 -2.965,-2.965 H 2.965 C 1.328,-47.556 0,-46.228 0,-44.591 Z"
             style="fill:#1d2124;fill-opacity:1;fill-rule:nonzero;stroke:none"
             id="path174"
             inkscape:connector-curvature="0" /></g><g
           id="g176"
           transform="translate(117.9399,142.9043)"><path
             d="m 0,0 c 4.91,0 7.97,2.917 7.97,7.969 0,4.839 -2.064,7.826 -9.249,7.826 h -5.987 c -0.546,0 -0.987,-0.443 -0.987,-0.988 V 0.988 C -8.253,0.442 -7.812,0 -7.266,0 Z m -17.432,20.729 c 0,1.637 1.327,2.965 2.964,2.965 h 13.33 c 5.479,0 7.969,-0.427 10.176,-1.423 5.05,-2.278 8.254,-7.116 8.254,-13.805 0,-5.669 -2.815,-10.963 -7.563,-13.363 C 9.27,-5.129 8.924,-5.648 9.233,-6.059 9.536,-6.457 9.961,-7.081 10.459,-7.971 l 8.958,-16.258 c 0.644,-1.168 -0.2,-2.597 -1.534,-2.597 h -4.316 c -1.818,0 -3.502,1.011 -4.357,2.617 L 1.035,-8.843 c -0.285,0.535 -0.846,0.872 -1.452,0.872 h -6.849 c -0.546,0 -0.987,-0.442 -0.987,-0.988 v -14.902 c 0,-1.637 -1.328,-2.965 -2.965,-2.965 h -3.25 c -1.637,0 -2.964,1.328 -2.964,2.965 z"
             style="fill:#1d2124;fill-opacity:1;fill-rule:nonzero;stroke:none"
             id="path178"
             inkscape:connector-curvature="0" /></g><g
           id="g180"
           transform="translate(153.2998,163.6338)"><path
             d="m 0,0 c 0,1.637 1.327,2.965 2.965,2.965 h 3.25 C 7.852,2.965 9.18,1.637 9.18,0 v -29.41 c 0,-6.76 4.41,-10.604 11.17,-10.604 6.759,0 11.242,3.844 11.242,10.674 V 0 c 0,1.637 1.328,2.965 2.965,2.965 h 3.25 c 1.636,0 2.964,-1.328 2.964,-2.965 v -29.41 c 0,-11.314 -8.183,-18.999 -20.351,-18.999 C 8.182,-48.409 0,-40.724 0,-29.41 Z"
             style="fill:#1d2124;fill-opacity:1;fill-rule:nonzero;stroke:none"
             id="path182"
             inkscape:connector-curvature="0" /></g><g
           id="g184"
           transform="translate(213.2764,163.6338)"><path
             d="M 0,0 C 0,1.637 1.327,2.965 2.965,2.965 H 6.213 C 7.851,2.965 9.178,1.637 9.178,0 v -44.591 c 0,-1.637 -1.327,-2.965 -2.965,-2.965 H 2.965 C 1.327,-47.556 0,-46.228 0,-44.591 Z"
             style="fill:#1d2124;fill-opacity:1;fill-rule:nonzero;stroke:none"
             id="path186"
             inkscape:connector-curvature="0" /></g><g
           id="g188"
           transform="translate(252.835,157.7109)"><path
             d="m 0,0 c 0,0.545 -0.442,0.988 -0.988,0.988 h -12.626 c -1.638,0 -2.964,1.327 -2.964,2.964 v 1.971 c 0,1.637 1.326,2.965 2.964,2.965 h 36.407 c 1.638,0 2.965,-1.328 2.965,-2.965 V 3.952 c 0,-1.637 -1.327,-2.964 -2.965,-2.964 H 10.166 C 9.621,0.988 9.179,0.545 9.179,0 v -38.668 c 0,-1.637 -1.327,-2.965 -2.965,-2.965 H 2.964 C 1.327,-41.633 0,-40.305 0,-38.668 Z"
             style="fill:#1d2124;fill-opacity:1;fill-rule:nonzero;stroke:none"
             id="path190"
             inkscape:connector-curvature="0" /></g><g
           id="g192"
           transform="translate(333.5908,131.6611)"><path
             d="M 0,0 C 0.487,-1.822 0.699,-3.452 0.807,-4.418 0.831,-4.632 1.141,-4.613 1.166,-4.398 1.286,-3.42 1.52,-1.779 1.919,0 l 7.638,32.054 c 0.402,1.687 1.917,2.884 3.653,2.884 h 3.534 c 1.503,0 2.6,-1.417 2.224,-2.871 L 7.426,-12.713 c -0.435,-1.685 -1.963,-2.87 -3.703,-2.87 h -4.672 c -1.743,0 -3.272,1.183 -3.711,2.869 l -7.01,27.015 c -0.747,2.864 -1.168,5.783 -1.263,6.468 -0.007,0.067 -0.022,0.151 -0.088,0.151 -0.068,0 -0.083,-0.084 -0.094,-0.151 -0.092,-0.685 -0.512,-3.604 -1.259,-6.468 l -7.012,-27.015 c -0.436,-1.686 -1.967,-2.869 -3.71,-2.869 h -4.672 c -1.739,0 -3.262,1.189 -3.685,2.877 l -11.224,44.767 c -0.366,1.461 0.737,2.877 2.243,2.877 h 3.536 c 1.731,0 3.238,-1.204 3.623,-2.891 L -27.965,0 c 0.401,-1.779 0.633,-3.42 0.752,-4.398 0.026,-0.215 0.338,-0.234 0.361,-0.02 0.108,0.966 0.32,2.596 0.809,4.418 l 8.359,32.068 c 0.441,1.686 1.969,2.87 3.711,2.87 h 2.042 c 1.741,0 3.269,-1.187 3.7,-2.873 z"
             style="fill:#1d2124;fill-opacity:1;fill-rule:nonzero;stroke:none"
             id="path194"
             inkscape:connector-curvature="0" /></g><g
           id="g196"
           transform="translate(391.0049,123.6201)"><path
             d="m 0,0 c 9.249,0 16.648,7.685 16.648,18.073 0,9.963 -7.399,17.363 -16.648,17.363 -9.253,0 -16.652,-7.4 -16.652,-17.363 C -16.652,7.685 -9.253,0 0,0 m 0,43.832 c 14.869,0 26.112,-11.314 26.112,-25.759 C 26.112,3.201 14.869,-8.396 0,-8.396 c -14.872,0 -26.117,11.597 -26.117,26.469 0,14.445 11.245,25.759 26.117,25.759"
             style="fill:#1d2124;fill-opacity:1;fill-rule:nonzero;stroke:none"
             id="path198"
             inkscape:connector-curvature="0" /></g><g
           id="g200"
           transform="translate(450.9805,142.9043)"><path
             d="m 0,0 c 4.91,0 7.97,2.917 7.97,7.969 0,4.839 -2.065,7.826 -9.249,7.826 h -5.988 c -0.545,0 -0.987,-0.443 -0.987,-0.988 V 0.988 C -8.254,0.442 -7.812,0 -7.267,0 Z m -17.434,20.729 c 0,1.637 1.329,2.965 2.964,2.965 h 13.332 c 5.477,0 7.967,-0.427 10.173,-1.423 5.052,-2.278 8.254,-7.116 8.254,-13.805 0,-5.669 -2.814,-10.963 -7.561,-13.363 -0.457,-0.232 -0.805,-0.751 -0.496,-1.162 0.301,-0.398 0.73,-1.022 1.227,-1.912 l 8.958,-16.258 c 0.643,-1.168 -0.2,-2.597 -1.535,-2.597 h -4.317 c -1.817,0 -3.501,1.011 -4.356,2.617 L 1.033,-8.843 c -0.283,0.535 -0.845,0.872 -1.452,0.872 h -6.848 c -0.545,0 -0.987,-0.442 -0.987,-0.988 v -14.902 c 0,-1.637 -1.328,-2.965 -2.965,-2.965 h -3.251 c -1.635,0 -2.964,1.328 -2.964,2.965 z"
             style="fill:#1d2124;fill-opacity:1;fill-rule:nonzero;stroke:none"
             id="path202"
             inkscape:connector-curvature="0" /></g><g
           id="g204"
           transform="translate(487.4775,163.6338)"><path
             d="M 0,0 C 0,1.637 1.326,2.965 2.965,2.965 H 6.213 C 7.852,2.965 9.177,1.637 9.177,0 v -16.61 c 0,-0.546 0.444,-0.989 0.989,-0.989 h 1.084 c 0.62,0 1.204,0.298 1.569,0.799 l 12.62,17.366 c 1.09,1.502 2.849,2.399 4.707,2.399 h 4.742 c 1.223,0 1.922,-1.397 1.19,-2.374 L 19.851,-21.086 v -0.142 l 17.13,-23.918 c 0.721,-1.006 10e-4,-2.41 -1.239,-2.41 h -5.098 c -1.853,0 -3.603,0.911 -4.665,2.43 l -13.174,18.818 c -0.354,0.506 -0.938,0.81 -1.555,0.81 h -1.084 c -0.545,0 -0.989,-0.443 -0.989,-0.988 v -18.105 c 0,-1.637 -1.325,-2.965 -2.964,-2.965 H 2.965 C 1.326,-47.556 0,-46.228 0,-44.591 Z"
             style="fill:#1d2124;fill-opacity:1;fill-rule:nonzero;stroke:none"
             id="path206"
             inkscape:connector-curvature="0" /></g><g
           id="g208"
           transform="translate(539.6016,126.624)"><path
             d="m 0,0 c 0.921,1.279 2.713,1.49 4.013,0.598 2.252,-1.549 5.978,-3.531 10.315,-3.531 3.843,0 7.328,1.993 7.328,6.121 0,9.036 -23.835,7.469 -23.835,22.981 0,8.396 7.258,14.659 16.933,14.659 6.07,0 10.345,-2.008 12.757,-3.576 1.461,-0.95 1.753,-2.91 0.933,-4.447 L 27.25,30.563 c -0.739,-1.386 -2.548,-1.633 -3.893,-0.82 -2.021,1.222 -5.112,2.616 -8.672,2.616 -4.271,0 -7.614,-2.488 -7.614,-6.047 0,-8.965 23.765,-6.759 23.765,-22.912 0,-8.04 -6.12,-14.799 -16.649,-14.799 -7.379,0 -12.583,2.971 -15.287,5.015 -1.336,1.01 -1.391,2.931 -0.412,4.29 z"
             style="fill:#1d2124;fill-opacity:1;fill-rule:nonzero;stroke:none"
             id="path210"
             inkscape:connector-curvature="0" /></g><g
           id="g212"
           transform="translate(143.3467,94.6475)"><path
             d="m 0,0 c 6.016,0 10.113,-2.214 12.221,-3.736 1.03,-0.744 1.153,-2.19 0.463,-3.259 l -0.889,-1.378 c -0.646,-0.999 -2.005,-1.15 -3.008,-0.509 -1.802,1.153 -4.82,2.629 -8.47,2.629 -7.947,0 -12.61,-5.934 -12.61,-12.929 0,-7.152 4.821,-13.458 12.664,-13.458 4.074,0 7.319,1.863 9.18,3.26 0.956,0.717 2.334,0.691 3.039,-0.273 l 0.996,-1.364 c 0.762,-1.041 0.656,-2.507 -0.347,-3.319 -2.231,-1.805 -6.689,-4.556 -13.134,-4.556 -11.497,0 -19.445,8.531 -19.445,19.605 C -19.34,-8.372 -11.074,0 0,0"
             style="fill:#1d2124;fill-opacity:1;fill-rule:nonzero;stroke:none"
             id="path214"
             inkscape:connector-curvature="0" /></g><g
           id="g216"
           transform="translate(186.4736,62.0078)"><path
             d="m 0,0 c 6.887,0 12.397,5.723 12.397,13.458 0,7.419 -5.51,12.929 -12.397,12.929 -6.89,0 -12.399,-5.51 -12.399,-12.929 C -12.399,5.723 -6.89,0 0,0 m 0,32.64 c 11.072,0 19.445,-8.425 19.445,-19.182 0,-11.074 -8.373,-19.71 -19.445,-19.71 -11.074,0 -19.447,8.636 -19.447,19.71 0,10.757 8.373,19.182 19.447,19.182"
             style="fill:#1d2124;fill-opacity:1;fill-rule:nonzero;stroke:none"
             id="path218"
             inkscape:connector-curvature="0" /></g><g
           id="g220"
           transform="translate(248.4092,67.9951)"><path
             d="M 0,0 C 0.363,-1.356 0.521,-2.57 0.602,-3.289 0.619,-3.449 0.851,-3.436 0.87,-3.275 0.959,-2.546 1.133,-1.324 1.431,0 l 5.686,23.869 c 0.301,1.257 1.428,2.148 2.721,2.148 h 2.632 c 1.118,0 1.935,-1.055 1.657,-2.138 L 5.531,-9.466 c -0.324,-1.256 -1.462,-2.138 -2.759,-2.138 h -3.479 c -1.297,0 -2.436,0.881 -2.762,2.137 l -5.22,20.117 c -0.557,2.133 -0.871,4.306 -0.94,4.816 -0.006,0.05 -0.017,0.112 -0.067,0.112 -0.05,0 -0.062,-0.062 -0.069,-0.112 -0.069,-0.51 -0.381,-2.683 -0.938,-4.816 l -5.221,-20.117 c -0.326,-1.256 -1.465,-2.137 -2.762,-2.137 h -3.48 c -1.295,0 -2.43,0.885 -2.744,2.142 l -8.358,33.337 c -0.273,1.089 0.548,2.142 1.67,2.142 h 2.633 c 1.289,0 2.411,-0.896 2.697,-2.153 L -20.824,0 c 0.299,-1.324 0.472,-2.546 0.56,-3.275 0.02,-0.161 0.253,-0.174 0.27,-0.014 0.08,0.719 0.237,1.933 0.601,3.289 l 6.225,23.88 c 0.328,1.256 1.468,2.137 2.766,2.137 h 1.518 c 1.297,0 2.435,-0.883 2.757,-2.139 z"
             style="fill:#1d2124;fill-opacity:1;fill-rule:nonzero;stroke:none"
             id="path222"
             inkscape:connector-curvature="0" /></g><g
           id="g224"
           transform="translate(291.1631,62.0078)"><path
             d="m 0,0 c 6.889,0 12.398,5.723 12.398,13.458 0,7.419 -5.509,12.929 -12.398,12.929 -6.889,0 -12.398,-5.51 -12.398,-12.929 C -12.398,5.723 -6.889,0 0,0 m 0,32.64 c 11.074,0 19.445,-8.425 19.445,-19.182 0,-11.074 -8.371,-19.71 -19.445,-19.71 -11.074,0 -19.446,8.636 -19.446,19.71 0,10.757 8.372,19.182 19.446,19.182"
             style="fill:#1d2124;fill-opacity:1;fill-rule:nonzero;stroke:none"
             id="path226"
             inkscape:connector-curvature="0" /></g><g
           id="g228"
           transform="translate(335.8252,76.3672)"><path
             d="m 0,0 c 3.656,0 5.936,2.172 5.936,5.935 0,3.602 -1.538,5.828 -6.889,5.828 H -5.41 c -0.406,0 -0.736,-0.33 -0.736,-0.737 V 0.736 C -6.146,0.33 -5.816,0 -5.41,0 Z m -12.98,15.437 c 0,1.219 0.988,2.208 2.207,2.208 h 9.926 c 4.079,0 5.934,-0.319 7.576,-1.06 3.762,-1.695 6.147,-5.299 6.147,-10.28 0,-4.222 -2.096,-8.164 -5.631,-9.951 -0.342,-0.172 -0.599,-0.56 -0.369,-0.865 0.225,-0.298 0.542,-0.76 0.913,-1.424 l 6.671,-12.107 c 0.478,-0.869 -0.149,-1.934 -1.143,-1.934 h -3.213 c -1.356,0 -2.608,0.752 -3.245,1.95 L 0.771,-6.585 c -0.212,0.399 -0.63,0.65 -1.083,0.65 H -5.41 c -0.406,0 -0.736,-0.33 -0.736,-0.736 v -11.097 c 0,-1.219 -0.989,-2.208 -2.208,-2.208 h -2.419 c -1.219,0 -2.207,0.989 -2.207,2.208 z"
             style="fill:#1d2124;fill-opacity:1;fill-rule:nonzero;stroke:none"
             id="path230"
             inkscape:connector-curvature="0" /></g><g
           id="g232"
           transform="translate(363.0039,91.8037)"><path
             d="m 0,0 c 0,1.22 0.988,2.208 2.207,2.208 h 2.42 C 5.847,2.208 6.835,1.22 6.835,0 v -12.368 c 0,-0.407 0.33,-0.736 0.736,-0.736 h 0.806 c 0.462,0 0.898,0.221 1.169,0.594 l 9.397,12.932 c 0.814,1.119 2.122,1.786 3.505,1.786 h 3.532 c 0.911,0 1.431,-1.039 0.885,-1.768 L 14.783,-15.701 v -0.106 l 12.756,-17.81 c 0.537,-0.75 0,-1.795 -0.923,-1.795 h -3.797 c -1.38,0 -2.681,0.678 -3.474,1.808 L 9.536,-19.59 c -0.264,0.377 -0.698,0.603 -1.159,0.603 H 7.571 c -0.406,0 -0.736,-0.329 -0.736,-0.736 v -13.481 c 0,-1.22 -0.988,-2.208 -2.208,-2.208 H 2.207 C 0.988,-35.412 0,-34.424 0,-33.204 Z"
             style="fill:#1d2124;fill-opacity:1;fill-rule:nonzero;stroke:none"
             id="path234"
             inkscape:connector-curvature="0" /></g><g
           id="g236"
           transform="translate(402.2617,91.8037)"><path
             d="m 0,0 c 0,1.22 0.989,2.208 2.208,2.208 h 2.42 C 5.847,2.208 6.835,1.22 6.835,0 v -33.204 c 0,-1.22 -0.988,-2.208 -2.207,-2.208 H 2.208 C 0.989,-35.412 0,-34.424 0,-33.204 Z"
             style="fill:#1d2124;fill-opacity:1;fill-rule:nonzero;stroke:none"
             id="path238"
             inkscape:connector-curvature="0" /></g><g
           id="g240"
           transform="translate(423.9316,91.8037)"><path
             d="m 0,0 c 0,1.22 0.988,2.208 2.207,2.208 h 2.42 c 1.374,0 2.665,-0.696 3.418,-1.846 l 13.043,-19.879 c 1.341,-2.037 2.914,-5.377 3.106,-5.787 0.013,-0.027 0.042,-0.042 0.073,-0.042 0.065,0 0.044,0.094 0.037,0.16 -0.071,0.72 -0.355,3.722 -0.355,5.669 V 0 c 0,1.22 0.989,2.208 2.208,2.208 h 2.367 c 1.219,0 2.207,-0.988 2.207,-2.208 v -33.204 c 0,-1.22 -0.988,-2.208 -2.207,-2.208 h -2.367 c -1.374,0 -2.666,0.696 -3.42,1.845 L 9.696,-13.741 c -1.342,2.036 -2.916,5.377 -3.107,5.787 -0.013,0.027 -0.042,0.042 -0.072,0.042 -0.066,0 -0.043,-0.094 -0.038,-0.16 0.072,-0.72 0.356,-3.722 0.356,-5.669 v -19.463 c 0,-1.22 -0.989,-2.208 -2.208,-2.208 H 2.207 C 0.988,-35.412 0,-34.424 0,-33.204 Z"
             style="fill:#1d2124;fill-opacity:1;fill-rule:nonzero;stroke:none"
             id="path242"
             inkscape:connector-curvature="0" /></g><g
           id="g244"
           transform="translate(486.3437,94.6475)"><path
             d="m 0,0 c 6.051,0 10.185,-2.054 12.312,-3.465 1.032,-0.685 1.139,-2.108 0.452,-3.14 L 11.821,-8.019 C 11.152,-9.023 9.78,-9.171 8.742,-8.554 c -1.741,1.032 -4.604,2.301 -8.16,2.301 -8.424,0 -12.928,-5.828 -12.928,-12.929 0,-8.159 5.564,-13.458 12.612,-13.458 5.669,0 9.43,3.921 9.43,3.921 v 3.662 c 0,0.407 -0.33,0.737 -0.736,0.737 H 6.128 c -1.219,0 -2.207,0.988 -2.207,2.207 v 1.466 c 0,1.219 0.988,2.208 2.207,2.208 h 7.507 c 1.219,0 2.208,-0.989 2.208,-2.208 v -15.401 c 0,-1.22 -0.989,-2.208 -2.208,-2.208 h -1.413 c -1.193,0 -2.223,0.905 -2.205,2.098 0.002,0.172 0.006,0.338 0.011,0.49 0.011,0.306 -0.243,0.629 -0.474,0.432 -1.171,-0.997 -4.825,-3.656 -10.508,-3.656 -9.907,0 -18.439,7.684 -18.439,19.498 C -19.393,-8.478 -11.18,0 0,0"
             style="fill:#1d2124;fill-opacity:1;fill-rule:nonzero;stroke:none"
             id="path246"
             inkscape:connector-curvature="0" /></g></g></g></g></svg>