<?xml version="1.0" encoding="UTF-8" standalone="no"?>
<!-- Created with Inkscape (http://www.inkscape.org/) -->
<svg version="1.1" id="svg1" width="337.33334" height="89.333336" viewBox="0 0 337.33334 89.333336" xmlns="http://www.w3.org/2000/svg" xmlns:svg="http://www.w3.org/2000/svg">
  <defs id="defs1"/>
  <g id="g1">
    <path id="path1" d="M 38.905668,9.6497159e-4 H 34.640043 V -13.655961 c 0,-2.179473 -0.427734,-3.767809 -1.277343,-4.762245 -0.852539,-0.994437 -2.244141,-1.491655 -4.171875,-1.491655 -4.110352,0 -6.164063,2.15185 -6.164063,6.452787 V 9.6497159e-4 H 18.761137 V -12.794116 c 0,-2.657355 -0.46582,-4.508112 -1.394531,-5.546745 -0.931641,-1.044159 -2.282227,-1.569 -4.054688,-1.569 -2.970703,0 -5.0214839,1.013773 -6.1523433,3.038556 V 9.6497159e-4 H 2.8939497 V -23.224649 h 3.3164062 l 0.46875,2.463992 c 1.265625,-1.132552 2.4169922,-1.906003 3.4570311,-2.320351 1.045899,-0.411586 2.217774,-0.61876 3.515625,-0.61876 3.539063,0 6.158203,1.546901 7.863281,4.640703 1.608399,-3.093802 4.435547,-4.640703 8.484375,-4.640703 5.935547,0 8.90625,3.334124 8.90625,9.99961 z M 60.808012,-23.224649 46.593168,11.470131 H 41.847075 L 47.202543,-1.0376686 37.534575,-23.224649 h 4.746093 l 7.242188,17.2479465 6.550781,-17.2479465 z M 75.16934,-2.938147 74.841215,0.47608457 h -3.84375 c -2.05664,0 -3.583007,-0.53589071 -4.582031,-1.61319677 -0.993164,-1.0745437 -1.488281,-2.3866473 -1.488281,-3.9335483 V -19.909861 h -3.972656 l 0.375,-3.314788 h 3.597656 v -5.734583 l 4.265625,-0.430922 v 6.165505 h 6.117187 v 3.314788 h -6.117187 v 12.2315674 c 0,2.2485311 0.237305,3.5993071 0.714844,4.0550905 0.474609,0.4585456 1.866211,0.6850561 4.171875,0.6850561 z M 97.059965,9.6497159e-4 H 92.79434 V -12.41844 c 0,-2.74575 -0.410156,-4.679376 -1.230468,-5.800879 -0.820313,-1.127028 -2.258789,-1.690542 -4.3125,-1.690542 -2.750977,0 -4.769532,1.013773 -6.058594,3.038556 V 9.6497159e-4 h -4.3125 V -35.544611 h 4.3125 v 14.828152 c 1.576172,-1.988873 3.820312,-2.983309 6.726562,-2.983309 6.09375,0 9.140625,3.762284 9.140625,11.281328 z M 103.9418,-28.439915 h -4.265624 v -4.740147 h 4.265624 z m 0,28.44087997159 H 99.676176 V -23.224649 H 103.9418 Z M 117.77579,0.47608457 c -3.69727,0 -6.54786,-1.16017576 -8.55469,-3.48052727 -2.00977,-2.3258762 -3.01172,-5.2097417 -3.01172,-8.6515963 0,-3.541299 0.9873,-6.433451 2.96484,-8.673695 1.97461,-2.245769 4.82813,-3.370034 8.55469,-3.370034 3.09375,0 5.47852,0.458545 7.16016,1.370112 l -0.66797,3.845154 c -1.96289,-0.950239 -3.9668,-1.425359 -6.01172,-1.425359 -2.53125,0 -4.43848,0.723729 -5.71875,2.165661 -1.27441,1.436409 -1.91016,3.466716 -1.91016,6.088161 0,2.624207 0.63575,4.6793755 1.91016,6.1655054 1.28027,1.4806052 3.1875,2.2209079 5.71875,2.2209079 2.07715,0 4.0957,-0.4751196 6.05859,-1.4253588 l 0.57422,3.4142315 c -1.77539,1.17122504 -4.13086,1.75683757 -7.0664,1.75683757 z m 34.21875,0 c -1.16602,0 -2.44336,-0.29833091 -3.83204,-0.89499273 -1.3916,-0.60218644 -2.49609,-1.44193274 -3.3164,-2.51923884 l -0.48047,2.93911197159 h -3.78516 V -35.544611 h 4.26563 v 14.828152 c 1.64062,-1.988873 4.03711,-2.983309 7.19531,-2.983309 3.13184,0 5.66016,1.187799 7.58203,3.557872 1.92774,2.372836 2.89453,5.215266 2.89453,8.530054 0,3.3810837 -1.01367,6.2428506 -3.03515,8.5853007 -2.02442,2.33692546 -4.52051,3.50262587 -7.48828,3.50262587 z M 151.52579,-19.909861 c -1.86914,0 -3.48926,0.729253 -4.86329,2.18776 -1.37695,1.452982 -2.0625,3.488814 -2.0625,6.110259 0,2.7181261 0.67969,4.7815816 2.03907,6.1876041 1.35937,1.4087849 2.98828,2.110415 4.88672,2.110415 1.99218,0 3.59179,-0.7983114 4.80468,-2.3976966 1.21875,-1.5966228 1.82813,-3.563397 1.82813,-5.9003225 0,-2.400459 -0.60938,-4.381045 -1.82813,-5.94452 -1.21289,-1.568999 -2.8125,-2.353499 -4.80468,-2.353499 z m 33.2666,8.298019 h -16.82813 c 0.53906,5.5329335 3.44824,8.2980191 8.73047,8.2980191 2.42871,0 4.65527,-0.4585457 6.67969,-1.3811616 l 0.5625,3.3700343 c -2.68067,1.20161063 -5.27051,1.80103477 -7.76953,1.80103477 -3.94629,0 -7.02832,-1.16570041 -9.2461,-3.50262587 -2.21191,-2.3424501 -3.3164,-5.2649881 -3.3164,-8.7731387 0,-3.381084 1.02539,-6.209703 3.08203,-8.485857 2.05371,-2.276154 4.81933,-3.414231 8.29687,-3.414231 2.96778,0 5.37305,0.870131 7.21875,2.607633 1.85157,1.740263 2.77735,4.140722 2.77735,7.204139 0,0.790024 -0.0645,1.546901 -0.1875,2.276154 z m -9.90235,-8.298019 c -3.44531,0 -5.625,1.787223 -6.53906,5.358907 h 12.22266 c 0,-1.671205 -0.47754,-2.983309 -1.42969,-3.933548 -0.94629,-0.950239 -2.36426,-1.425359 -4.25391,-1.425359 z m 31.52051,16.971714 -0.66797,3.41423157 h -0.32812 c -1.89844,0 -3.23438,-0.26242071 -4.00781,-0.7844998 -0.77344,-0.52207909 -1.42969,-1.39773557 -1.96875,-2.62973177 -1.95411,2.27615439 -4.32129,3.41423157 -7.10157,3.41423157 -2.15039,0 -3.8789,-0.6298097 -5.1914,-1.88942907 -1.3125,-1.2651441 -1.96875,-2.8783408 -1.96875,-4.8395903 0,-1.5469011 0.43359,-2.8866278 1.30078,-4.0219422 0.86719,-1.14084 2.01855,-1.994398 3.45703,-2.563436 1.43555,-0.574564 2.90625,-0.994437 4.40625,-1.25962 1.50586,-0.270708 3.08203,-0.422635 4.72266,-0.453021 0,-2.082792 -0.4043,-3.497101 -1.20704,-4.242928 -0.80566,-0.743065 -2.09472,-1.115979 -3.86718,-1.115979 -2.05664,0 -4.08985,0.696105 -6.10547,2.088316 l -0.6211,-3.458428 c 2.08594,-1.613197 4.70508,-2.419795 7.86329,-2.419795 2.96777,0 5.07714,0.823172 6.32812,2.463992 1.24805,1.643582 1.875,4.535735 1.875,8.673695 v 4.7401465 c 0,1.8341827 0.15527,3.110376 0.46875,3.8230554 0.31934,0.7071548 1.0459,1.0607321 2.17969,1.0607321 z m -7.34765,-3.1269499 v -5.5467451 c -3.41602,0.127067 -5.85645,0.574563 -7.32422,1.348014 -1.47071,0.7734503 -2.20313,2.0303074 -2.20313,3.7678087 0,2.3728357 1.19824,3.5578723 3.59766,3.5578723 1.13965,0 2.23828,-0.2817569 3.29297,-0.8507955 1.06054,-0.5662763 1.93945,-1.3259152 2.63672,-2.2761544 z m 16.30664,6.54118147 c -3.35157,0 -6.00879,-0.67953152 -7.96875,-2.04411917 l 0.52734,-4.1213863 c 0.63281,0.5690386 1.59961,1.1049293 2.90625,1.6131968 1.3125,0.5082674 2.75977,0.7624012 4.34766,0.7624012 3.09375,0 4.64062,-0.9640508 4.64062,-2.8949148 0,-1.7071157 -1.54687,-2.9860714 -4.64062,-3.8341043 -0.86133,-0.226511 -1.53516,-0.419873 -2.02735,-0.574564 -0.48633,-0.15469 -1.11328,-0.419873 -1.88672,-0.795549 -0.77343,-0.3812 -1.36816,-0.778975 -1.78125,-1.193323 -0.40722,-0.411586 -0.77929,-0.977863 -1.11328,-1.701591 -0.32812,-0.729254 -0.49219,-1.535852 -0.49219,-2.419796 0,-1.994397 0.70899,-3.657316 2.13282,-4.983231 1.4209,-1.325915 3.61523,-1.988872 6.58593,-1.988872 2.17969,0 4.28028,0.505505 6.30469,1.513753 l -0.52734,3.889351 c -1.64063,-1.353539 -3.53613,-2.03307 -5.6836,-2.03307 -3,0 -4.5,1.044158 -4.5,3.12695 0,1.01101 0.37793,1.743026 1.13672,2.198809 0.75586,0.458546 2.17969,1.002723 4.26563,1.635295 0.78808,0.220986 1.46777,0.461308 2.03906,0.718205 0.56836,0.251371 1.25684,0.638096 2.0625,1.160175 0.80274,0.516555 1.42383,1.201611 1.86328,2.0551688 0.44531,0.8563202 0.66797,1.8535189 0.66797,2.9943584 0,0.8480332 -0.13769,1.6435823 -0.41016,2.3866473 -0.2666,0.7458272 -0.70898,1.4750806 -1.32421,2.18776 -0.60938,0.7071547 -1.53223,1.2761933 -2.76563,1.70159108 -1.23633,0.42539778 -2.68945,0.64085899 -4.35937,0.64085899 z m 22.69921,-3.41423157 -0.32812,3.41423157 h -3.84375 c -2.05664,0 -3.58301,-0.53589071 -4.58203,-1.61319677 -0.99317,-1.0745437 -1.48828,-2.3866473 -1.48828,-3.9335483 V -19.909861 h -3.97266 l 0.375,-3.314788 h 3.59766 v -5.734583 l 4.26562,-0.430922 v 6.165505 h 6.11719 v 3.314788 h -6.11719 v 12.2315674 c 0,2.2485311 0.23731,3.5993071 0.71485,4.0550905 0.47461,0.4585456 1.86621,0.6850561 4.17187,0.6850561 z m 8.95899,3.41423157 c -3.35156,0 -6.00879,-0.67953152 -7.96875,-2.04411917 l 0.52734,-4.1213863 c 0.63282,0.5690386 1.59961,1.1049293 2.90625,1.6131968 1.3125,0.5082674 2.75977,0.7624012 4.34766,0.7624012 3.09375,0 4.64062,-0.9640508 4.64062,-2.8949148 0,-1.7071157 -1.54687,-2.9860714 -4.64062,-3.8341043 -0.86133,-0.226511 -1.53516,-0.419873 -2.02734,-0.574564 -0.48633,-0.15469 -1.11329,-0.419873 -1.88672,-0.795549 -0.77344,-0.3812 -1.36817,-0.778975 -1.78125,-1.193323 -0.40723,-0.411586 -0.7793,-0.977863 -1.11328,-1.701591 -0.32813,-0.729254 -0.49219,-1.535852 -0.49219,-2.419796 0,-1.994397 0.70898,-3.657316 2.13281,-4.983231 1.4209,-1.325915 3.61523,-1.988872 6.58594,-1.988872 2.17969,0 4.28027,0.505505 6.30469,1.513753 l -0.52735,3.889351 c -1.64062,-1.353539 -3.53613,-2.03307 -5.68359,-2.03307 -3,0 -4.5,1.044158 -4.5,3.12695 0,1.01101 0.37793,1.743026 1.13672,2.198809 0.75586,0.458546 2.17968,1.002723 4.26562,1.635295 0.78809,0.220986 1.46777,0.461308 2.03906,0.718205 0.56836,0.251371 1.25684,0.638096 2.0625,1.160175 0.80274,0.516555 1.42383,1.201611 1.86329,2.0551688 0.44531,0.8563202 0.66796,1.8535189 0.66796,2.9943584 0,0.8480332 -0.13769,1.6435823 -0.41015,2.3866473 -0.2666,0.7458272 -0.70899,1.4750806 -1.32422,2.18776 -0.60938,0.7071547 -1.53223,1.2761933 -2.76563,1.70159108 -1.23632,0.42539778 -2.68945,0.64085899 -4.35937,0.64085899 z m 0,0" style="fill:#000000;fill-opacity:1;fill-rule:nonzero;stroke:none" aria-label="mythic beasts" transform="matrix(1.3333333,0,0,1.4141176,-3.8546933,63.330667)"/>
    <path id="path2" d="m 1376.88,570.262 h 42.6602 v 95.7383 H 1376.88 Z" style="fill:#000000;fill-opacity:1;fill-rule:nonzero;stroke:none" transform="matrix(0.13333333,0,0,-0.13333333,0,89.333333)"/>
    <path id="path3" d="m 739.648,570.531 h 43.1211 v 94.957 H 739.648 Z" style="fill:#000000;fill-opacity:1;fill-rule:nonzero;stroke:none" transform="matrix(0.13333333,0,0,-0.13333333,0,89.333333)"/>
    <path id="path4" d="m 620.469,494.75 h 42.6602 v 96.9883 H 620.469 Z" style="fill:#000000;fill-opacity:1;fill-rule:nonzero;stroke:none" transform="matrix(0.13333333,0,0,-0.13333333,0,89.333333)"/>
    <path id="path5" d="m 2249.06,499.391 h 42.6602 v 91.8789 H 2249.06 Z" style="fill:#000000;fill-opacity:1;fill-rule:nonzero;stroke:none" transform="matrix(0.13333333,0,0,-0.13333333,0,89.333333)"/>
    <path id="path6" d="M 389.609,73.9297 437.191,74.4805 411.289,10.5703 363.711,9.98047 Z" style="fill:#000000;fill-opacity:1;fill-rule:nonzero;stroke:none" transform="matrix(0.13333333,0,0,-0.13333333,0,89.333333)"/>
  </g>
</svg>