<svg viewBox="0 0 2793 1048" width="2793" height="1048" xmlns="http://www.w3.org/2000/svg" fill-rule="evenodd" clip-rule="evenodd" stroke-linejoin="round" stroke-miterlimit="2">
  <path fill="none" d="M0 0h2793v1048H0z"/>
  <g fill-rule="nonzero">
    <path d="M185.856 415.2v-82.559h31.654V415.2h50.049v29.515H217.51v123.626c0 27.803 9.411 37.215 29.945 37.215 5.988 0 11.978 0 20.104-1.283v27.378c-5.559 2.565-14.971 3.421-23.954 3.421-24.384 0-57.749-8.555-57.749-66.731V415.2zM463.035 630.795V499.9c0-35.931-20.104-58.605-53.471-58.605-34.22 0-58.605 24.382-58.605 60.744v128.756h-31.653V332.641h31.653v118.92c10.697-23.1 33.794-39.783 66.305-39.783 47.91 0 77.425 32.937 77.425 81.276v137.741h-31.654zM705.564 502.039c0-34.651-29.09-60.575-65.447-60.575-39.355 0-71.866 25.496-74.005 60.575h139.452zM532.32 523.851c0-69.725 46.198-111.903 107.797-111.903 59.887 0 99.241 44.747 99.241 104.204 0 0 0 7.274-.426 13.689H563.974c1.712 47.481 31.653 76.571 76.998 76.571 31.225 0 48.339-11.119 66.304-29.942l20.961 20.531c-26.95 29.947-56.04 38.071-87.265 38.071-64.165 0-108.652-42.347-108.652-109.509v-1.712zM785.114 415.2v-3.229c0-35.504 8.559-53.47 25.239-66.734 17.969-14.97 40.639-15.826 59.461-15.826 8.98 0 20.531 1.282 25.664 2.14v53.045c-5.56-2.139-12.832-2.139-19.248-2.139-20.105 0-29.516 7.268-29.516 25.664v7.079h43.204v57.748h-43.204v157.847h-61.6V415.2zM1027.22 576.896c31.23 0 56.47-23.529 56.47-53.897 0-30.372-25.24-53.903-56.47-53.903-30.797 0-54.753 23.531-54.753 53.903 0 30.368 23.956 53.897 54.753 53.897zm-11.55-165.544c32.94 0 58.18 13.258 64.17 32.08V415.2h63.73v139.88c0 17.538 4.71 23.955 15.83 23.955 2.99 0 7.7-.431 10.7-.858v53.043c-6.42 2.14-18.4 3.424-28.67 3.424-11.55 0-24.38-1.711-35.07-7.7-6.85-4.278-15.4-11.122-19.25-23.1-12.41 18.397-33.79 31.228-71.44 31.228-61.169 0-106.941-49.193-106.941-112.073 0-62.026 45.772-111.647 106.941-111.647zM1200.02 415.2h63.74v28.019c8.12-18.823 29.51-31.653 56.03-31.653 29.52 0 48.77 11.975 58.61 34.219 14.11-26.948 41.06-34.219 71.01-34.219 48.76 0 75.71 33.791 75.71 89.403v54.324c0 15.826 2.56 22.674 14.12 22.674 2.56 0 5.56-.432 6.41-.432v53.903c-1.28.426-10.69 2.99-27.37 2.99-33.8 0-56.89-16.253-56.89-61.596v-64.165c0-24.812-10.7-40.639-31.23-40.639-20.54 0-35.08 17.539-35.08 42.778v119.989h-63.74V508.667c0-24.812-11.12-40.639-32.08-40.639-20.53 0-35.5 17.539-35.5 42.778v119.989h-63.74V415.2zM1575.35 415.2h63.24v215.595h-63.24zM1689.99 332.641h63.23v298.154h-63.23zM1804.83 415.2h63.23v215.595h-63.23zM2024.69 576.896c31.229 0 56.469-23.529 56.469-53.897 0-30.372-25.24-53.903-56.469-53.903-30.79 0-54.75 23.531-54.75 53.903 0 30.368 23.96 53.897 54.75 53.897zm-11.55-165.544c32.94 0 58.18 13.258 64.17 32.08V415.2h63.73v139.88c0 17.538 4.71 23.955 15.83 23.955 3 0 7.71-.431 10.7-.858v53.043c-6.42 2.14-18.4 3.424-28.66 3.424-11.55 0-24.39-1.711-35.08-7.7-6.84-4.278-15.401-11.122-19.25-23.1-12.401 18.397-33.79 31.228-71.44 31.228-61.17 0-106.94-49.193-106.94-112.073 0-62.026 45.77-111.647 106.94-111.647zM2197.62 415.2h63.74v29.515c9.84-21.814 32.94-32.767 62.45-32.767 5.99 0 13.26.856 16.69 1.282v59.886c-6-1.28-13.27-2.138-21.39-2.138-36.36 0-57.75 19.511-57.75 54.585v105.232h-63.74V415.2zM1804.4 361.217c0-17.962 14.51-31.806 31.62-31.806 17.48 0 31.62 13.844 31.62 31.806 0 17.585-14.14 31.428-31.62 31.428-17.11 0-31.62-13.843-31.62-31.428zM1575.35 361.217c0-17.962 14.51-31.806 31.62-31.806 17.48 0 31.62 13.844 31.62 31.806 0 17.585-14.14 31.428-31.62 31.428-17.11 0-31.62-13.843-31.62-31.428zM2516.06 467.022c-26.85 2.428-54.14-8.93-71.08-31.919l-105.48 336.97 263-175.582-86.44-129.469z" fill="#101820"/>
    <path d="M2592.44 392.807l-.04-63.235 94.85-.053-94.81 63.288z" fill="#f43c31"/>
    <path d="M2548.88 387.278c14.55-9.709 18.62-29.07 8.85-43.698-9.97-14.939-29.42-18.603-43.96-8.895-14.23 9.499-18.6 29.066-8.63 44.006 9.77 14.626 29.52 18.084 43.74 8.587z" fill="#101820"/>
  </g>
</svg>
