<svg id="Layer_1" data-name="Layer 1" xmlns="http://www.w3.org/2000/svg" viewBox="0 0 468.6 179.11"><defs><style>.cls-1,.cls-2,.cls-3{fill:none;stroke:#5e7da2;}.cls-1{stroke-width:0.91px;}.cls-3{stroke-width:0.75px;}.cls-4{fill:#5e7da2;}</style></defs><path class="cls-1" d="M183.32,50.08a13.59,13.59,0,1,1-13.59-13.59A13.58,13.58,0,0,1,183.32,50.08Z" transform="translate(-32.55 -30.03)"/><path class="cls-2" d="M120.05,78A35.19,35.19,0,1,1,84.86,42.79,35.18,35.18,0,0,1,120.05,78Z" transform="translate(-32.55 -30.03)"/><path class="cls-2" d="M120.68,149.7a29.19,29.19,0,1,1-29.19-29.19A29.19,29.19,0,0,1,120.68,149.7Z" transform="translate(-32.55 -30.03)"/><path class="cls-3" d="M56.4,67.25A9.27,9.27,0,1,1,47.13,58,9.27,9.27,0,0,1,56.4,67.25Z" transform="translate(-32.55 -30.03)"/><path class="cls-4" d="M158.25,81.19a9.53,9.53,0,1,1-12.19,5.75A9.53,9.53,0,0,1,158.25,81.19Z" transform="translate(-32.55 -30.03)"/><path class="cls-4" d="M163,41.11a10.65,10.65,0,1,1-10.65-10.64A10.65,10.65,0,0,1,163,41.11Z" transform="translate(-32.55 -30.03)"/><path class="cls-4" d="M86.42,72.08a8.27,8.27,0,1,1-8.26-8.27A8.26,8.26,0,0,1,86.42,72.08Z" transform="translate(-32.55 -30.03)"/><path class="cls-4" d="M143,44.7s2.29,3.29-1.92,6.88-6,2-8.2,1.22,8.05,8.35,8.05,8.35-1.52-5.47.46-7.55c4.41-4.63,7.41-2.94,7.41-2.94s2.89.26,1.7-2.35-4-4.3-5.53-5S142.79,43.28,143,44.7Z" transform="translate(-32.55 -30.03)"/><path class="cls-4" d="M86,74s-.08-2.28,5.32-3.46c16.8-3.68,24.31,2.83,25.68,4.7s-2-11.4-2-11.4S110.77,66.23,92.79,69C86.47,69.93,85,68,85,68s-1.75-1.82-2.28,1a9.67,9.67,0,0,0,.85,5.25C84.39,75.73,85.31,75.26,86,74Z" transform="translate(-32.55 -30.03)"/><path class="cls-4" d="M142.17,65.82a15.4,15.4,0,1,1-15.4-15.39A15.39,15.39,0,0,1,142.17,65.82Z" transform="translate(-32.55 -30.03)"/><path class="cls-4" d="M152.15,185.84s0-1.76,5.45-2.45c16.59-2.11,16.19,1.71,17.94,3s.26-8.66.26-8.66-2,4.09-16.59,4.22c-6.39.05-7.46-.79-7.46-.79s-1.22-2.09-1.93.69a6,6,0,0,0,.27,4.13C150.79,187.46,152,186.94,152.15,185.84Z" transform="translate(-32.55 -30.03)"/><path class="cls-4" d="M174,180.17a7.19,7.19,0,1,1,4.81,9A7.19,7.19,0,0,1,174,180.17Z" transform="translate(-32.55 -30.03)"/><path class="cls-4" d="M71.08,75.94a9.34,9.34,0,0,1-1.48,8.57c-3.19,4.31-10,8.06-12.26,7.8S68.12,103.8,68.12,103.8,66.8,91.23,71.51,84.7c3.62-5,6.34-4.4,6.34-4.4s2.79-.38,1.09-2.59-4.74-3.16-6.3-3.49S70.6,74.65,71.08,75.94Z" transform="translate(-32.55 -30.03)"/><path class="cls-4" d="M73.87,111.78A20.66,20.66,0,1,1,53.21,91.12,20.66,20.66,0,0,1,73.87,111.78Z" transform="translate(-32.55 -30.03)"/><path class="cls-4" d="M63.63,141.18s-3.74,1.83-4.5-4.86c-.48-4.15,2.54-5.39,2.94-7.23.26-1.2-1.1-4-7-2.79-5.58,1.19-5.17,4.27-4.53,4.93,1.44,1.49,3.64,1.19,4.92,5.09,2.16,6.55-1.18,6.27-1.18,6.27s.5,2.56,5.13,1.6C63.26,143.38,63.63,141.18,63.63,141.18Z" transform="translate(-32.55 -30.03)"/><path class="cls-4" d="M155.08,99.38s2.76-.84,4.48,5-.1,7.71-1.77,9.62,8.32-1.69,8.32-1.69-3.62-4.43-4.82-7.25c-2.76-6.48,0-8.11,0-8.11s1.53-2.32-1.63-2.21a10.67,10.67,0,0,0-5.44,2.19C152.83,98.13,153.55,99,155.08,99.38Z" transform="translate(-32.55 -30.03)"/><path class="cls-4" d="M163.35,85.66s-2.06-2,2.26-6.33,7.38-7.45,9.86-6.89-4.29-4.91-4.29-4.91-3.89,7.56-5.79,10c-4.38,5.51-7.11,3.9-7.11,3.9s-2.77-.24-1.17,2.49a10.71,10.71,0,0,0,4.52,3.74C163.33,88.24,163.75,87.18,163.35,85.66Z" transform="translate(-32.55 -30.03)"/><path class="cls-4" d="M144.24,202.5a24.47,24.47,0,1,1,1.08-34.58A24.45,24.45,0,0,1,144.24,202.5Z" transform="translate(-32.55 -30.03)"/><path class="cls-4" d="M107.78,171.25s-2.32,5.73-14.36.72S80.74,161.42,79.8,156.06s-8.39,16.13-8.39,16.13,12.24-.07,18.55,1.73c14.49,4.15,13.54,10.87,13.54,10.87s1.79,5.67,5.87.26c2.51-3.33,3.82-9.31,3.7-12C112.9,169.19,110.47,169.23,107.78,171.25Z" transform="translate(-32.55 -30.03)"/><path class="cls-4" d="M147,169.52s-4.79-3.91,3.56-13.93,13.81-9,19.21-8.32-12.93-12.78-12.93-12.78-3.55,11.72-7.13,17.22c-8.23,12.62-14.38,9.73-14.38,9.73s-5.94,0-2,5.53c2.44,3.38,7.77,6.4,10.37,7.07C147.46,175,148.13,172.69,147,169.52Z" transform="translate(-32.55 -30.03)"/><path class="cls-4" d="M80.53,157.44a17.36,17.36,0,1,1-17.36-17.35A17.36,17.36,0,0,1,80.53,157.44Z" transform="translate(-32.55 -30.03)"/><path class="cls-4" d="M167.35,108.26A20.61,20.61,0,1,1,151,132.35,20.6,20.6,0,0,1,167.35,108.26Z" transform="translate(-32.55 -30.03)"/><path class="cls-4" d="M179.19,59.56a7.06,7.06,0,1,1-9,4.25A7.06,7.06,0,0,1,179.19,59.56Z" transform="translate(-32.55 -30.03)"/><path class="cls-4" d="M214.56,69.35l.58-8.81.78-18.27.25-8.44q-7,0-12.35.26c.12-1.54.19-2.89.21-4.06q7.31,0,15.78,0L229,30h4.89c-.13,1.7-.2,3.06-.2,4.06q-4.47-.26-9.88-.26h-2.36l-.6,12.75-.61,18v4.8l-2.76-.06Z" transform="translate(-32.55 -30.03)"/><path class="cls-4" d="M236.83,69.35l.72-12.53.66-17.08.17-9.71,2.63,0,2.56,0-.63,10-.23,6c.46-.82.86-1.48,1.2-2a8.93,8.93,0,0,1,1.29-1.47,10.17,10.17,0,0,1,1.66-1.25,11.11,11.11,0,0,1,1.93-.91,14.91,14.91,0,0,1,2.56-.64,17.74,17.74,0,0,1,3.14-.26,19.89,19.89,0,0,1,4.69.54A9.94,9.94,0,0,1,263,41.87a6.5,6.5,0,0,1,2.19,3,11.23,11.23,0,0,1,.59,3.57c0,.48,0,1.11,0,1.9-.06,1.19-.14,2.58-.23,4.17l-.48,10.59q-.09,1.72-.12,4.23c-1.11,0-2-.06-2.57-.06s-1.57,0-2.74.06q.31-3.1.74-9.78t.42-9.27a7.78,7.78,0,0,0-.84-3.81,5.33,5.33,0,0,0-2.76-2.32,11.19,11.19,0,0,0-4.29-.8,12.06,12.06,0,0,0-4,.66,8.42,8.42,0,0,0-2.9,1.7A8.28,8.28,0,0,0,244,48.4a14.41,14.41,0,0,0-1.1,3.43,61.77,61.77,0,0,0-.69,7.59c-.07,1.94-.18,5.25-.31,9.93-1.08,0-1.89-.06-2.42-.06S238.12,69.31,236.83,69.35Z" transform="translate(-32.55 -30.03)"/><path class="cls-4" d="M296.44,64.77c-.23,1.06-.46,2.4-.69,4a39.35,39.35,0,0,1-4.8.93,34.4,34.4,0,0,1-4.05.25,22.19,22.19,0,0,1-6.46-.87,11.11,11.11,0,0,1-4.92-3,12.67,12.67,0,0,1-2.93-4.91,18.75,18.75,0,0,1-.9-5.85,19.32,19.32,0,0,1,1.64-8,13,13,0,0,1,4.95-5.78,15.27,15.27,0,0,1,8.36-2.1,16.41,16.41,0,0,1,5,.76,9.78,9.78,0,0,1,4,2.32,10.51,10.51,0,0,1,2.45,3.85,13.91,13.91,0,0,1,.87,5,11.16,11.16,0,0,1-.18,2h-22c-.08,1.06-.11,1.86-.11,2.42a12.35,12.35,0,0,0,1.26,5.57,8.59,8.59,0,0,0,3.75,3.86,11.93,11.93,0,0,0,5.7,1.32A28.58,28.58,0,0,0,296.44,64.77ZM277,51.06h17.17a16,16,0,0,0-.23-2.82,7.77,7.77,0,0,0-.75-2.09,6,6,0,0,0-1.48-1.88,6.65,6.65,0,0,0-2.25-1.21,9.55,9.55,0,0,0-2.84-.41,10.38,10.38,0,0,0-3.12.46,9.12,9.12,0,0,0-2.62,1.27A8,8,0,0,0,279,46.26a8.77,8.77,0,0,0-1.18,2.09A19.31,19.31,0,0,0,277,51.06Z" transform="translate(-32.55 -30.03)"/><path class="cls-4" d="M206.73,155q-.71-11.44-1.62-18.32a58,58,0,0,0,10.74,3.74,39.15,39.15,0,0,0,8.26,1,16.88,16.88,0,0,0,7.45-1.37,4.34,4.34,0,0,0,2.77-4.05,5.67,5.67,0,0,0-.27-1.75,7.24,7.24,0,0,0-1-1.88,14.55,14.55,0,0,0-2.15-2.28l-10.12-8.81q-3.56-3-5-4.35a31.9,31.9,0,0,1-4.44-5.1,17.85,17.85,0,0,1-2.32-4.81,18.26,18.26,0,0,1-.72-5.18,18.47,18.47,0,0,1,1.15-6.42A19.68,19.68,0,0,1,213,89.61a20,20,0,0,1,6.12-4.73,27.23,27.23,0,0,1,8.16-2.71,54.85,54.85,0,0,1,9-.73A103.11,103.11,0,0,1,256,83.54c.11,2.47.23,4.74.38,6.79s.48,5.67,1,10.83a49.13,49.13,0,0,0-9-2.77,38.31,38.31,0,0,0-7-.78,14,14,0,0,0-7,1.56c-1.84,1-2.77,2.33-2.77,3.87a5.47,5.47,0,0,0,.43,2.09,9.67,9.67,0,0,0,1.62,2.39,27.55,27.55,0,0,0,3.11,3q1.94,1.64,6.07,4.86l3.87,3.06a48.29,48.29,0,0,1,3.7,3.39,36.15,36.15,0,0,1,3.44,3.92,22.07,22.07,0,0,1,2.23,3.54,15.41,15.41,0,0,1,1.15,3.25,15.76,15.76,0,0,1,.38,3.52,19.72,19.72,0,0,1-8.86,16.41,27.65,27.65,0,0,1-9.32,4,49.43,49.43,0,0,1-10.72,1.12A121.94,121.94,0,0,1,206.73,155Z" transform="translate(-32.55 -30.03)"/><path class="cls-4" d="M284.5,156.16q2.67-26.11,3.2-57.47l-22.86.59.27-6q.21-4.77.32-10.47,15.26.1,35.55.11l13.26,0h12.89l7-.06-.32,5.26c-.15,2.82-.25,5.16-.3,7s-.08,3.24-.08,4.18q-11.49-.6-18.94-.59h-3.76q-.81,9.48-1.24,17.53-.6,11.52-.92,22.38t-.33,17.56c-5.86-.07-9.66-.11-11.38-.11Q294.55,156.05,284.5,156.16Z" transform="translate(-32.55 -30.03)"/><path class="cls-4" d="M337.94,156.16q1.35-13.86,2-23.21t1.24-24.84q.62-15.49.62-20.54l-.06-4.73q12.68.1,30.67.11,16.59,0,29.26-.11l-.1,1.77q-.06.65-.27,4.65l-.33,5.84c-.07,1.25-.1,2.52-.1,3.8q-10.36-.44-17.4-.43-7.74,0-10.45,0t-8.46.24l-.65,12.35q6.33.16,14.77.16,3,0,16-.37-.54,6.87-1,16.38-9.28-.11-14.28-.11-7.41,0-16.58.38l-.64,13.05h6.17c1.82,0,5.6-.05,11.32-.16l11.12-.27c1.64,0,4.4-.18,8.26-.43q-.64,8-1.07,16.44-13.11-.1-28.74-.11l-23.63,0Z" transform="translate(-32.55 -30.03)"/><path class="cls-4" d="M409.27,156.16l1.33-10.85,3.3-37.65,1.65-24.82q9.93.1,15.58.11,4.69,0,14.34-.11.7,4.62,1.18,7c.32,1.59,1.12,4.71,2.38,9.35s2.29,8.64,3.06,12,1.92,9.17,3.45,17.37q2.37-8.43,4.31-14.5t4.84-13.8q2.91-7.74,3.68-10.13c.53-1.59,1.23-4,2.13-7.33q8.06.1,15.79.11,5.26,0,14.61-.11-1,18.1-1.34,31.1-.71,25.45-.7,35,0,2,.11,7.2-7.1-.1-9.94-.11-4.14,0-10.15.11.44-4.84,1.09-23t.65-23.23q0-2.2-.1-6.12l-7,21.86-10.11,30.51c-4.66-.07-7.86-.11-9.62-.11q-3.33,0-10.2.11l-6.62-29.54L433,110.88c-.14-.61-.3-1.36-.48-2.26s-.47-2.47-.87-4.72l-1.35,14.87-1.79,30.51-.16,6.88q-7.41-.1-9.45-.11C417.08,156.05,413.85,156.09,409.27,156.16Z" transform="translate(-32.55 -30.03)"/><path class="cls-4" d="M385.89,207.19l.95-17.37.46-13.25.08-4.55c0-.65,0-2,0-4.15l2.94,0,2.74,0-.83,17.26h23.39l.51-13.69q0-.72,0-3.57l2.94,0,2.74,0q-.75,11.41-1.08,20.5t-.44,18.82l-2.83-.05-3,.05q.75-9,.92-18.2H392.09l-.41,11.81-.11,6.39-2.91-.05Z" transform="translate(-32.55 -30.03)"/><path class="cls-4" d="M430.76,167.87l2.86,0,2.8,0-1.3,22-.08,2.68v.55a13.31,13.31,0,0,0,1.18,6.21A7.91,7.91,0,0,0,440,202.7a15.27,15.27,0,0,0,6.52,1.21,16.63,16.63,0,0,0,4.9-.69,10.33,10.33,0,0,0,3.18-1.62,8.49,8.49,0,0,0,2.18-2.47,10.3,10.3,0,0,0,1.15-3.2,74.92,74.92,0,0,0,.72-7.84l.51-9.27c.16-3.42.26-7.07.32-10.95l3,0,2.68,0-.84,13.57-.52,11.23a33.55,33.55,0,0,1-.83,6.08,11.23,11.23,0,0,1-1.27,2.88,9.5,9.5,0,0,1-1.84,2.16,13.86,13.86,0,0,1-3.14,2.05,18.73,18.73,0,0,1-4.15,1.38,33.75,33.75,0,0,1-6.51.61,26.69,26.69,0,0,1-6.14-.67,17.06,17.06,0,0,1-4.55-1.75,11.94,11.94,0,0,1-3.31-2.68,8.91,8.91,0,0,1-1.64-3.06,14.43,14.43,0,0,1-.69-4.58c0-1.78.07-3.83.21-6.13s.33-5.78.55-10.43S430.76,170.33,430.76,167.87Z" transform="translate(-32.55 -30.03)"/><path class="cls-4" d="M472.2,207.19q.49-5.87.68-9.53t.52-14.08q.35-10.41.34-13l0-2.71q3.89.06,6,.06,1.69,0,4.56-.06c1.91,0,3.38-.06,4.39-.06a27.65,27.65,0,0,1,4.83.32,10.36,10.36,0,0,1,2.95,1,7.52,7.52,0,0,1,2.19,1.74,8.35,8.35,0,0,1,1.44,2.61,10.37,10.37,0,0,1,.55,3.43,11,11,0,0,1-.37,2.83,9.45,9.45,0,0,1-1.1,2.57,9.7,9.7,0,0,1-1.73,2.06,10.52,10.52,0,0,1-1.88,1.34,21.86,21.86,0,0,1-2.36,1,20.9,20.9,0,0,1,2.35.72,9.91,9.91,0,0,1,1.76.92,8.72,8.72,0,0,1,1.64,1.43,8,8,0,0,1,1.24,1.81,9.15,9.15,0,0,1,.73,2.18,11.55,11.55,0,0,1,.26,2.53,11.42,11.42,0,0,1-.54,3.52,9.53,9.53,0,0,1-4,5.17,12.56,12.56,0,0,1-2.79,1.32,16.76,16.76,0,0,1-3.65.65c-1.51.14-3.52.2-6,.2l-7.35,0Zm5.53-3.63h7.48a23.28,23.28,0,0,0,4.69-.34,10.18,10.18,0,0,0,3-1.23,5.93,5.93,0,0,0,2.3-2.62,8.38,8.38,0,0,0,.83-3.7,6.82,6.82,0,0,0-.59-2.91,6.45,6.45,0,0,0-1.72-2.25,7.22,7.22,0,0,0-2.67-1.38,17.28,17.28,0,0,0-4.46-.43h-8.34Zm.67-18.46h5.22c2.34,0,3.93-.06,4.78-.16a11.68,11.68,0,0,0,2.74-.75,6,6,0,0,0,2.45-1.73A7.5,7.5,0,0,0,495,180a8.39,8.39,0,0,0,.45-2.69,6.29,6.29,0,0,0-.48-2.54,5,5,0,0,0-1.42-1.87,5.91,5.91,0,0,0-2.24-1.12,16.11,16.11,0,0,0-3.9-.35h-8.5Z" transform="translate(-32.55 -30.03)"/></svg>