<?xml version="1.0" encoding="UTF-8" standalone="no"?>
<!-- Created with Inkscape (http://www.inkscape.org/) -->

<svg
   xmlns:dc="http://purl.org/dc/elements/1.1/"
   xmlns:cc="http://creativecommons.org/ns#"
   xmlns:rdf="http://www.w3.org/1999/02/22-rdf-syntax-ns#"
   xmlns:svg="http://www.w3.org/2000/svg"
   xmlns="http://www.w3.org/2000/svg"
   xmlns:sodipodi="http://sodipodi.sourceforge.net/DTD/sodipodi-0.dtd"
   xmlns:inkscape="http://www.inkscape.org/namespaces/inkscape"
   width="40mm"
   height="40mm"
   viewBox="0 0 40 40"
   version="1.1"
   id="svg4644"
   inkscape:version="0.92.2 5c3e80d, 2017-08-06"
   sodipodi:docname="air.svg">
  <defs
     id="defs4638" />
  <sodipodi:namedview
     id="base"
     pagecolor="#ffffff"
     bordercolor="#666666"
     borderopacity="1.0"
     inkscape:pageopacity="0.0"
     inkscape:pageshadow="2"
     inkscape:zoom="0.36957237"
     inkscape:cx="92.857143"
     inkscape:cy="385.71429"
     inkscape:document-units="mm"
     inkscape:current-layer="layer1"
     showgrid="false"
     inkscape:window-width="1440"
     inkscape:window-height="855"
     inkscape:window-x="0"
     inkscape:window-y="1"
     inkscape:window-maximized="1"
     inkscape:pagecheckerboard="false" />
  <metadata
     id="metadata4641">
    <rdf:RDF>
      <cc:Work
         rdf:about="">
        <dc:format>image/svg+xml</dc:format>
        <dc:type
           rdf:resource="http://purl.org/dc/dcmitype/StillImage" />
        <dc:title></dc:title>
      </cc:Work>
    </rdf:RDF>
  </metadata>
  <g
     inkscape:label="Layer 1"
     inkscape:groupmode="layer"
     id="layer1"
     transform="translate(0,-257)">
    <path
       style="fill:#000000;stroke-width:0.26458332"
       d="m 10.629878,292.42129 c -1.8208598,-0.35996 -4.5417628,-1.38424 -5.2233528,-1.96633 -0.4889,-0.41752 -0.6868,-2.95924 -0.23041,-2.95924 0.12794,0 0.87208,0.29262 1.65365,0.65026 3.8589428,1.76585 7.9404928,1.90423 12.8772228,0.43661 6.11524,-1.81797 8.92476,-1.96715 12.97153,-0.68877 2.93404,0.92686 3.48582,1.41417 3.48582,3.07852 0,1.24864 -0.0328,1.31139 -0.59531,1.13747 -0.32742,-0.10124 -1.01203,-0.39378 -1.52136,-0.6501 -3.25981,-1.64051 -6.98733,-1.76167 -12.25993,-0.39852 -3.82584,0.98911 -7.75649,1.74213 -8.87524,1.70028 -0.38112,-0.0143 -1.4083,-0.16734 -2.28262,-0.34018 z m -0.9879798,-5.46747 c -2.075283,-0.51019 -4.140933,-1.402 -4.495903,-1.94104 -0.1935,-0.29384 -0.28913,-2.80872 -0.10679,-2.80872 0.0526,0 0.8563,0.3413 1.78593,0.75845 3.9128828,1.75581 7.3167928,1.92826 12.1412928,0.61511 7.07013,-1.92438 9.82827,-2.13094 13.36145,-1.00068 1.16417,0.37242 2.50362,0.91537 2.97657,1.20656 0.78543,0.4836 0.85989,0.64433 0.85989,1.85625 0,0.72974 -0.10425,1.32681 -0.23166,1.32681 -0.12741,0 -0.89172,-0.29191 -1.69845,-0.64869 -3.86452,-1.70907 -6.95358,-1.88663 -11.57125,-0.6651 -4.35847,1.15297 -8.00305,1.84587 -9.59292,1.8238 -0.75882,-0.0105 -2.30149,-0.24578 -3.4281598,-0.52275 z m 1.7838998,-4.7711 c -2.1719098,-0.31695 -5.4567028,-1.48629 -6.0192728,-2.14279 -0.43989,-0.51334 -0.68396,-2.86296 -0.29739,-2.86296 0.0911,0 1.25196,0.43622 2.57969,0.96936 2.075083,0.83325 2.7855828,0.98549 5.0598928,1.08419 2.48974,0.10805 2.92511,0.0417 7.37974,-1.1249 5.49126,-1.43805 7.7128,-1.67659 10.34734,-1.11103 2.24767,0.48252 4.75259,1.40089 5.29184,1.94015 0.37194,0.37193 0.56961,2.47905 0.26147,2.78718 -0.0744,0.0744 -1.65195,-0.38936 -3.50573,-1.03053 -3.05965,-1.05824 -3.54131,-1.15384 -5.22258,-1.03661 -1.01865,0.071 -3.99521,0.65888 -6.61458,1.30634 -5.41535,1.33857 -7.01386,1.54944 -9.26042,1.2216 z m -1.9386098,-5.40233 c -0.7752,-0.21822 -2.084893,-0.72427 -2.910423,-1.12457 l -1.50097,-0.72781 -0.08,-1.38906 c -0.044,-0.76398 0.0156,-1.38853 0.13229,-1.38789 0.11675,6.5e-4 1.58148,0.47637 3.254973,1.05716 4.1633298,1.44491 5.3717198,1.42918 11.5467098,-0.15029 5.32046,-1.36089 8.00626,-1.66551 10.4671,-1.18714 2.06459,0.40134 4.9945,1.52219 5.43671,2.07984 0.1819,0.22939 0.33073,1.00236 0.33073,1.71772 0,0.94014 -0.0917,1.26115 -0.33073,1.15815 -3.36635,-1.45049 -4.37226,-1.79321 -6.00819,-2.04704 -2.43451,-0.37772 -3.88447,-0.19736 -9.00691,1.12038 -4.84761,1.24705 -8.90836,1.5626 -11.3313198,0.88055 z m 1.6740298,-5.04902 c -2.2548998,-0.54484 -3.0913828,-0.80505 -4.3566428,-1.35526 -0.79541,-0.3459 -1.53773,-0.77291 -1.64959,-0.94892 -0.11186,-0.176 -0.2052,-0.89829 -0.20743,-1.60509 -0.003,-0.93042 0.0872,-1.24488 0.32668,-1.13943 4.070543,1.79257 6.7010328,2.41595 9.1664228,2.17228 0.93057,-0.092 3.49999,-0.63256 5.70982,-1.20129 4.77415,-1.22869 7.40227,-1.59382 9.45749,-1.31393 2.71715,0.37004 6.07582,1.69073 6.39145,2.51324 0.26777,0.6978 0.18829,2.50317 -0.1102,2.50317 -0.15132,0 -0.75627,-0.24546 -1.34433,-0.54547 -2.99205,-1.52643 -7.58879,-1.95802 -10.94826,-1.02794 -5.89839,1.63299 -10.6562,2.37854 -12.43541,1.94864 z M 9.6178682,266.2124 c -2.223363,-0.6414 -4.154413,-1.52285 -4.418893,-2.01705 -0.28721,-0.53665 -0.35105,-2.62879 -0.0802,-2.62879 0.0964,0 1.63913,0.47625 3.428313,1.05833 4.3357398,1.41057 5.2996598,1.39767 11.3681598,-0.15208 5.32734,-1.36048 8.01638,-1.66458 10.48166,-1.18535 2.06459,0.40134 4.9945,1.52219 5.43671,2.07984 0.33184,0.41847 0.46431,2.47539 0.17786,2.76184 -0.0841,0.0841 -0.89817,-0.19591 -1.8091,-0.62219 -1.86658,-0.87348 -4.72566,-1.55249 -6.5047,-1.54483 -1.45083,0.006 -3.6216,0.44158 -7.80521,1.56525 -3.7708,1.01279 -8.13078,1.30348 -10.2745998,0.68503 z"
       id="air"
       inkscape:connector-curvature="0">
      <title
         id="air">air</title>
    </path>
  </g>
</svg>
