<?xml version="1.0" encoding="UTF-8" standalone="no"?>
<!-- Created with Inkscape (http://www.inkscape.org/) -->

<svg
   xmlns:dc="http://purl.org/dc/elements/1.1/"
   xmlns:cc="http://creativecommons.org/ns#"
   xmlns:rdf="http://www.w3.org/1999/02/22-rdf-syntax-ns#"
   xmlns:svg="http://www.w3.org/2000/svg"
   xmlns="http://www.w3.org/2000/svg"
   xmlns:sodipodi="http://sodipodi.sourceforge.net/DTD/sodipodi-0.dtd"
   xmlns:inkscape="http://www.inkscape.org/namespaces/inkscape"
   width="40mm"
   height="40mm"
   viewBox="0 0 40 40"
   version="1.1"
   id="svg4644"
   inkscape:version="0.92.2 5c3e80d, 2017-08-06"
   sodipodi:docname="water.svg">
  <defs
     id="defs4638" />
  <sodipodi:namedview
     id="base"
     pagecolor="#ffffff"
     bordercolor="#666666"
     borderopacity="1.0"
     inkscape:pageopacity="0.0"
     inkscape:pageshadow="2"
     inkscape:zoom="0.36957237"
     inkscape:cx="92.857143"
     inkscape:cy="385.71429"
     inkscape:document-units="mm"
     inkscape:current-layer="layer1"
     showgrid="false"
     inkscape:window-width="1440"
     inkscape:window-height="855"
     inkscape:window-x="0"
     inkscape:window-y="1"
     inkscape:window-maximized="1"
     inkscape:pagecheckerboard="false" />
  <metadata
     id="metadata4641">
    <rdf:RDF>
      <cc:Work
         rdf:about="">
        <dc:format>image/svg+xml</dc:format>
        <dc:type
           rdf:resource="http://purl.org/dc/dcmitype/StillImage" />
        <dc:title></dc:title>
      </cc:Work>
    </rdf:RDF>
  </metadata>
  <g
     inkscape:label="Layer 1"
     inkscape:groupmode="layer"
     id="layer1"
     transform="translate(0,-257)">
    <path
       style="fill:#004175;stroke-width:0.26458332"
       d="m 22.130444,292.09603 c -1.600729,-0.41854 -3.852196,-1.00844 -5.003261,-1.31088 -3.384156,-0.88918 -6.70999,-0.59832 -10.0447653,0.87847 -0.85485,0.37857 -1.65852,0.6883 -1.78594,0.6883 -0.12741,0 -0.23166,-0.63858 -0.23166,-1.41907 v -1.41908 l 1.58499,-0.7113 c 4.1242913,-1.85087 8.1001433,-1.89438 14.2900113,-0.1564 6.157478,1.72889 8.651232,1.70421 12.997121,-0.12866 l 2.10939,-0.88962 -0.0788,1.49833 c -0.0765,1.45431 -0.11092,1.51603 -1.17284,2.10053 -3.2243,1.77472 -7.958755,2.09973 -12.664266,0.86938 z m 3.439583,-4.51103 c -1.638578,-0.1968 -4.706101,-0.93641 -7.937499,-1.91382 -3.369754,-1.01926 -7.119704,-0.70512 -10.6860703,0.89521 -0.92964,0.41715 -1.73925,0.75845 -1.79915,0.75845 -0.0599,0 -0.0732,-0.68461 -0.0296,-1.52135 l 0.0793,-1.52136 1.25854,-0.60124 c 2.200228,-1.05111 4.3720293,-1.49781 7.2081303,-1.4826 2.629247,0.0141 3.269395,0.14212 10.442555,2.08822 2.978687,0.80812 6.852597,0.40421 10.162537,-1.0596 0.82649,-0.36551 1.55884,-0.66457 1.62745,-0.66457 0.0686,0 0.12475,0.65242 0.12475,1.44983 0,1.42059 -0.021,1.46052 -1.03897,1.97987 -2.43102,1.24021 -6.547779,1.93696 -9.412073,1.59296 z m -0.926041,-5.4571 c -0.363802,-0.0728 -2.209271,-0.55499 -4.101042,-1.07162 -4.530916,-1.23737 -5.264067,-1.37991 -7.143749,-1.38892 -2.015058,-0.01 -4.4109263,0.55365 -6.6254773,1.55778 l -1.73466,0.78653 0.079,-1.50677 c 0.0769,-1.46574 0.10899,-1.52325 1.17979,-2.11265 0.60542,-0.33324 2.092312,-0.85663 3.304207,-1.1631 3.2074583,-0.81109 6.2869203,-0.58607 11.4700273,0.83815 6.213529,1.70737 8.315409,1.68966 12.722728,-0.10719 l 2.22623,-0.90762 v 1.4359 c 0,1.33494 -0.0605,1.47313 -0.8599,1.96558 -1.64371,1.01249 -4.15857,1.62246 -7.0776,1.71661 -1.527969,0.0493 -3.075781,0.0301 -3.439583,-0.0427 z m -0.711249,-5.23747 c -0.90051,-0.20548 -2.984104,-0.75974 -4.630208,-1.23169 -5.056035,-1.4496 -8.502139,-1.32893 -12.3514513,0.43251 -0.78157,0.35764 -1.52571,0.65026 -1.65365,0.65026 -0.12793,0 -0.23261,-0.6614 -0.23261,-1.46977 v -1.46977 l 1.38906,-0.61109 c 2.193426,-0.96495 4.6725743,-1.47646 7.1560253,-1.47646 1.854539,0 3.193419,0.22992 6.994555,1.20114 2.585542,0.66062 5.415361,1.26711 6.288486,1.34774 2.005564,0.18522 4.933486,-0.4174 7.214716,-1.48491 0.93953,-0.43966 1.7544,-0.79938 1.81082,-0.79938 0.0564,0 0.10259,0.6521 0.10259,1.44911 0,1.72935 -0.16994,1.87982 -3.30682,2.92802 -2.608082,0.8715 -6.315219,1.09705 -8.781513,0.53429 z m 1.372707,-4.92743 c -0.873125,-0.1203 -3.373437,-0.71563 -5.55625,-1.32297 -5.785058,-1.60961 -8.670262,-1.53841 -12.8027363,0.31594 -0.92964,0.41715 -1.73925,0.75845 -1.79915,0.75845 -0.0599,0 -0.0732,-0.68461 -0.0296,-1.52135 l 0.0793,-1.52135 1.25854,-0.60124 c 2.154157,-1.02911 4.3694433,-1.48302 7.2081303,-1.47695 2.641311,0.006 3.192004,0.11547 10.442555,2.08256 2.978687,0.80813 6.852597,0.40421 10.162537,-1.0596 0.82649,-0.36551 1.55884,-0.66457 1.62745,-0.66457 0.0686,0 0.12475,0.58681 0.12475,1.30402 0,1.56821 -0.29243,1.90998 -2.26606,2.64841 -2.77916,1.03982 -5.820494,1.42086 -8.449566,1.05865 z m -0.132292,-5.17759 c -0.363802,-0.0712 -2.711243,-0.6582 -5.216536,-1.3044 -6.246696,-1.61125 -8.587304,-1.57892 -12.8464783,0.17742 -1.01943,0.42038 -1.89667,0.76433 -1.94942,0.76433 -0.0528,0 -0.0959,-0.66032 -0.0959,-1.46738 V 263.488 l 1.38907,-0.64485 c 3.9724653,-1.84414 8.5270613,-1.89622 14.7505163,-0.16865 4.668388,1.2959 6.199997,1.49325 8.591093,1.10699 1.558933,-0.25184 2.548963,-0.59367 5.894843,-2.03534 0.24211,-0.10432 0.33073,0.25336 0.33073,1.33491 0,1.76062 -0.16146,1.9053 -3.29426,2.95211 -2.06877,0.69127 -5.910652,1.07387 -7.553658,0.75224 z"
       id="water"
       inkscape:connector-curvature="0">
      <title
         id="water">water</title>
    </path>
  </g>
</svg>
