<?xml version="1.0" encoding="UTF-8" standalone="no"?>
<!-- Created with Inkscape (http://www.inkscape.org/) -->

<svg
   xmlns:dc="http://purl.org/dc/elements/1.1/"
   xmlns:cc="http://creativecommons.org/ns#"
   xmlns:rdf="http://www.w3.org/1999/02/22-rdf-syntax-ns#"
   xmlns:svg="http://www.w3.org/2000/svg"
   xmlns="http://www.w3.org/2000/svg"
   xmlns:sodipodi="http://sodipodi.sourceforge.net/DTD/sodipodi-0.dtd"
   xmlns:inkscape="http://www.inkscape.org/namespaces/inkscape"
   width="40mm"
   height="40mm"
   viewBox="0 0 40 40"
   version="1.1"
   id="svg4644"
   inkscape:version="0.92.2 5c3e80d, 2017-08-06"
   sodipodi:docname="fire.svg">
  <defs
     id="defs4638" />
  <sodipodi:namedview
     id="base"
     pagecolor="#ffffff"
     bordercolor="#666666"
     borderopacity="1.0"
     inkscape:pageopacity="0.0"
     inkscape:pageshadow="2"
     inkscape:zoom="0.36957237"
     inkscape:cx="92.857143"
     inkscape:cy="385.71429"
     inkscape:document-units="mm"
     inkscape:current-layer="layer1"
     showgrid="false"
     inkscape:window-width="1440"
     inkscape:window-height="855"
     inkscape:window-x="0"
     inkscape:window-y="1"
     inkscape:window-maximized="1"
     inkscape:pagecheckerboard="false" />
  <metadata
     id="metadata4641">
    <rdf:RDF>
      <cc:Work
         rdf:about="">
        <dc:format>image/svg+xml</dc:format>
        <dc:type
           rdf:resource="http://purl.org/dc/dcmitype/StillImage" />
        <dc:title></dc:title>
      </cc:Work>
    </rdf:RDF>
  </metadata>
  <g
     inkscape:label="Layer 1"
     inkscape:groupmode="layer"
     id="layer1"
     transform="translate(0,-257)">
    <path
       style="fill:#f03b26;stroke-width:0.26458332"
       d="m 20.990724,293.14821 c -0.337693,-0.0608 -0.552625,-0.24859 -0.480926,-0.42023 0.0713,-0.17068 0.574944,-1.62002 1.119209,-3.22075 1.382012,-4.0646 1.36613,-5.79883 -0.101125,-11.04245 -1.386895,-4.95643 -1.741112,-7.46043 -1.397218,-9.87709 0.270603,-1.90163 0.963912,-4.17957 1.712925,-5.628 0.407357,-0.78774 0.519372,-0.83683 1.909464,-0.83683 1.079382,0 1.43919,0.089 1.337234,0.33073 -1.820072,4.31546 -2.169219,5.94588 -1.958627,9.14625 0.08579,1.30371 0.438101,3.21227 0.814743,4.41365 1.356012,4.32526 1.575615,5.49871 1.58447,8.46666 0.0062,2.06641 -0.128783,3.35906 -0.465343,4.45747 -0.652522,2.1296 -1.457193,3.88974 -1.829936,4.00282 -0.733987,0.22268 -1.677099,0.30996 -2.24487,0.20777 z M 4.8002477,292.93232 c 0,-0.0807 0.34268,-0.9521 0.76152,-1.93636 0.98237,-2.30852 1.35614,-4.09652 1.35101,-6.46269 -0.004,-1.97181 -0.14078,-2.6534 -1.60035,-7.99062 -0.73968,-2.70483 -0.86739,-3.60599 -0.86239,-6.08541 0.005,-2.41555 0.12384,-3.27033 0.69964,-5.02709 1.00164,-3.05596 1.22755,-3.30729 2.97286,-3.30729 0.792113,0 1.440206,0.0451 1.440206,0.10032 0,0.0552 -0.311218,0.78011 -0.691596,1.61096 -1.63938,3.58088 -1.88445,7.31292 -0.757245,11.53186 2.3195633,8.68177 2.3644713,11.52066 0.257606,16.28466 l -0.631729,1.42845 h -1.469772 c -0.80837,0 -1.46976,-0.0661 -1.46976,-0.14679 z m 5.9591103,-1.87035 c 1.660903,-3.82065 1.825944,-7.40466 0.538555,-11.69524 -1.9410963,-6.46924 -2.1942953,-10.55445 -0.875569,-14.12677 1.045265,-2.83154 1.306414,-3.1171 2.850665,-3.1171 0.747108,0 1.316817,0.12075 1.316817,0.27909 0,0.15349 -0.354963,1.11323 -0.788807,2.13275 -0.989402,2.32506 -1.443622,4.87475 -1.230934,6.90964 0.09043,0.86514 0.652436,3.49728 1.248912,5.84919 1.692406,6.67317 1.69301,9.61019 0.0028,13.8012 l -0.746916,1.85209 -1.60146,0.0782 -1.6014593,0.0782 0.8873563,-2.04123 z m 4.624218,1.91777 c 0,-0.0547 0.302257,-0.78283 0.671683,-1.61816 1.78341,-4.03261 1.880873,-7.16099 0.402104,-12.9068 -1.554285,-6.03924 -1.797645,-8.09447 -1.273495,-10.75499 0.23426,-1.18907 0.785492,-2.93032 1.224959,-3.86944 l 0.79903,-1.70749 h 1.46911 c 0.80801,0 1.469109,0.0451 1.469109,0.10032 0,0.0552 -0.292045,0.73978 -0.648989,1.52135 -1.783898,3.90605 -1.934257,7.39689 -0.538014,12.49085 1.303978,4.75734 1.798989,7.84239 1.573636,9.80734 -0.211213,1.84167 -1.004012,4.58812 -1.744736,6.0442 -0.490604,0.96441 -0.545325,0.99219 -1.954566,0.99219 -0.797407,0 -1.449831,-0.0447 -1.449831,-0.0994 z m 10.989439,-1.96567 c 1.827534,-4.21717 1.844252,-6.13973 0.113186,-13.01621 -1.727964,-6.86416 -1.673071,-10.44825 0.218824,-14.2875 l 0.717093,-1.45521 1.488789,-0.0784 1.48879,-0.0784 -0.890093,2.2168 c -1.787126,4.4509 -1.781236,6.56292 0.03741,13.41808 1.573342,5.9305 1.544862,9.24618 -0.114766,13.36146 l -0.746915,1.85208 -1.608913,0.0784 -1.608912,0.0784 z m 4.442284,1.73431 c 1.441672,-3.34588 1.783506,-4.33591 2.035339,-5.89484 0.384958,-2.38302 0.201784,-3.76524 -1.2437,-9.38485 -1.342668,-5.21989 -1.530935,-7.85515 -0.769348,-10.76903 0.521666,-1.99594 1.400572,-4.09803 1.826723,-4.369 0.43525,-0.27676 2.827597,-0.25968 2.827597,0.0202 0,0.12539 -0.346184,0.99148 -0.769297,1.92464 -1.517462,3.34668 -1.721954,6.67976 -0.657196,10.71188 1.182775,4.47904 1.950601,8.37479 1.949193,9.88966 -0.0016,1.77614 -0.537382,4.13269 -1.467961,6.45723 l -0.698511,1.74485 h -1.587672 c -1.169749,0 -1.550159,-0.0871 -1.445167,-0.33073 z"
       id="fire"
       inkscape:connector-curvature="0">
      <title
         id="fire">fire</title>
    </path>
  </g>
</svg>
